<?xml version="1.0" encoding="UTF-8"?>
<svg version="1.1" viewBox="0 0 1579.7 1027.3" xmlns="http://www.w3.org/2000/svg">
 <g transform="translate(302.15 -166.66)">
  <g transform="matrix(.013468 0 0 -.013468 8.2611 847.65)">
   <path d="m-23048-25715h1.1729e5v76278h-1.1729e5v-76278z" fill="#477bc7"/>
   <path d="m63708 21140v-6841.2c0-1025.2 831.13-1856.2 1856.2-1856.2h6837.6c1025.3 0 1856.4-790.67 1856.4-1765.9v-2795.5" fill="none" stroke="#fff" stroke-miterlimit="10" stroke-width="222.75"/>
   <path d="m40411 20265v8974.1c0 1025.2-831.13 1856.2-1856.2 1856.2h-6837.6c-1025.3 0-1856.4 790.67-1856.4 1765.9v2795.5" fill="none" stroke="#fff" stroke-miterlimit="10" stroke-width="222.75"/>
   <path d="m-2268.8 10533h14418c1025.2 0 1856.2 831.14 1856.2 1856.2v5172c0 1025.3 790.67 1856.4 1765.8 1856.4h10788" fill="none" stroke="#fff" stroke-miterlimit="10" stroke-width="222.75"/>
   <path d="m38444 13597h16931c1025.2 0 1856.2 1308.5 1856.2 2333.6v3301.7c0 1025.3 790.67 1856.4 1765.9 1856.4h17079" fill="none" stroke="#fff" stroke-miterlimit="10" stroke-width="222.75"/>
   <path d="m84998-11575v8974.1c0 1025.2-831.14 1856.2-1856.3 1856.2h-6837.6c-1025.3 0-1856.4 790.67-1856.4 1765.9v2795.5" fill="none" stroke="#fff" stroke-miterlimit="10" stroke-width="222.75"/>
   <path d="m78121 5145c0-1879.4-1523.6-3403.3-3403.2-3403.3s-3403.2 1523.9-3403.2 3403.3c0 1879.6 1523.6 3403.2 3403.2 3403.2s3403.2-1523.6 3403.2-3403.2" fill="#fff" stroke="#fff" stroke-width="9.2812"/>
   <path d="m3789.1-5639v9083.6c0 1027.7 554.49 1860.9 1238.5 1860.9h17702c684.11 0 1238.6 792.57 1238.6 1770.3v755.53" fill="none" stroke="#fff" stroke-miterlimit="10" stroke-width="222.75"/>
   <path d="m43803 10730h18949c1025.2 0 1856.2-1308.5 1856.2-2333.6v-6124.7" fill="none" stroke="#fff" stroke-miterlimit="10" stroke-width="222.75"/>
   <path d="m51154-3096.7v9568.9c0 1025.2-831.14 1856.2-1856.2 1856.2h-7769c-1025.3 0-1856.4 790.58-1856.4 1765.8v1903.5" fill="none" stroke="#fff" stroke-miterlimit="10" stroke-width="222.75"/>
   <path d="m33129 37981c0-1879.4-1523.6-3403.3-3403.2-3403.3s-3403.2 1523.9-3403.2 3403.3c0 1879.6 1523.6 3403.2 3403.2 3403.2s3403.2-1523.6 3403.2-3403.2" fill="#fff" stroke="#fff" stroke-width="9.2812"/>
   <path d="m7341.5-8007.4c0-1879.5-1523.7-3403.3-3403.3-3403.3s-3403.3 1523.9-3403.3 3403.3c0 1879.6 1523.7 3403.2 3403.3 3403.2s3403.3-1523.6 3403.3-3403.2" fill="#fff" stroke="#fff" stroke-width="9.2812"/>
   <path d="m54557-4050.8c0-1879.5-1523.6-3403.3-3403.2-3403.3s-3403.2 1523.9-3403.2 3403.3c0 1879.6 1523.6 3403.2 3403.2 3403.2s3403.2-1523.6 3403.2-3403.2" fill="#fff" stroke="#fff" stroke-width="9.2812"/>
   <path d="m-1254.7 10705c0-1879.5-1523.6-3403.3-3403.2-3403.3s-3403.2 1523.9-3403.2 3403.3c0 1879.6 1523.6 3403.2 3403.2 3403.2s3403.2-1523.6 3403.2-3403.2" fill="#fff" stroke="#fff" stroke-width="9.2812"/>
   <path d="m32017 26214h-14418c-1025.2 0-1856.2 831.13-1856.2 1856.2v5172c0 1025.3-790.67 1856.4-1765.8 1856.4h-10788" fill="none" stroke="#fff" stroke-miterlimit="10" stroke-width="222.75"/>
   <path d="m28083 11417v-18949c0-1025.2-1308.5-1856.2-2333.6-1856.2h-6124.7" fill="none" stroke="#fff" stroke-miterlimit="10" stroke-width="222.75"/>
   <path d="m41163 22082v18949c0 1025.2 1308.5 1856.2 2333.6 1856.2h6124.7" fill="none" stroke="#fff" stroke-miterlimit="10" stroke-width="222.75"/>
   <path d="m46325-19522v16931c0 1025.2-1308.5 1856.2-2333.6 1856.2h-3301.7c-1025.3 0-1856.4 790.67-1856.4 1765.9v14454" fill="none" stroke="#fff" stroke-miterlimit="10" stroke-width="222.75"/>
   <path d="m54368 14111c0 3597.4-2785.9 6543.8-6318 6800.3-422.2 3187.7-3148.7 5648-6451.8 5648-942.51 0-1837.2-201.86-2646-562.25-1428.4 1985.2-3758.5 3278.2-6390.8 3278.2-3793.1 0-6959-2684-7702.9-6256.4-55.038 1.207-110.17 2.135-165.48 2.135-4345.7 0-7868.4-3522.8-7868.4-7868.4 0-4345.8 3522.7-7868.3 7868.4-7868.3 114.07 0 227.3 2.878 340.16 7.797h22608l-0.464 1.113c3723.7 49.098 6727.3 3082.2 6727.3 6817.7" fill="#fff" stroke="#fff" stroke-width="9.2812"/>
   <path d="m45619 15843v8974.1c0 1025.2 831.14 1856.2 1856.2 1856.2h6837.6c1025.3 0 1856.4 790.67 1856.4 1765.9v2795.5" fill="none" stroke="#fff" stroke-miterlimit="10" stroke-width="222.75"/>
   <path d="m18909 14235v7727.4c0 882.78-1011.7 1598.4-2259.5 1598.4h-8322.8" fill="none" stroke="#fff" stroke-miterlimit="10" stroke-width="228.05"/>
   <path d="m37629-5563.3v8999.7c0 1028.1-483.63 1861.5-1080.1 1861.5h-3978.7c-596.61 0-1080.2 792.92-1080.2 1771v2803.5" fill="none" stroke="#fff" stroke-miterlimit="10" stroke-width="222.75"/>
   <path d="m5623.1 36044c0-1879.4-1523.6-3403.3-3403.2-3403.3s-3403.2 1523.9-3403.2 3403.3c0 1879.6 1523.6 3403.2 3403.2 3403.2s3403.2-1523.6 3403.2-3403.2" fill="#fff" stroke="#fff" stroke-width="9.2812"/>
   <path d="m8412.3 24231c0-1879.5-1523.6-3403.3-3403.2-3403.3s-3403.2 1523.9-3403.2 3403.3c0 1879.6 1523.6 3403.2 3403.2 3403.2s3403.2-1523.6 3403.2-3403.2" fill="#fff" stroke="#fff" stroke-width="9.2812"/>
   <path d="m31218-1880c0-1879.4-1523.6-3403.3-3403.2-3403.3s-3403.2 1523.9-3403.2 3403.3c0 1879.6 1523.6 3403.2 3403.2 3403.2s3403.2-1523.6 3403.2-3403.2" fill="#fff" stroke="#fff" stroke-width="9.2812"/>
   <path d="m40898-8090.8c0-1879.5-1523.6-3403.3-3403.2-3403.3s-3403.2 1523.9-3403.2 3403.3c0 1879.6 1523.6 3403.2 3403.2 3403.2s3403.2-1523.6 3403.2-3403.2" fill="#fff" stroke="#fff" stroke-width="9.2812"/>
   <path d="m49750-18787c0-1879.5-1523.6-3403.3-3403.2-3403.3s-3403.2 1523.9-3403.2 3403.3c0 1879.6 1523.6 3403.2 3403.2 3403.2s3403.2-1523.6 3403.2-3403.2" fill="#fff" stroke="#fff" stroke-width="9.2812"/>
   <path d="m68195 1535.5c0-1879.4-1523.6-3403.3-3403.2-3403.3s-3403.2 1523.9-3403.2 3403.3c0 1879.6 1523.6 3403.2 3403.2 3403.2s3403.2-1523.6 3403.2-3403.2" fill="#fff" stroke="#fff" stroke-width="9.2812"/>
   <path d="m78860 20770c0-1879.5-1523.6-3403.3-3403.2-3403.3s-3403.2 1523.9-3403.2 3403.3c0 1879.6 1523.6 3403.2 3403.2 3403.2s3403.2-1523.6 3403.2-3403.2" fill="#fff" stroke="#fff" stroke-width="9.2812"/>
   <path d="m59335 31599c0-1879.4-1523.6-3403.3-3403.2-3403.3s-3403.2 1523.9-3403.2 3403.3c0 1879.6 1523.6 3403.2 3403.2 3403.2s3403.2-1523.6 3403.2-3403.2" fill="#fff" stroke="#fff" stroke-width="9.2812"/>
   <path d="m54577 42920c0-1879.4-1523.6-3403.3-3403.2-3403.3s-3403.2 1523.9-3403.2 3403.3c0 1879.6 1523.6 3403.2 3403.2 3403.2s3403.2-1523.6 3403.2-3403.2" fill="#fff" stroke="#fff" stroke-width="9.2812"/>
   <g transform="matrix(84.944 0 0 75.54 50640 -5131.8)">
    <path d="m0 0c0.386-0.413 1.045-0.426 1.445-0.041 0 0 1.515 1.514 3.527 3.553 0.316-0.151 0.674-0.247 1.059-0.247 1.323 0 2.397 1.073 2.397 2.395 0 0.4-0.097 0.772-0.262 1.103 3.498 3.58 7.01 7.285 6.818 7.491-0.193 0.207-4.09-3.14-7.864-6.459-0.331 0.166-0.688 0.263-1.089 0.263-1.321 0-2.395-1.076-2.395-2.398 0-0.289 0.054-0.564 0.151-0.826-2.148-1.928-3.761-3.374-3.761-3.374-0.399-0.399-0.411-1.046-0.026-1.46m15.148 20.217 0.124 0.206-0.302 0.18-0.744 0.426-2.231-3.854 1.046-0.607 2.107 3.649zm6.266-6.376-0.603 1.047-3.858-2.232 0.606-1.046 3.855 2.231zm-2.437-8.786h4.463v1.212h-4.463v-1.212zm2.437-7.562-3.855 2.231-0.606-1.046 3.858-2.232 0.603 1.047zm-9.433-3.332 2.231-3.856 1.047 0.606-2.232 3.857-1.046-0.607zm-6.543-5.894h1.212v4.462h-1.212v-4.462zm-5.328 5.894-1.047 0.607-2.245-3.872 1.046-0.605 2.246 3.87zm-5.578 5.563-3.856-2.231 0.606-1.047 3.857 2.232-0.607 1.046zm-1.419 6.543h-4.463v-1.212h4.463v1.212zm2.038 6.389-3.855 2.232-0.607-1.047 3.856-2.231 0.606 1.046zm3.898 3.912 1.048 0.607-2.233 3.854-0.674-0.385-0.385-0.221 0.124-0.206 2.12-3.649zm7.601 6.487h-1.212v-4.463h1.212v4.463zm22.105-41.551h-45.406c-0.454 0-0.813-0.358-0.813-0.813 0-0.454 0.359-0.812 0.813-0.812h45.406c0.456 0 0.813 0.358 0.813 0.812 0 0.441-0.372 0.813-0.813 0.813m4.642 67.235h-54.703c-0.331 0-0.606-0.275-0.606-0.606 0-0.33 0.275-0.606 0.606-0.606h1.06c0.606-6.142 6.239-11.402 14.256-14.074 1.03-0.345 2.093-0.648 3.194-0.895 2.768-0.634 5.742-0.993 8.841-0.993 3.127 0 6.129 0.359 8.925 1.006 1.101 0.262 2.163 0.55 3.195 0.896 7.987 2.671 13.578 7.918 14.185 14.047h1.062c0.328 0 0.604 0.275 0.604 0.606-0.013 0.344-0.288 0.619-0.619 0.619m-45.958-45.613c1.24-9.157 9.117-16.252 18.606-16.252 9.49 0 17.367 7.08 18.606 16.252 0.111 0.826 0.18 1.681 0.18 2.534 0 2.204-0.387 4.312-1.089 6.279-1.156 3.28-3.208 6.13-5.852 8.291-0.91 0.745-1.901 1.406-2.935 1.971-1.309 0.702-2.698 1.267-4.172 1.653-1.514 0.399-3.113 0.606-4.752 0.606-1.637 0-3.22-0.207-4.75-0.606-1.447-0.374-2.81-0.923-4.105-1.613-1.073-0.577-2.079-1.253-3.016-2.011-2.644-2.148-4.682-5.011-5.852-8.291-0.703-1.967-1.089-4.075-1.089-6.279 0.041-0.853 0.11-1.708 0.22-2.534m-2.133-20.809 1.747 17.091c-0.164 0.51-0.316 1.046-0.453 1.57-0.166 0.702-0.303 1.418-0.387 2.134-0.109 0.84-0.165 1.695-0.165 2.548 0 2.286 0.386 4.49 1.101 6.528 0.236 0.689 0.51 1.35 0.813 2.011 0.235 0.495 0.482 0.964 0.759 1.447l0.633 6.169c0 1.116 0.909 2.025 2.024 2.025h6.335c0.482 0.221 0.965 0.427 1.46 0.605 0.647 0.235 1.308 0.441 1.982 0.607 1.572 0.398 3.21 0.606 4.89 0.606 1.693 0 3.334-0.208 4.89-0.606 0.675-0.166 1.336-0.372 1.982-0.607 0.497-0.178 0.979-0.384 1.461-0.605h6.336c1.114 0 2.023-0.909 2.023-2.025l0.633-6.169c0.276-0.469 0.525-0.952 0.758-1.447 0.304-0.647 0.58-1.322 0.813-2.011 0.715-2.052 1.102-4.242 1.102-6.528 0-0.867-0.056-1.722-0.166-2.548-0.096-0.73-0.221-1.432-0.385-2.134-0.125-0.538-0.276-1.06-0.455-1.57l1.749-17.091h-41.48zm32.859 49.882c-1.032-0.33-2.107-0.62-3.195-0.868v-6.279h3.195v7.147zm-20.961-7.147h-3.194v7.12c1.03-0.331 2.105-0.62 3.194-0.867v-6.253z"/>
   </g>
   <g transform="matrix(2.203 0 0 2.203 -81383 -64692)">
    <path d="m57612 20468-253.33-630.76 457.18-156.9 107.65 709.37c-110.86 7.055-215.77 34.266-311.51 78.289zm732.96-1.923c-110.86-50.3-233.63-79.114-364.19-79.114-19.239 0-37.564 1.557-55.887 2.702l-27.487-693.88 725.63 141.46-278.07 628.84"/>
    <path d="m58112 20726c-271.2 0-491.54 215.03-491.54 480.36s220.35 480.36 491.54 480.36c272.11 0 492-215.03 492-480.36s-219.89-480.36-492-480.36zm-131.93 1269.4c-429.24 0-777.4-339.91-777.4-759.26 0-419.25 348.16-759.26 777.4-759.26 428.78 0 776.94 340 776.94 759.26 0 419.34-348.16 759.26-776.94 759.26"/>
    <path d="m58241 21007c-112.23 0-203.39 88.917-203.39 198.63 0 109.67 91.161 198.63 203.39 198.63 112.24 0 203.4-88.963 203.4-198.63 0-109.72-91.162-198.63-203.4-198.63zm-92.992 589.35c-217.6 0-394.42-172.66-394.42-385.72 0-213.02 176.83-385.77 394.42-385.77 218.51 0 394.88 172.75 394.88 385.77 0 213.06-176.37 385.72-394.88 385.72"/>
   </g>
   <path d="m5429.5-8326.9-198.82 1018.2-6.273 6.414s1263 1246.2 977.08 1532.1c-285.96 285.82-1571-1017.1-1571-1017.1l-902.07 159.36c230.33 285.68 327.23 569.4 216.38 680.38-132.59 132.17-511.54-31.371-846.02-365.57-57.72-57.86-109.72-116.98-156.57-175.11l-723.47 127.85-494.53-421.06 2015.9-925.35-1206.1-1467.6c-31.231-31.651-60.649-62.741-86.303-94.53l-753.44 306.03-358.32-357.9 805.73-369.05 242.6-242.46 339.08-650.55 332.38 332.38-388.02 766.41c19.938 13.385 39.04 28.722 56.747 46.428l1564.3 1229.7 21.053-21.053 1051.7-2086.2 369.47 442.95-150.86 772.96c76.266 56.187 153.64 122.27 228.79 197.42 334.62 334.76 498.02 713.43 365.43 846.02-119.07 119.49-438.21-1.952-744.8-271.18" fill="#131112"/>
   <g transform="matrix(1.5357 0 0 1.5357 -34491 -12590)" fill="#131112">
    <path d="m46058 3644.2h-612.47v204.19h612.47v-204.19zm0-408.37h-612.47v204.19h612.47v-204.19zm-510.47-1225.1c-56.337 0-102 45.682-102 102.09 0 56.346 45.664 102.02 102 102.02 56.43 0 102.09-45.673 102.09-102.02 0-56.411-45.663-102.09-102.09-102.09zm510.47 2041.9h-612.47c-112.95 0-204.28-91.42-204.28-204.19v-2246.1c0-112.93 91.327-204.19 204.28-204.19h612.47c112.77 0 204.19 91.253 204.19 204.19v2246.1c0 112.77-91.42 204.19-204.19 204.19"/>
    <path d="m47386 1806.5v204.19h-612.66v-204.19c-112.95 0-204.19-91.216-204.19-204.19h1020.9c0 112.97-91.327 204.19-204.09 204.19"/>
    <path d="m47079 2317c-56.523 0-102 45.682-102 102.09 0 56.346 45.478 102.09 102 102.09 56.43 0 102.09-45.747 102.09-102.09 0-56.411-45.664-102.09-102.09-102.09zm1225.1 2144h-2450.3c-112.77 0-204.1-91.42-204.1-204.19h2654.4v-1633.5h-1837.6v-408.45h1837.6c112.86 0 204.28 91.327 204.28 204.26v1837.7c0 112.77-91.421 204.19-204.28 204.19"/>
   </g>
   <path d="m-6619.5 12329h1006.5v365.11h-1006.5v-365.11z" fill="#131112"/>
   <g fill="#131112">
    <path d="m-2737.5 11473h-425.93c-127.43 0-229.91 103.03-229.91 229.35 0 127.15 102.48 230.18 229.91 230.18h425.93c126.87 0 230.05-103.03 230.05-230.18 0-126.32-103.17-229.35-230.05-229.35zm-2597.3-2333.9c-732.52 0-1327.3 594.5-1327.3 1327.2 0 733.36 594.78 1327.7 1327.3 1327.7 733.22 0 1328-594.36 1328-1327.7 0-732.66-594.78-1327.2-1328-1327.2zm2780.5 3077.7h-4207.2c-193.24 0-350.37-156.71-350.37-349.95v-2800.3c0-193.52 157.13-350.23 350.37-350.23h4207.5c193.38 0 349.95 156.71 349.95 350.23v2800.3c0 193.24-156.57 349.95-350.23 349.95"/>
    <path d="m-5348.4 11448c541.47 0 980.73-439.05 980.73-981.38 0-541.46-439.27-980.95-980.73-980.95s-980.73 439.48-980.73 980.95c0 542.33 439.27 981.38 980.73 981.38"/>
   </g>
   <g transform="matrix(78.276 0 0 69.61 63501 1643.9)">
    <path d="m17.922-0.729h4.934c0.474 0 0.864-0.39 0.864-0.864 0-0.475-0.39-0.865-0.864-0.865h-4.934c-0.288-0.476-0.815-0.796-1.409-0.796-0.136 0-0.27 0.017-0.406 0.05-0.711 0.186-1.254 0.83-1.254 1.593 0 0.595 0.323 1.119 0.795 1.408v9.5117c0 0.323 0.189 0.611 0.459 0.763 0.119 0.069 0.255 0.103 0.406 0.103 0.477 0 0.867-0.391 0.867-0.866v-9.5117c0.218-0.119 0.406-0.306 0.542-0.526m-1.798-24.025h9.92v-17.499h-19.144v17.499zm11.445 3.729h4.138l-4.374-3.729v1.338h-21.722v-1.338l-4.374 3.729h26.096zm-0.186 42.662 4.374-3.731h-30.469l4.375 3.731v-1.341h21.737v1.341zm-11.259 0h-9.173v17.499h19.143v-17.499zm13.464-39.22h-26.112v31.979h26.112zm-13.464 34.133h-14.802v-36.304h30.42v36.304h-2.154z"/>
   </g>
   <g transform="matrix(95.646 0 0 85.057 75111 2645.7)">
    <path d="m0 0h-19.455v-2.873h19.455v2.873zm-29.395 54.053 14.905-14.905 2.063 2.064 1.679 4.862 0.61 1.78 0.706 2.044 0.645 1.881 1.175 3.415-1.406 1.406-2.974 2.975-1.35 1.358-13.991-4.815-2.062-2.065zm44.661-22.7-1.425-1.427-1.047-1.046-1.44-1.439-0.516-0.516 0.686-0.686 1.359-1.358 1.121-1.12 1.35-1.352 0.66-0.659 5.166 5.168-5.166 5.168-0.748-0.733zm-28.643-30.62h2.676c5.806 5.949 17.627 18.057 23.068 23.625l-1.359 1.358-24.385-24.983zm26.856 22.512-22.327-22.512h2.709c5.014 5.053 14.838 14.974 20.97 21.161l-1.352 1.351zm-22.964 24.249-0.667-1.922 20.943-17.649 1.439 1.44c-7.083 5.928-18.524 15.055-21.715 18.131m24.195-15.653c-5.732 5.052-17.947 14.927-22.906 19.401l-0.639-1.853 22.118-18.981 1.427 1.433zm-23.21 25.289l-2.968 2.974 1.534 1.535 2.974-2.974-1.54-1.535z"/>
   </g>
   <g transform="matrix(73.147 0 0 65.049 75555 20813)">
    <path d="m-15.591-8.642c0-0.525 0.93364-0.964 1.4596-0.964 0.525 0 1.4586 0.439 1.4586 0.964v14.568c0 0.525-0.93364 0.961-1.4586 0.961-0.526 0-1.4596-0.436-1.4596-0.961zm-3.9867-31.954v51.937h36.459v-51.937c0-0.226-0.194-0.42-0.422-0.42h-35.635c-0.209 0.019-0.402 0.194-0.402 0.42m6.905 74.407c0 0.526-0.93364 0.964-1.4586 0.964-0.526 0-1.4596-0.438-1.4596-0.964v-14.565c0-0.527 0.93364-0.964 1.4596-0.964 0.525 0 1.4586 0.437 1.4586 0.964zm29.554-20.946h-36.459v28.134c0 0.228 0.193 0.419 0.42 0.419h35.617c0.228 0 0.422-0.191 0.422-0.419zm-1.789-55.599c0.351 0 0.614 0.281 0.614 0.614v0.49h-2.314v-0.49c0-0.351 0.28-0.614 0.614-0.614zm-31.815 0h-1.068c-0.351 0-0.613 0.281-0.613 0.614v0.49h2.313v-0.49c-0.016-0.333-0.298-0.614-0.632-0.614"/>
   </g>
   <g transform="matrix(75.3 0 0 66.964 55916 33296)">
    <path d="m-14.12-23.715c0-7.909 6.41-14.319 14.32-14.319 3.274 0 6.302 1.102 8.719 2.953 0.2 0.152 0.414 0.322 0.598 0.489 0.014 0.015 0.03 0.031 0.045 0.045 0.184 0.154 0.367 0.322 0.536 0.489 0.015 0.016 0.031 0.032 0.046 0.048 0.75 0.734 1.438 1.545 2.019 2.432 0.016 0.03 0.046 0.061 0.062 0.091 0.122 0.185 0.228 0.367 0.336 0.552 0.031 0.046 0.062 0.091 0.092 0.153 0.107 0.182 0.198 0.352 0.29 0.535 0.031 0.046 0.061 0.108 0.078 0.154 0.091 0.183 0.182 0.381 0.274 0.58 0.015 0.047 0.046 0.092 0.061 0.122 0.214 0.475 0.382 0.965 0.536 1.47 0.016 0.061 0.031 0.107 0.046 0.168 0.061 0.183 0.107 0.382 0.152 0.581 0.016 0.092 0.046 0.169 0.062 0.26 0.046 0.168 0.076 0.337 0.107 0.504 0.015 0.092 0.031 0.186 0.046 0.291 0.031 0.169 0.046 0.338 0.076 0.506 0.016 0.091 0.031 0.198 0.031 0.291 0.015 0.182 0.031 0.367 0.046 0.55 0 0.092 0.015 0.167 0.015 0.261 0.016 0.259 0.03 0.535 0.03 0.81s-0.014 0.536-0.03 0.81c0 0.093-0.015 0.169-0.015 0.261-0.015 0.183-0.031 0.367-0.046 0.55-0.015 0.091-0.031 0.201-0.031 0.291-0.014 0.167-0.045 0.337-0.076 0.505-0.015 0.092-0.031 0.185-0.046 0.291-0.031 0.168-0.061 0.337-0.107 0.505-0.016 0.091-0.031 0.168-0.062 0.26-0.045 0.199-0.106 0.381-0.152 0.581-0.015 0.062-0.03 0.107-0.046 0.168-0.154 0.504-0.336 0.996-0.536 1.47-0.015 0.046-0.046 0.091-0.061 0.122-0.092 0.197-0.183 0.382-0.274 0.58-0.032 0.061-0.063 0.108-0.078 0.155-0.092 0.182-0.183 0.367-0.29 0.534-0.03 0.046-0.061 0.091-0.077 0.153-0.107 0.184-0.229 0.367-0.336 0.552-0.015 0.031-0.045 0.06-0.061 0.092-0.583 0.886-1.255 1.697-2.02 2.431-0.015 0.014-0.03 0.032-0.046 0.047-0.184 0.168-0.352 0.335-0.536 0.489-0.015 0.015-0.03 0.031-0.046 0.046-0.198 0.167-0.397 0.336-0.596 0.489-2.417 1.851-5.431 2.953-8.72 2.953-7.925-0.016-14.335-6.441-14.335-14.351m-6.012 0c0 8.43 5.155 15.667 12.467 18.757 1.057 0.443 2.158 0.795 3.305 1.056 1.47 0.336 2.999 0.521 4.575 0.521s3.105-0.185 4.574-0.521c1.132-0.261 2.25-0.613 3.304-1.056 7.313-3.09 12.469-10.327 12.469-18.757 0-11.214-9.118-20.347-20.347-20.347s-20.347 9.133-20.347 20.347m40.237 24.004h4.6181v4.835h-4.6181zm-31.088 7.267h37.818v-11.458h-18.543c-2.493 1.024-5.216 1.59-8.077 1.59s-5.584-0.566-8.078-1.59h-18.557v2.28l0.25831 5.1613c0.04383 0.87572 8.1574 3.6368 8.8503 3.6742l6.343 0.3425zm36.761 4.575h-51.143c-0.581 0-1.055-0.474-1.055-1.057v-2.447h53.255v2.447c0 0.583-0.474 1.057-1.057 1.057m-4.16-35.846c0-11.795-9.608-21.402-21.403-21.402s-21.403 9.607-21.403 21.402c0 8.062 4.483 15.117 11.107 18.757h-16.339v-49.95c4.023-1.164 12.377-2.907 26.635-2.907s22.612 1.729 26.635 2.907v49.95h-16.339c6.609-3.64 11.107-10.679 11.107-18.757m-34.01 22.795h-14.028v8.476h14.732v-7.756c0-0.398-0.321-0.72-0.704-0.72m12.607-57.598c14.182 0 22.504 1.665 26.635 2.86v-6.104c0-0.581-0.474-1.057-1.056-1.057h-51.159c-0.581 0-1.055 0.476-1.055 1.057v6.104c4.13-1.195 12.438-2.86 26.635-2.86"/>
   </g>
   <g transform="matrix(2.1746 0 0 2.1746 -85412 5021.9)">
    <path d="m62373 18445c279.44-93.454 428.78-389.84 333.96-663.33-95.286-273.03-399.46-419.16-678.91-325.71-279.9 92.995-428.78 389.84-333.96 662.87 95.287 273.03 399.47 419.16 678.91 326.17"/>
    <path d="m63705 16896s11.454-60.928 25.195-135.6c3.667-21.074 1.374-45.353-6.413-68.715-12.369-36.19-38.938-67.8-67.341-80.625-22.905-11.911-67.797-12.829-114.07 2.748-32.982 10.995-65.967 29.318-91.621 53.598l-63.218 58.179c-11.451-26.572-37.105-50.392-62.3-57.72l66.882-61.387c35.731-32.983 78.336-56.805 123.23-71.921 60.469-19.7 124.6-24.279 179.12 1.374 53.598 26.111 90.705 74.67 109.94 128.73 12.369 35.274 16.492 72.838 10.079 110.4-13.743 74.67-25.195 135.6-25.195 136.06-3.666 22.447-25.197 37.106-47.643 33.9-22.905-3.207-40.313-26.571-36.649-49.017"/>
    <path d="m62872 17284-110.86 110.4s51.764 49.933 79.708 90.705l101.7-129.64-70.549-71.464zm-94.825 424.2s-101.24-307.39-442.53-362.36l823.66-675.7s196.52 5.041 218.97 220.35l-600.11 817.71zm92.994-387.55 39.854 39.397-65.508 76.503-46.728-49.018 72.382-66.882"/>
   </g>
   <g transform="matrix(2.4682 0 0 2.4682 -1.0856e5 -32966)">
    <path d="m54888 11991c-165.38 0-300.51 131.47-300.51 293.64 0 161.71 135.14 293.18 300.51 293.18 165.83 0 300.06-131.48 300.06-293.18 0-162.17-134.22-293.64-300.06-293.64zm113.61 1056.4c75.128 0 136.52-59.553 136.52-132.85 0-73.753-61.387-133.31-136.52-133.31-75.129 0-136.06 59.554-136.06 133.31 0 73.298 60.928 132.85 136.06 132.85zm-609.27 441.15v-1788h986.29v1788h-986.29zm609.27-663.79c50.392 0 91.62 40.313 91.62 89.787 0 49.477-41.228 89.331-91.62 89.331-50.39 0-91.621-39.854-91.621-89.331 0-49.474 41.231-89.787 91.621-89.787zm-113.61-411.83c-72.38 0-131.48-57.262-131.48-128.27 0-71.005 59.095-128.73 131.48-128.73 72.838 0 131.93 57.721 131.93 128.73 0 71.006-59.095 128.27-131.93 128.27"/>
    <path d="m54949 12284c0-32.525-27.485-59.095-60.928-59.095-33.441 0-60.47 26.57-60.47 59.095 0 32.983 27.029 59.553 60.47 59.553 33.443 0 60.928-26.57 60.928-59.553"/>
    <path d="m55834 11863c-93.452 0-168.58 73.754-168.58 164.46 0 91.162 75.128 164.92 168.58 164.92 92.538 0 168.12-73.754 168.12-164.92 0-90.704-75.584-164.46-168.12-164.46zm63.217 592.78c42.605 0 76.503-33.441 76.503-74.671 0-41.229-33.898-74.67-76.503-74.67-42.143 0-76.043 33.441-76.043 74.67 0 41.23 33.9 74.671 76.043 74.671zm-341.28 247.37v-1003.2h552.93v1003.2h-552.93zm278.07-603.32c-40.77 0-74.213-32.525-74.213-72.38s33.443-71.922 74.213-71.922c40.312 0 73.297 32.067 73.297 71.922s-32.985 72.38-73.297 72.38zm63.217 230.88c28.403 0 51.308 22.447 51.308 50.391s-22.905 50.391-51.308 50.391c-27.943 0-51.307-22.447-51.307-50.391s23.364-50.391 51.307-50.391"/>
    <path d="m55868 12028c0-18.324-15.118-32.984-33.9-32.984-19.239 0-34.357 14.66-34.357 32.984s15.118 33.441 34.357 33.441c18.782 0 33.9-15.117 33.9-33.441"/>
   </g>
   <g transform="matrix(4.7372 0 0 4.7372 -8479.9 -10227)">
    <path d="m3364 7140.1c0 122.87-101.94 222.45-227.55 222.45h-640.59c-125.61 0-227.55-99.571-227.55-222.45 0-122.84 101.94-222.46 227.55-222.46h640.59c125.61 0 227.55 99.63 227.55 222.46"/>
    <path d="m2632 7171.3h-73.177v71.377h-66.328v-71.377h-73.373v-64.998h73.373v-71.455h66.328v71.455h73.177v64.998" fill="#fff"/>
    <path d="m3171.8 7818.6h-42.066v-110.55c0-20.838-14.284-42.771-43.045-60.576-28.175-17.629-69.46-29.349-115.05-29.251-108.79-0.1761-199.96-79.105-200.36-179.65v-32.636h42.459v32.636c0.195 74.331 69.654 138.17 157.9 138.21 104.29 0.6065 197.42 50.676 200.36 131.27-0.196 60.811-0.196 110.45-0.196 110.55"/>
    <path d="m3084.2 7130.6c0-17.746-14.87-32.147-33.066-32.147-18.001 0-32.871 14.4-32.871 32.147 0 17.785 14.87 32.186 32.871 32.186 18.196 0 33.066-14.4 33.066-32.186" fill="#fff"/>
    <path d="m3166 7209c0-17.746-14.87-32.147-32.871-32.147-18.196 0-32.871 14.4-32.871 32.147 0 17.746 14.675 32.147 32.871 32.147 18.001 0 32.871-14.4 32.871-32.147" fill="#fff"/>
    <path d="m3243.8 7125.1c0-17.746-14.87-32.147-32.871-32.147-18.196 0-32.87 14.401-32.87 32.147 0 17.785 14.674 32.166 32.87 32.166 18.001 0 32.871-14.381 32.871-32.166" fill="#fff"/>
    <path d="m3165.2 7049.8c0-17.746-14.87-32.147-32.871-32.147-18.196 0-33.066 14.4-33.066 32.147 0 17.786 14.87 32.166 33.066 32.166 18.001 0 32.871-14.381 32.871-32.166" fill="#fff"/>
   </g>
   <g transform="matrix(2.2188 0 0 2.2188 -1.3462e5 -10303)">
    <path d="m62567 20654c12.826-30.51-2.289-65.325-33.9-77.923-31.151-12.598-66.882 2.061-79.71 32.571l-218.51 521.82c-12.828 30.647 2.29 65.692 33.441 78.29 31.608 12.506 67.341-2.291 80.166-32.892l218.52-521.87zm-1697.7-67.432c-12.828 30.83 2.29 65.645 33.441 78.152 31.61 12.551 67.8-2.016 80.166-32.801l218.52-521.87c12.826-30.555-2.289-65.645-33.9-78.152-30.692-12.506-66.423 2.245-79.251 32.755l-218.97 521.91zm1749 794.94c-234.09 559.71-888.26 827.74-1460.9 598.92-573.08-229-847.03-868.1-612.94-1427.9 8.247-19.423 17.867-37.701 27.029-56.3 3.207-17.27 8.246-34.449 15.576-51.445l203.85-486.36c55.89-134.41 213.02-198.86 350.9-143.84 137.43 54.972 202.94 208.39 147.05 342.84l-203.85 486.36c-56.348 134.59-213.48 198.95-350.91 144.07-60.01-23.959-104.9-67.112-133.31-118.65-157.58 492.37 93.912 1028.8 591.41 1227.7 498.87 199.46 1064.6-13.101 1304.7-474.82-59.095 19.515-125.06 20.202-187.82-4.764-137.43-54.972-203.4-208.44-147.05-343.03l203.85-486.36c52.225-124.51 190.57-187.59 320.21-152.73-43.977-265.65-222.18-448.25-335.33-539.83-19.7 43.978-57.264 70.685-85.667 59.324l-176.37-70.501c-29.318-11.636-37.105-58.591-17.864-104.9 19.697-46.406 59.095-74.533 87.954-62.943l176.83 70.501c24.738 9.987 32.982 46.223 22.905 85.528 388.01 189.29 486.04 511.79 506.2 719.22 24.736 60.698 26.569 130.28-0.918 195.42l-203.85 486.41c-2.29 5.956-5.956 11.041-8.705 16.858-10.077 30.647-20.156 60.974-32.982 91.163"/>
   </g>
   <g transform="matrix(15.531 0 0 15.531 -53157 40555)">
    <path d="m5391.2-267.49h-109.43v-13.267h109.43v13.267zm0 26.534h-109.43v-13.267h109.43v13.267zm0 26.534h-109.43v-13.267h109.43v13.267zm32.828 0v-79.602c0-7.329-7.3478-13.267-16.414-13.267h-142.26c-9.0675 0-16.414 5.938-16.414 13.267v106.14h175.08v-26.534zm0 137.09h-175.08v39.801c0 1.831 0.4565 3.577 1.2929 5.165 2.4892 4.76 8.3202 8.102 15.121 8.102h142.26c0.3316 0 0.6409-0.06 0.9601-0.078 0.7918-0.038 1.5824-0.068 2.3309-0.19h0.012c1.8262-0.301 3.5273-0.893 5.085-1.649v-0.01c0.014 0 0.028-0.01 0.039-0.01 1.1111-0.544 2.1577-1.152 3.0671-1.882 0.021-0.01 0.03-0.018 0.048-0.027 0.704-0.565 1.3399-1.191 1.9066-1.857 0.028-0.029 0.066-0.055 0.09-0.086 1.7754-2.094 2.8171-4.608 2.8542-7.329v-0.012h0.016v-39.94zm-213.4-39.79c-9.0675 0-16.415-5.938-16.415-13.267s7.3478-13.267 16.415-13.267c9.0662 0 16.414 5.938 16.414 13.267s-7.3478 13.267-16.414 13.267m284.51-123.83h-54.714v66.335h-207.91v-66.335h-54.713c-9.0662 0-16.414 5.938-16.414 13.267v123.83c0 7.329 7.3478 13.267 16.414 13.267h317.34c9.0675 0 16.414-5.938 16.414-13.267v-123.83c0-7.329-7.3465-13.267-16.414-13.267" fill-rule="evenodd"/>
   </g>
   <path d="m20554-8919.5c0-1879.4-1523.6-3403.3-3403.2-3403.3s-3403.2 1523.9-3403.2 3403.3c0 1879.6 1523.6 3403.2 3403.2 3403.2s3403.2-1523.6 3403.2-3403.2" fill="#fff" stroke="#fff" stroke-width="9.2812"/>
   <path d="m8740.5 3886.4c0-1879.4-1523.6-3403.3-3403.2-3403.3s-3403.2 1523.9-3403.2 3403.3c0 1879.6 1523.6 3403.2 3403.2 3403.2s3403.2-1523.6 3403.2-3403.2" fill="#fff" stroke="#fff" stroke-width="9.2812"/>
   <path d="m63273 23231c0-1879.4-1523.6-3403.3-3403.2-3403.3s-3403.2 1523.9-3403.2 3403.3c0 1879.6 1523.6 3403.2 3403.2 3403.2s3403.2-1523.6 3403.2-3403.2" fill="#fff" stroke="#fff" stroke-width="9.2812"/>
   <path d="m9889 13074c0-1879.4-1523.6-3403.3-3403.2-3403.3s-3403.2 1523.9-3403.2 3403.3c0 1879.6 1523.6 3403.2 3403.2 3403.2s3403.2-1523.6 3403.2-3403.2" fill="#fff" stroke="#fff" stroke-width="9.2812"/>
   <path d="m5805.5 13882h-5394.4c-1025.2 0-1856.2 831.13-1856.2 1856.2v5172c0 1025.3-790.67 1856.4-1765.8 1856.4h-5866" fill="none" stroke="#fff" stroke-miterlimit="10" stroke-width="222.75"/>
   <path d="m10232 23526v4070.1c0 1025.2-1308.5 1856.2-2333.6 1856.2h-13545c-1025.3 0-1856.4 790.67-1856.4 1765.9v4774.1" fill="none" stroke="#fff" stroke-miterlimit="10" stroke-width="222.75"/>
   <path d="m-3883.8 36731c0-1879.4-1523.6-3403.3-3403.2-3403.3s-3403.2 1523.9-3403.2 3403.3c0 1879.6 1523.6 3403.2 3403.2 3403.2s3403.2-1523.6 3403.2-3403.2" fill="#fff" stroke="#fff" stroke-width="9.2812"/>
   <path d="m-8486.9 23247c0-1879.4-1523.6-3403.3-3403.2-3403.3s-3403.2 1523.9-3403.2 3403.3c0 1879.6 1523.6 3403.2 3403.2 3403.2s3403.2-1523.6 3403.2-3403.2" fill="#fff" stroke="#fff" stroke-width="9.2812"/>
   <path d="m41264 37633h27153c1025.2 0 1856.2-1308.5 1856.2-2333.6v-3663.6" fill="none" stroke="#fff" stroke-miterlimit="10" stroke-width="222.75"/>
   <path d="m73445 30778c0-1879.4-1523.6-3403.3-3403.2-3403.3s-3403.2 1523.9-3403.2 3403.3c0 1879.6 1523.6 3403.2 3403.2 3403.2s3403.2-1523.6 3403.2-3403.2" fill="#fff" stroke="#fff" stroke-width="9.2812"/>
   <path d="m69478 43554h-8448.6c-1025.2 0-1856.2-1308.5-1856.2-2333.6v-3663.6" fill="none" stroke="#fff" stroke-miterlimit="10" stroke-width="222.75"/>
   <path d="m74455 44001c0-1879.4-1523.6-3403.3-3403.2-3403.3s-3403.2 1523.9-3403.2 3403.3c0 1879.6 1523.6 3403.2 3403.2 3403.2s3403.2-1523.6 3403.2-3403.2" fill="#fff" stroke="#fff" stroke-width="9.2812"/>
   <path d="m-16608 5166.2h4449.5c1025.2 0 1856.2-831.13 1856.2-1856.2v-4865.3c0-1025.3 790.67-1856.4 1765.9-1856.4h12309" fill="none" stroke="#fff" stroke-miterlimit="10" stroke-width="222.75"/>
   <path d="m-12470 4850.7c0-1879.4-1523.6-3403.3-3403.2-3403.3s-3403.2 1523.9-3403.2 3403.3c0 1879.6 1523.6 3403.2 3403.2 3403.2s3403.2-1523.6 3403.2-3403.2" fill="#fff" stroke="#fff" stroke-width="9.2812"/>
   <g transform="matrix(1.4292 0 0 1.4292 -53856 -5141.7)" fill="#131112">
    <path d="m41417 8479.4c-766.3 0-1387.6-530.42-1387.6-1184.4 0-592.46 953.36-2068.3 953.36-2068.3l978.58 0.8747s842.84 1466 842.84 2067.5c0 653.83-620.86 1184.2-1387.2 1184.2zm0-119.84c687.39 0 1246.5-477.87 1246.5-1064.5 0-496.17-628.11-1656.3-790.5-1947.5l-806.26-0.471c-283.31 448.06-896.29 1509.2-896.29 1948 0 586.81 559.06 1064.5 1246.5 1064.5"/>
    <path d="m41033 4357.8h859.4c19.155 25.906 34.369 53.358 46.903 82.359h-952.89c12.376-29.001 27.669-56.454 46.588-82.359"/>
    <path d="m41462 4154.4c138.11 0 263.05 47.37 354.81 123.61h-709.46c91.915-76.169 216.39-123.61 354.65-123.61"/>
    <path d="m41972 5113.2h-1018.4v-523.96c0-23.82 3.704-46.63 8.04-69.507h1002c4.178 22.81 8.356 45.688 8.356 69.507v523.96"/>
    <path d="m41462 5457.9-392.65 1469.5 359.38-112.71 427.33 118.22-394.07-1475.1zm523.74 1511.2 0.788 2.4896-14.189 2.6242-120.45 47.437-423.31-133.5-356.62 133.5-134.48-43.736v-9.4201l0.947-0.2692 465.17-1741.7h116.82l465.33 1741.7 0.788 0.2692-0.788 0.6056"/>
   </g>
   <g transform="matrix(1.7031 0 0 1.7031 -95609 -27708)" fill="#131112">
    <path d="m46888 17755v243.63c0 38.332-31.184 69.331-69.238 69.331-38.424 0-69.423-30.999-69.423-69.331v-243.63c-698.6 35.361-1258.1 594.37-1293.2 1293.2h232.77c38.239 0 69.238 31.185 69.238 69.423 0 38.239-31.184 69.146-69.238 69.146h-232.87c35.269 699.16 594.93 1258.5 1293.7 1293.7 0-1.485-0.928-2.228-0.928-3.435v-254.03c0-38.332 31.185-69.238 69.424-69.238 38.238 0 69.238 31.092 69.238 69.238v253.94c0 1.206-0.929 2.042-0.929 3.341 699.06-35.176 1258.6-594.37 1293.8-1293.5h-234.44c-38.424 0-69.424-31-69.424-69.146 0-38.424 31-69.423 69.424-69.423h234.44c-34.99-698.78-594.09-1257.8-1292.9-1293.2zm-69.238 2996c-902.41 0-1633.6-731.27-1633.6-1633.4 0-902.14 731.18-1633.7 1633.6-1633.7 902.04 0 1633.5 731.55 1633.5 1633.7 0 902.14-731.45 1633.4-1633.5 1633.4"/>
    <path d="m46947 19063c4.92 14.015 8.725 28.123 8.725 43.251 0 75.549-60.885 136.71-136.34 136.71-75.363 0-136.53-61.164-136.53-136.71 0-75.364 61.164-136.53 136.53-136.53 7.24 0 13.644 3.063 20.512 4.269 1.207-1.577 1.763-2.877 3.248-4.269l565.23-490.61 152.58-40.188-75.735 157.22-538.22 466.85"/>
   </g>
   <g transform="matrix(74.455 0 0 66.212 19039 -7954.2)">
    <path d="m0 0c-0.334 0-0.608 0.275-0.608 0.609 0 0.333 0.274 0.611 0.608 0.611h5.337c-0.043 0.302-0.087 0.593-0.16 0.897h-5.177c-0.334 0-0.608 0.277-0.608 0.61 0 0.334 0.274 0.608 0.608 0.608h4.858c-0.32 1.073-0.783 2.191-1.378 3.409-0.418 0.668-1.348 1.277-2.015 1.364-5.961 0.696-11.879 1.043-17.796 1.043-5.541 0-11.065-0.303-16.636-0.913v-17.259c1.581-0.173 3.162-0.319 4.743-0.435 2.552-0.202 5.106-0.348 7.644-0.421l2.161-6.424 0.333-0.972h1.814l4.19-16.985-9.268-2.102c-0.667-0.203-1.203-0.537-1.203-1.204v-2.03h26.991v4.134c0 0.665-0.536 1.202-1.205 1.202h-3.885l-5.933 24.629c2.684 0.173 5.367 0.42 8.064 0.738 0.667 0.087 1.611 0.698 2.017 1.364 0.986 2.002 1.595 3.742 1.841 5.423h-5.322c-0.333 0-0.61 0.277-0.61 0.612 0 0.331 0.277 0.606 0.61 0.606h5.438c0.014 0.306 0.014 0.611 0 0.901h-5.453v-0.015zm-22.568-46.077c0-0.667 0.537-1.203 1.205-1.203h24.582c0.669 0 1.205 0.536 1.205 1.203v5.568h-26.992v-5.568zm1.32 35.302c-2.203 0.072-4.424 0.202-6.627 0.362l1.914-5.062c0.174-0.465 0.725-0.84 1.218-0.84h5.366l-1.871 5.54zm-42.93 10.224 1.392-0.812h11.936v1.624h-11.921l-1.407-0.812zm14.243 2.247v-4.235l3.858-2.74 5.627-0.754v11.24l-5.627-0.754-3.858-2.757zm10.427 3.483 5.613 3.016v-17.231l-5.613 3.016v11.199z"/>
   </g>
   <g transform="matrix(1.5332 0 0 1.5332 -5458.1 -7204.2)">
    <g transform="matrix(55.608 0 0 49.452 50690 24257)">
     <path d="m0 0h-57.143v-5.719h62.238v5.719h-5.095zm-57.143 36.838v-36.033h3.19v32.843h55.86v-32.843h3.188v36.033h-62.238zm19.256-52.798h23.741v0.934h-23.741v-0.934zm14.288 9.439v-3.319h6.783l2.657-4.384h-23.728l2.658 4.384h6.781v3.319h4.849z"/>
    </g>
   </g>
   <g transform="matrix(79.718 0 0 70.893 70381 41623)">
    <path d="m0 0h-4.341c-0.125 0.671-0.702 1.203-1.422 1.203h-0.342v10.682h-2.655v-10.682h-0.327c-0.719 0-1.297-0.516-1.422-1.203h-4.341c-0.984 0-1.781-0.796-1.781-1.78v-0.844h18.412v0.844c-0.015 0.984-0.811 1.78-1.781 1.78m-6.105 12.758v46.835c0 6.418 5.216 11.634 11.634 11.634 6.419 0 11.634-5.216 11.634-11.634v-39.229c0-0.734 0.594-1.343 1.327-1.343 0.735 0 1.328 0.594 1.328 1.343v39.306c-0.031 7.855-6.418 14.227-14.289 14.227-7.886 0-14.304-6.418-14.304-14.304v-46.835h0.875v45.944h0.889v-45.944zm12.993-11.93c0.015-0.173 0.047-0.328 0.077-0.5 0.36-1.577 1.764-2.765 3.468-2.765h16.147c1.858 0 3.39 1.438 3.545 3.265h-23.16zm18.52 20.161-3.5467-8.9222c2.124 0.388 8.5327 0.51263 8.0917 5.3142-0.359 2.14-1.295 4.06-2.654 5.638-4.9477 3.9566-4.6867-2.1407-1.891-2.03m-0.593-5.592c-1.733-0.265-3.826-0.453-6.325-0.453-2.544 0-4.622 0.188-6.324 0.469v-1.89h12.649zm0-4.497h-12.634v-0.624h12.634zm0-4.966h-12.634v-0.607h12.634zm-13.226 15.055s2.0393 5.8308-1.891 2.03c-1.311-1.531-2.249-3.404-2.623-5.466 0.086652-1.9384 2.25-0.984 4.514-1.421zm8.839 0.702c0.249-0.375 0.389-0.812 0.389-1.296 0-1.28-1.046-2.327-2.327-2.327-1.28 0-2.327 1.047-2.327 2.327 0 0.484 0.141 0.921 0.391 1.296v5.216c-2.514-0.421-4.747-1.64-6.434-3.389 2.015-0.671 0.54172-2.4043 0.54385-2.4202l0.66762-4.966c1.687-0.28 4.5995-0.57016 7.1585-0.57784 2.5023-0.0075 5.0312-0.79965 6.325 0.468l2.0029 4.372c5e-3 0.014-1.972 2.453 0.041 3.124-1.685 1.749-3.934 2.968-6.432 3.389zm-8.839-20.27v14.102c-2.249 0.421 11.162 3.236-4.624 1.421-0.062-0.484-0.093-0.983-0.093-1.483v-14.024h4.717zm13.226 5.748h-12.634v-0.61h12.634zm0 1.249h-12.634v-0.609h12.634zm5.232 8.354c-3.779-1.363-22.449 0.454-18.557-1.265l-1.5426-14.152 20.178 0.066v14.024c0 0.453-0.031 0.89-0.078 1.327m-5.232-7.122h-12.634v-0.608h12.634zm-12.633-8.229h12.634v3.28h-12.634zm-6.201 9.886c-0.092 0.015-0.186 0.031-0.281 0.031-0.702 0-1.046-0.564-1.264-1.266 0 0-0.827-2.467-0.827-5.622 0-3.154 0.827-5.621 0.827-5.621 0.203-0.703 0.562-1.266 1.264-1.266 0.564 0 1.032 0.36 1.188 0.875-0.563 0.75-0.907 1.671-0.907 2.687zm26.659-1.219s0.827-2.467 0.827-5.621c0-3.155-0.827-5.622-0.827-5.622-0.204-0.703-0.563-1.266-1.266-1.266-0.593 0-1.077 0.406-1.218 0.953 0.531 0.735 0.843 1.624 0.843 2.593v10.149c0.125 0.033 0.234 0.064 0.375 0.064 0.703 0.016 1.062-0.564 1.266-1.25"/>
   </g>
   <path d="m-6131.1 39186h87.581c29.678 0 54.001 21.55 54.001 47.94 0 26.24-24.323 47.95-54.001 47.95h-106.46c-80.774 216.85-433.82 391.68-889.24 444.38-39.025-63.43-154.92-108.95-291.06-108.95s-250.58 45.52-291.15 107.83c-452.7-52.64-802.93-226.41-885.06-443.26h-106.46c-29.769 0-54.001-21.71-54.001-47.95 0-26.39 24.232-47.94 54.001-47.94h87.58zm-1951.2-2693.7h1509.2c299.22 0 420.57 2547.4 420.57 2547.4h-2350.1c0 1.31 115.9-2547.4 420.3-2547.4m-273.36 384.57c-48.555 213.4-93.026 510.41-131.96 883.29-66.162 631.31-95.748 1271.1-97.02 1277.2l-4.1749 75.3h2520.8l-3.7195-75.3c0-2.58-2.9051-67.15-9.6212-174.98-2.6309-55.21-6.7161-119.78-12.161-194.19-15.973-243.18-41.749-576.27-76.782-908.06-29.587-279.25-61.987-516.62-96.928-708.31-12.161-63.52-22.87-122.36-35.123-174.98-1.18-5.89-2.5411-11.94-3.9023-19.13-72.786-313.94-148.21-438.57-268.19-438.57h-1507.9c-121.07 1.21-200.57 133.1-273.36 457.7m1913.4-1055.6 272-1636.9c0-134.14-122.7-241.97-272-241.97h-1758.4c-150.93 0-272.27 108.95-272.27 241.97l272.27 1636.9zm-276.26-1972.3c0-62.31 56.54-113.88 127.97-113.88 69.973 0 127.97 50.28 127.97 113.88v20.34h-255.93zm-1472.8 0c0-62.31 56.632-113.88 127.88-113.88 71.517 0 128.15 50.28 128.15 113.88v20.34h-256.02zm109 2498.3h-109v-453.02h1727.4v453.02h-109.18zm2769.1 2174.8-1.3611-13.15-198.03-1325.2c-33.672-196.62-185.87-327.12-381.27-327.12h-327.54c0 1.12 1.3612 2.25 1.3612 4.68 13.432 57.55 25.503 121.05 37.755 189.26h289.7c101.01 0 152.29 82.73 164.54 160.78l196.58 1316.7c-2.6309 77.96-75.51 140.19-163.09 140.19h-314.02c5.6274 74.41 9.4383 140.2 12.252 194.19h301.77c210.28 0 381.36-152.22 381.36-340.36"/>
   <g transform="matrix(84.131 0 0 74.817 -11770 25925)">
    <path d="m0 0h-12.434l-7.362-15.579h36.738l-7.27 15.579h-9.672zm0.114-70.274v48.363h-0.793v1.961h0.793v3.513h-2.989v-3.513h0.742v-1.961h-0.742v-48.363c-4.152-0.172-7.321-1.071-7.321-2.149 0-1.201 3.922-2.181 8.766-2.181s8.765 0.972 8.765 2.181c0 1.078-3.12 1.969-7.221 2.149m-0.319 71.123h-2.46l0.508 2.166h1.445l0.507-2.166z"/>
   </g>
   <path d="m8150 14207-530.7-1086c-118.02-241.61-334.86-377.32-483.92-302.17l-1268.5 632.01c-149.62 75.094-174.98 330.44-56.468 573.21l530.29 1086.6c118.19 241.63 334.86 377.32 483.92 302.17l1268.7-631.98c149.06-75.153 174.49-331.6 56.632-573.19zm-899.47-1937-94.322-192.61c-20.941-43.171-59.793-67.181-86.3-54.46l-225.55 112.52c-26.497 13.827-31.264 58.727-9.838 101.95l94.243 193.71c20.946 43.17 59.477 67.148 86.058 53.328l225.55-112.52c26.507-12.721 30.789-58.779 10.163-101.92zm-326.15-667.64-94.406-193.73c-21.095-42.078-59.637-67.165-85.978-53.319l-225.87 112.49c-26.904 12.678-31.345 58.719-10.001 101.93l94.16 192.59c21.346 43.214 59.636 67.166 86.544 54.488l225.39-112.54c26.665-12.704 30.945-58.762 10.161-101.92zm-326.22-667.64-94.409-193.73c-21.184-43.194-59.635-67.163-86.14-54.442l-225.95 112.48c-26.255 13.853-30.694 59.896-9.749 103.07l93.994 192.58c21.263 43.203 59.637 67.164 86.464 54.479l225.38-113.65c26.906-12.678 30.867-58.77 10.41-100.78zm-511.76 254.12-94.321-192.61c-20.784-43.154-59.398-67.138-86.145-54.445l-225.7 113.62c-26.505 12.721-30.865 58.771-10.249 100.8l94.645 193.76c20.536 42.02 59.558 67.155 85.892 53.309l225.87-112.49c26.511-12.719 30.948-58.762 10.005-101.93zm-511.34 256.38-94.646-193.76c-20.944-43.169-59.635-67.164-86.145-54.443l-225.63 112.52c-26.581 13.821-31.267 58.729-10.084 101.92l94.488 193.74c20.782 43.154 59.635 67.164 86.144 54.443l225.87-112.49c26.259-13.853 30.619-59.905 10.002-101.93zm-511.92 254.1-94.397-192.62c-21.022-43.179-59.236-67.123-86.144-54.445l-225.46 113.64c-26.905 12.678-31.352 57.612-10.33 100.79l94.486 193.74c20.784 43.153 59.558 67.157 86.137 53.336l225.63-112.52c26.748-12.697 31.026-58.755 10.082-101.92zm-90.1 636.12 94.397 192.62c21.104 43.186 59.558 67.155 86.222 54.453l225.71-112.51c26.421-13.836 30.949-58.762 10.082-101.92l-94.564-193.74c-20.699-42.037-59.397-67.14-85.978-53.319l-225.55 112.52c-26.745 12.696-31.188 58.738-10.323 101.9zm326.3 667.65 94.645 193.75c20.785 43.154 59.317 67.132 85.815 53.303l225.79-112.5c26.584-12.712 31.105-58.748 10.161-101.92l-94.397-192.62c-21.024-43.178-59.558-67.155-86.222-54.451l-225.63 112.52c-26.495 13.829-31.186 58.737-10.16 101.92zm601.7-890.25-94.326-193.72c-21.026-43.179-59.641-67.164-85.973-53.319l-226.12 112.47c-26.344 12.738-30.865 58.771-10.011 100.83l94.566 193.74c21.104 43.186 59.56 67.155 86.148 54.445l225.55-112.52c26.658-13.812 31.351-58.722 10.164-101.92zm421.4 379.76 94.882 193.78c20.946 43.17 59.238 67.122 85.897 53.311l225.63-112.52c26.747-12.696 31.027-58.754 10.007-101.94l-94.079-192.59c-21.188-43.194-59.642-67.162-86.548-54.484l-225.55 112.52c-26.338 13.844-31.025 58.753-10.24 101.91zm80.268-533.06c26.494-13.829 31.185-58.738 9.998-101.93l-94.403-193.73c-21.108-43.186-59.559-67.155-86.295-53.351l-225.56 112.52c-26.507 12.719-30.944 58.762-9.999 101.93l94.314 192.61c21.026 43.179 59.24 67.122 86.146 54.444l225.79-112.5zm-591.7 788.32 94.645 193.75c20.784 43.154 59.401 67.138 85.898 53.311l225.55-112.52c26.663-12.702 31.265-58.729 10.161-101.92l-94.156-192.59c-21.184-43.196-59.64-67.164-86.145-54.444l-225.87 112.49c-26.417 13.837-30.777 59.887-10.082 101.92zm2540.5 2391.7-1378.4 688.02c-252.37 126.32-619.25-103.76-819.09-512.31l-1630-3337c-199.77-409.65-156.84-842.54 95.61-968.85l1378.4-688.02c252.53-126.3 619.49 103.79 819.25 512.33l1630.2 3338.1c199.69 409.64 156.77 843.64-96.01 968.81"/>
   <g transform="matrix(2.1885 0 0 2.1885 -84084 -22208)">
    <path d="m66628 21947c0-31.151-25.654-56.484-57.72-56.484-32.067 0-57.721 25.333-57.721 56.484 0 31.288 25.654 56.575 57.721 56.575 32.066 0 57.72-25.287 57.72-56.575"/>
    <path d="m66528 21864-132.85-515.55 79.251-16.125 100.78 521.41-47.184 10.262zm-268.45-1039.4h116.82l83.833 432.04-84.748 16.95-115.9-448.98"/>
    <path d="m66455 20007c-147.97 0-267.53 116.86-267.53 261.12 0 144.21 119.56 261.12 267.53 261.12 147.51 0 267.07-116.91 267.07-261.12 0-144.26-119.56-261.12-267.07-261.12zm-1487 0c-147.51 0-267.07 116.86-267.07 261.12 0 144.21 119.56 261.12 267.07 261.12s267.53-116.91 267.53-261.12c0-144.26-120.02-261.12-267.53-261.12zm1536.9 767.09h-206.6c-254.24-139.67-262.03-379.03-262.49-404.96l4.121-29.365h-664.25l-2.289 23.73c-30.693 270.14-188.74 372.44-272.11 410.6h-183.24c-276.69 0-501.16-219.2-501.16-489.66 0-270.42 224.47-489.66 501.16-489.66h349.99l81.543 233.54c23.362 62.072 83.831 104.54 151.17 106.28h407.25c67.797-1.741 127.81-45.902 148.42-109.3l66.884-230.52h381.6c276.69 0 501.16 219.25 501.16 489.66 0 270.46-224.47 489.66-501.16 489.66zm-596.9-719.4h-407.25c-26.111 1.604-67.341-26.936-73.754-52.086l-71.921-207.84h683.48l-60.925 208.44c-5.498 25.012-43.98 53.048-69.631 51.49zm-483.76 338.35h557.97c5.041 67.616 38.482 247.88 217.14 381.05h-992.24c87.954-62.943 188.28-177.42 217.14-381.05"/>
   </g>
   <path d="m58533 10720v-28506c0-1025.2 1308.5-1856.2 2333.6-1856.2h6124.7" fill="none" stroke="#fff" stroke-miterlimit="10" stroke-width="222.75"/>
   <path d="m-945.25-13840v4077.6c0 1028.1-483.63 1861.5-1080.1 1861.5h-3978.7c-596.61 0-1080.2 792.92-1080.2 1771v2803.5" fill="none" stroke="#fff" stroke-miterlimit="10" stroke-width="222.75"/>
   <path d="m2630.1-15670c0-1879.4-1523.6-3403.3-3403.2-3403.3s-3403.2 1523.9-3403.2 3403.3c0 1879.6 1523.6 3403.3 3403.2 3403.3s3403.2-1523.6 3403.2-3403.3" fill="#fff" stroke="#fff" stroke-width="9.2812"/>
   <path d="m1086.8-15574h4872.4c1025.2 0 1856.2-831.14 1856.2-1856.2v-110.68c0-1025.3 790.67-1856.4 1765.9-1856.4h2795.5" fill="none" stroke="#fff" stroke-miterlimit="10" stroke-width="222.75"/>
   <path d="m17436-19084c0-1879.4-1523.6-3403.3-3403.2-3403.3s-3403.2 1523.9-3403.2 3403.3c0 1879.6 1523.6 3403.3 3403.2 3403.3s3403.2-1523.6 3403.2-3403.3" fill="#fff" stroke="#fff" stroke-width="9.2812"/>
   <path d="m72156-9424.9h-5823.5c-1025.2 0-1856.2 1308.5-1856.2 2333.6v6124.7" fill="none" stroke="#fff" stroke-miterlimit="10" stroke-width="222.75"/>
   <path d="m76235-8801c0-1879.4-1523.6-3403.3-3403.2-3403.3s-3403.2 1523.9-3403.2 3403.3c0 1879.6 1523.6 3403.2 3403.2 3403.2s3403.2-1523.6 3403.2-3403.2" fill="#fff" stroke="#fff" stroke-width="9.2812"/>
   <path d="m88376-9972.3c0-1879.4-1523.6-3403.3-3403.2-3403.3s-3403.2 1523.9-3403.2 3403.3c0 1879.6 1523.6 3403.2 3403.2 3403.2s3403.2-1523.6 3403.2-3403.2" fill="#fff" stroke="#fff" stroke-width="9.2812"/>
   <g transform="matrix(1.732 0 0 1.732 -7695.4 -22874)" fill="#131112">
    <path d="m46512 8978.6c550.38-5.2903 895.08 28.958 941.86-581.28h671.31c0 945.2-824.45 1072.5-1630.8 1072.5-806.26 0-1630.7-127.34-1630.7-1072.5h666.21c51.511 621.94 436.12 586.76 982.14 581.28"/>
    <path d="m45196 8093.6c163.54 0 299.51-9.7453 329.76 151.01 4.176 21.996 6.497 46.592 6.497 75.364h-672.52c0-239.27 150.64-226.37 336.26-226.37"/>
    <path d="m47458 8319.9h-6.312c0-28.957 2.506-53.831 7.054-75.364 31.928-148.22 167.9-139.13 330.88-139.13 186.46 0 337.65-12.344 337.65 214.49h-669.27"/>
    <path d="m46841 8003.4c-51.139 0-92.627 41.394-92.627 92.72 0 51.232 41.488 92.72 92.627 92.72 51.233 0 92.627-41.487 92.627-92.72 0-51.325-41.394-92.72-92.627-92.72zm0-317.6c-51.139 0-92.627 41.487-92.627 92.534 0 51.325 41.488 92.72 92.627 92.72 51.233 0 92.627-41.394 92.627-92.72 0-51.047-41.394-92.534-92.627-92.534zm0-317.79c-51.139 0-92.627 41.487-92.627 92.534 0 51.325 41.488 92.72 92.627 92.72 51.233 0 92.627-41.394 92.627-92.72 0-51.047-41.394-92.534-92.627-92.534zm-381.27 635.39c-51.232 0-92.627 41.394-92.627 92.72 0 51.232 41.395 92.72 92.627 92.72 51.14 0 92.627-41.487 92.627-92.72 0-51.325-41.487-92.72-92.627-92.72zm0-317.6c-51.232 0-92.627 41.487-92.627 92.534 0 51.325 41.395 92.72 92.627 92.72 51.14 0 92.627-41.394 92.627-92.72 0-51.047-41.487-92.534-92.627-92.534zm0-317.79c-51.232 0-92.627 41.487-92.627 92.534 0 51.325 41.395 92.72 92.627 92.72 51.14 0 92.627-41.394 92.627-92.72 0-51.047-41.487-92.534-92.627-92.534zm-381.18 635.39c-51.325 0-92.812 41.394-92.812 92.72 0 51.232 41.487 92.72 92.812 92.72 51.14 0 92.627-41.487 92.627-92.72 0-51.325-41.487-92.72-92.627-92.72zm0-317.6c-51.325 0-92.812 41.487-92.812 92.534 0 51.325 41.487 92.72 92.812 92.72 51.14 0 92.627-41.394 92.627-92.72 0-51.047-41.487-92.534-92.627-92.534zm0-317.79c-51.325 0-92.812 41.487-92.812 92.534 0 51.325 41.487 92.72 92.812 92.72 51.14 0 92.627-41.394 92.627-92.72 0-51.047-41.487-92.534-92.627-92.534zm1051.2 1114.8v95.04c0 42.601-49.098 45.107-109.7 45.107h-98.566c-60.514 0-109.52-2.506-109.52-45.107v-145.44h-699.16v145.44c0 42.601-48.912 45.107-109.33 45.107h-98.752c-60.607 0-109.52-2.506-109.52-45.107v-178.01c-159.36-165.48-680.32-869.93-699.16-955.23l0.185-569.22c0-52.439 42.787-95.226 95.133-95.226h2542c52.347 0 95.133 42.786 95.133 95.226v572c-18.655 82.696-539.61 786.96-698.78 952.44v82.974"/>
   </g>
   <path d="m1353-15129c1.426 11.162 2.853 21.055 1.426 27.227 0 4.988-1.426 9.977-1.426 12.513-2.757-1.267-6.941-3.719-12.55-6.173-7.036-3.804-13.882-9.976-23.864-18.77-29.286-26.042-68.268-74.575-108.96-149.07-40.504-74.575-58.568-131.73-64.273-169.1-1.331-11.246-2.852-21.053-1.331-27.395 0-4.82 1.331-9.893 1.331-12.345 2.852 1.099 7.035 3.635 12.55 6.172 7.131 3.805 14.071 9.977 23.865 18.602 29.284 26.127 68.552 74.575 108.87 149.24 40.693 74.575 58.853 131.73 64.368 169.1m-102.02 26.043h-2.662c-75.683 0-146.9-39.654-178.94-99.518-23.864-42.277-26.718-90.641-8.556-135.37 8.556-19.955 19.68-38.64 34.988-54.791 13.978 52.254 39.268 109.33 61.516 151.69 25.291 47.35 58.663 98.337 93.653 137.99m89.47-216.2c-25.007-47.266-60.09-98.335-95.08-138.08h2.948c75.398 0 146.61 39.741 178.94 99.434 23.674 42.277 26.528 90.726 8.176 135.46-8.176 19.87-19.396 38.556-34.988 54.789-11.03-52.337-37.462-110.68-59.995-151.6m-100.69 441.28c2.854-4.988 5.61-8.708 8.558-11.16 2.662 2.452 5.42 6.172 8.176 11.16 4.374 6.172 8.654 14.882 11.22 26.042 12.646 34.752 25.292 93.178 25.292 176.55 0 82.016-12.646 141.71-25.292 176.46-4.088 11.329-8.366 20.039-11.22 26.21-2.756 4.989-5.514 8.709-8.176 11.247-2.948-2.538-5.704-6.258-8.558-11.247-4.088-6.171-8.366-14.881-11.124-26.21-12.646-34.752-25.196-93.178-25.196-176.46 0-82.017 12.55-141.8 25.196-176.55 4.184-11.16 8.462-19.87 11.124-26.042m-75.397 40.924c-13.977 52.254-18.16 114.4-18.16 160.48 0 45.828 4.183 108.06 18.16 160.31-68.552-28.58-116-89.542-116-160.31 0-70.941 48.87-131.9 116-160.48m283.72 161.66c0 70.94-47.634 133.09-116 160.4 13.976-52.253 18.16-114.4 18.16-160.4 0-45.996-4.184-108.06-18.16-160.4 68.362 27.309 116 88.272 116 160.4m116-1136.3c0 18.686-16.734 33.567-37.652 33.567h-556.4c-20.918 0-37.746-14.881-37.746-33.567 0-18.601 16.828-33.567 37.746-33.567h556.4c20.918 0 37.652 14.966 37.652 33.567m-37.652-84.469h-556.4m594.05-151.69c0 18.602-16.734 33.568-37.652 33.568h-556.4c-20.918 0-37.746-14.966-37.746-33.568 0-18.686 16.828-33.483 37.746-33.483h556.4c20.918 0 37.652 14.797 37.652 33.483m0-236.24c0 18.686-16.734 33.567-37.652 33.567h-556.4c-20.918 0-37.746-14.881-37.746-33.567 0-18.601 16.828-33.567 37.746-33.567h556.4c20.918 0 37.652 14.966 37.652 33.567m-73.972 1079.1c-15.308 39.74-43.451 74.576-79.677 100.79 0 29.763-9.982 52.086-33.562 62.063-7.036 2.452-13.882 4.988-22.439 4.988-16.734 0-34.988-7.525-53.054-19.87-18.254 3.72-34.894 4.905-53.054 4.905-97.932 0-188.92-50.986-230.66-127.93-29.476-54.789-33.659-116.94-11.316-174.18 15.498-39.739 43.356-74.491 79.868-100.62 0-29.932 9.602-52.339 33.372-62.231 6.942-2.453 14.072-4.989 22.439-4.989 16.734 0 34.894 7.525 53.054 19.954 18.254-3.719 35.084-5.073 53.244-5.073 97.741 0 188.64 51.07 230.57 128.1 29.284 54.708 33.468 115.67 11.219 174.1m-497.64 529.56c0-106.88 83.764-196.42 195.67-221.28 15.308-26.042 34.894-43.544 60.186-43.544 25.006 0 46.114 17.502 60.09 43.544 111.72 24.859 195.67 114.4 195.67 221.28s-83.955 196.5-195.67 221.28c-15.402 26.126-35.084 43.544-60.09 43.544-25.292 0-46.114-17.418-60.186-43.544-111.91-24.773-195.67-114.4-195.67-221.28m691.98 354.28v-2181.7c0-32.298-29.379-59.609-67.125-59.609h-739.52c-36.322 0-67.127 26.042-67.127 59.609v2181.7c0 32.384 29.379 59.609 67.127 59.609h739.52c37.746-1.183 67.125-27.225 67.125-59.609m57.142 0c0 60.963-55.81 109.41-122.84 109.41h-739.52c-68.553 0-123.03-49.802-123.03-109.41v-2181.7c0-60.961 55.907-109.33 123.03-109.33h739.52c68.362 0 122.84 49.718 122.84 109.33zm-1371.2-125.56c-26.622 93.261-137.1 181.53-241.88 193.96-1016.3 119.3-2019.9 119.3-3036.3 0-104.78-13.612-215.26-101.97-241.88-193.96-163.44-645.22-163.44-1254.3 0-1899.5 26.622-93.262 137.1-181.54 241.88-193.96 1016.5-119.3 2020-119.3 3036.3 0 104.78 13.613 215.26 101.97 241.88 193.96 163.54 645.14 163.54 1254.3 0 1899.5m1621.6 324.43v-2716.3h-5531.6v2716.3c0 93.262 85.286 169.19 190.16 169.19h5152.7c104.87 0 188.73-75.93 188.73-169.19m-5531.6-2859.2c0-93.178 85.286-169.02 190.16-169.02h5152.7c104.87 0 190.16 75.844 190.16 169.02v93.262h-5533zm4759.8-338.04c0-37.373 33.564-67.22 75.588-67.22h233.42c42.024 0 75.588 29.847 75.588 67.22v118.12h-385.83v-118.12zm-4374 118.12h385.93v-118.12c0-37.373-33.562-67.22-75.683-67.22h-234.75c-41.93 0-75.493 29.847-75.493 67.22z"/>
   <g transform="matrix(77.935 0 0 69.307 12234 -17633)">
    <path d="m0 0c0.127-0.297 0.255-0.453 0.341-0.481 0.085 0.028 0.213 0.184 0.34 0.481 0.055 0.142 0.128 0.297 0.184 0.496 0.198 0.65 0.383 1.643 0.383 2.96 0 1.318-0.171 2.311-0.383 2.961-0.056 0.198-0.129 0.368-0.184 0.496-0.127 0.296-0.269 0.466-0.34 0.481-0.086-0.028-0.198-0.185-0.341-0.481-0.057-0.142-0.127-0.298-0.183-0.496-0.199-0.65-0.37-1.643-0.37-2.961 0-1.317 0.171-2.31 0.383-2.96 0.043-0.185 0.113-0.354 0.17-0.496m3.358 3.456c0 1.078-0.566 2.011-1.417 2.55 0.17-0.778 0.241-1.673 0.241-2.55 0-0.879-0.084-1.771-0.241-2.55 0.851 0.538 1.417 1.473 1.417 2.55m-4.605-2.55c-0.169 0.779-0.24 1.671-0.24 2.55 0 0.877 0.085 1.772 0.24 2.55-0.85-0.539-1.416-1.472-1.416-2.55 0-1.077 0.566-2.012 1.416-2.55m25.528-18.585c-0.269 0.184-0.595 0.297-0.948 0.297-0.298 0-0.568-0.085-0.808-0.213-0.098-0.056-0.185-0.113-0.27-0.185-0.367-0.297-0.595-0.751-0.609-1.259v-0.03c0-0.211 0.042-0.41 0.113-0.593 0.156-0.412 0.468-0.751 0.879-0.936 0.156-0.07 0.31-0.112 0.481-0.127 0.072-0.014 0.142-0.029 0.214-0.029 0.551 0 1.034 0.269 1.344 0.68 0.072 0.1 0.142 0.199 0.185 0.313 0.098 0.212 0.157 0.438 0.157 0.692 0 0.454-0.186 0.851-0.47 1.163-0.083 0.085-0.168 0.155-0.268 0.227m1.701-2.636c0.183 0.384 0.282 0.794 0.282 1.246 0 0.851-0.368 1.631-0.95 2.153-0.055 0.057-0.113 0.101-0.169 0.144-0.496 0.395-1.12 0.623-1.799 0.623-0.552 0-1.076-0.157-1.516-0.426-0.057-0.043-0.127-0.071-0.184-0.112-0.751-0.539-1.232-1.403-1.232-2.382 0-0.198 0.014-0.382 0.057-0.579 0-0.014 0.013-0.029 0.013-0.057 0.257-1.133 1.162-2.041 2.31-2.253h0.028c0.17-0.028 0.34-0.042 0.524-0.042 1.105 0 2.068 0.608 2.565 1.515 0.012 0.057 0.04 0.113 0.071 0.17m18.414 1.035c-0.155-1.374-1.188-2.338-2.35-2.268-4.492 0.143-8.926 0.284-13.346 0.838-0.126-0.44-0.325-0.851-0.552-1.233 3.783-2.267 7.693-3.797 12.282-4.817 1.19-0.185 1.784-1.218 1.374-2.38-1.997-5.907-6.147-8.797-11.9-10.525-1.459-0.269-2.846 0.496-3.2 1.685-1.346 4.405-2.635 8.797-3.457 13.302-0.369 0-0.737 0.043-1.09 0.115-0.892-4.421-1.035-8.684-0.497-13.43 0.228-1.176-0.624-2.013-1.913-1.913-5.199 0.453-10.708 2.635-13.811 6.998-0.778 1.104-0.552 2.72 0.453 3.528 3.754 3.031 7.523 5.963 11.658 8.401-0.127 0.353-0.211 0.707-0.269 1.089-4.661-0.495-8.909-1.799-13.343-3.938-1.119-0.666-2.239-0.156-2.494 1.218-0.963 5.356 0.269 11.22 3.315 15.725 0.708 1.034 2.139 1.275 3.202 0.566 3.924-2.634 7.749-5.34 11.22-8.484 0.338 0.282 0.708 0.538 1.103 0.75-1.995 4.293-4.702 7.877-8.286 11.375-1.034 0.85-1.077 2.125 0.099 2.861 5.014 3.061 11.559 3.105 16.957 1.077 1.202-0.452 1.813-1.672 1.416-2.777-1.403-4.348-2.804-8.626-4.645-12.763 0.395-0.255 0.764-0.538 1.09-0.877 3.371 3.017 5.977 6.444 8.287 10.666 0.524 1.161 1.685 1.616 2.706 0.879 4.858-3.584 6.672-9.847 5.991-15.668m3.075 0.326c0 13.471-10.922 24.393-24.395 24.393-13.472 0-24.393-10.922-24.393-24.393 0-13.473 10.921-24.395 24.393-24.395 13.473 0 24.395 10.922 24.395 24.395m-48.363 18.67c0.299-0.695 0.709-1.133 1.233-1.133s0.933 0.453 1.232 1.133c1.573 0.523 2.719 1.997 2.719 3.754 0 1.742-1.146 3.23-2.719 3.755-0.299 0.693-0.708 1.133-1.232 1.133s-0.934-0.453-1.233-1.133c-1.573-0.525-2.72-2.013-2.72-3.769 0-1.743 1.147-3.23 2.72-3.74m53.363 9.165v-55.673c0-0.864-0.694-1.557-1.556-1.557h-55.673c-0.866 0-1.558 0.693-1.558 1.557v55.673c0 0.865 0.692 1.559 1.558 1.559h55.673c0.848 0.014 1.556-0.694 1.556-1.559m-3.399-58.166h-3.4c-0.50494-4.0019 3.4-4.0019 3.4 0zm-52.004 0h3.399c0.50483-4.0017-3.399-4.0017-3.399 0z"/>
   </g>
   <g transform="matrix(2.1207 0 0 2.1207 -56639 -46788)">
    <path d="m67452 17484h-1363.8v797.09h1363.8v-797.09zm-1465.9 894.67v-992.25h1568.1v992.25h-1568.1"/>
    <path d="m68044 16669c0 26.57-22.446 48.1-49.016 48.1h-2437.1c-27.028 0-49.015-21.53-49.015-48.1 0-26.11 21.987-47.641 49.015-47.641h2437.1c26.57 0 49.016 21.531 49.016 47.641"/>
    <path d="m66906 16874h-248.75c-49.933 0-76.505 38.938-59.554 87.497 16.949 48.559 59.095 87.956 94.369 87.956h176.37c34.816 0 77.418-39.397 95.285-87.956 17.407-48.559-7.788-87.497-57.721-87.497zm659.21 416.87h-1591l-446.65-504.82h2502.1l-464.51 504.82"/>
   </g>
   <path d="m81106 26992h-8448.6c-1025.2 0-1856.2-1308.5-1856.2-2333.6v-3663.6" fill="none" stroke="#fff" stroke-miterlimit="10" stroke-width="222.75"/>
   <path d="m87710 27242c0-1879.4-1523.6-3403.3-3403.2-3403.3s-3403.2 1523.9-3403.2 3403.3c0 1879.6 1523.6 3403.2 3403.2 3403.2s3403.2-1523.6 3403.2-3403.2" fill="#fff" stroke="#fff" stroke-width="9.2812"/>
   <path d="m17761 43085h-5896.3c-1025.2 0-1856.2-1308.5-1856.2-2333.6v-5519.8" fill="none" stroke="#fff" stroke-miterlimit="10" stroke-width="222.75"/>
   <path d="m23437 43567c0-1879.4-1523.6-3403.3-3403.2-3403.3s-3403.2 1523.9-3403.2 3403.3c0 1879.6 1523.6 3403.2 3403.2 3403.2s3403.2-1523.6 3403.2-3403.2" fill="#fff" stroke="#fff" stroke-width="9.2812"/>
   <g transform="matrix(1.5143 0 0 1.5143 -5876 33243)">
    <path d="m60804-4415.3h-378.49c-68.124 0-123.35 55.316-123.35 123.35 0 68.217 55.224 123.44 123.35 123.44h378.49c68.124 0 123.44-55.223 123.44-123.44 0-68.031-55.316-123.35-123.44-123.35zm-793.82 24.688h-880.33c-42.972 0-78.055 34.99-78.055 78.241 0 43.065 35.083 77.962 78.055 77.962h880.33c43.157 0 78.148-34.897 78.148-77.962 0-43.251-34.991-78.241-78.148-78.241zm-1336.9-24.688h-378.4c-68.032 0-123.35 55.316-123.35 123.35 0 68.217 55.316 123.44 123.35 123.44h378.4c68.217 0 123.53-55.223 123.53-123.44 0-68.031-55.316-123.35-123.53-123.35zm-177.83 1167.4c113.05 318.72 204 416.08 387.68 416.08h1369.5c182.56 0 284.01-108.5 387.31-414.78l207.06-419.6c-67.568 25.059-142 38.888-220.34 38.888h-2145.2c-70.352 0-137.55-11.323-199.64-31.835l213.56 411.25zm2692.1-865.48c0 64.226-14.386 125.67-40.559 181.73-2.692 14.386-5.848 28.586-9.746 42.972l-283.63 703.42-1.949 6.2185c-99.31 295.7-240.57 569.31-598.83 569.31h-1369.7c-367.07 0-496.82-280.39-598.27-567.55l-296.81-705.1c-42.972-68.867-67.382-147.39-67.382-231.01v-218.85c0-33.877 4.084-66.918 11.602-98.845-7.332-19.212-11.602-40.002-11.602-61.906v-650.71c0-95.597 77.499-173 172.82-173h358.81c95.225 0 172.63 77.406 172.63 173v325.31h1879.1v-325.31c0-95.597 77.313-173 172.82-173h338.12c95.318 0 172.82 77.406 172.82 173v650.89c0 21.718-4.269 42.601-11.509 61.72 7.518 31.927 11.509 64.969 11.509 99.031v218.67" fill="#131112"/>
   </g>
   <g transform="matrix(2.2468 0 0 2.2468 -1.2999e5 27839)">
    <path d="m66917 7849.1c-146.14 0-264.32-115.9-264.78-258.83 0.459-143.39 118.65-258.83 264.78-259.28 146.59 0.4582 265.24 115.9 265.24 259.28 0 142.93-118.65 258.83-265.24 258.83zm-336.7-258.83c0 181.87 151.17 329.37 336.7 329.37 186.45 0 337.62-147.51 337.62-329.37 0-182.32-151.17-329.83-337.62-329.83-185.53 0-336.7 147.51-336.7 329.83zm-239.59-414.58c71.92 47.642 124.6 120.02 143.84 205.23 44.436-87.497 116.36-158.5 203.4-205.23h-347.24zm816.33 0h-7.787c149.8 80.168 251.5 235.92 251.5 414.58 0 260.66-216.68 472.3-483.3 472.3-251.04 0-458.1-187.82-481.46-427.41-60.928 90.704-165.83 151.17-285.4 151.17-189.2 0-342.2-149.8-342.2-334.41 0-114.98 59.551-215.77 149.8-276.23h-8.246c-105.36 0-191.03-83.374-191.03-186.45v-601.17c0-103.03 85.666-186.49 191.03-186.49h1207.1c105.36 0 191.03 83.466 191.03 186.49v601.17c0 103.07-85.664 186.45-191.03 186.45"/>
    <path d="m67434 6796.9v-255.62l481.01-246.37v769.98l-481.01-267.99"/>
   </g>
   <path d="m71468-19629c0-1879.4-1523.6-3403.3-3403.2-3403.3s-3403.2 1523.9-3403.2 3403.3c0 1879.6 1523.6 3403.2 3403.2 3403.2s3403.2-1523.6 3403.2-3403.2" fill="#fff" stroke="#fff" stroke-width="9.2812"/>
   <path d="m87865 8756.3v5957.7c0 1025.2-831.13 1856.2-1856.2 1856.2h-15771c-1025.3 0-1856.4 790.67-1856.4 1765.9v2795.5" fill="none" stroke="#fff" stroke-miterlimit="10" stroke-width="222.75"/>
   <path d="m91190 7635.1c0-1879.4-1523.6-3403.3-3403.2-3403.3s-3403.2 1523.9-3403.2 3403.3c0 1879.6 1523.6 3403.2 3403.2 3403.2s3403.2-1523.6 3403.2-3403.2" fill="#fff" stroke="#fff" stroke-width="9.2812"/>
   <g transform="matrix(2.3593 0 0 2.3593 -73778 -83669)">
    <g transform="matrix(8.7564 0 0 8.7564 53411 11810)">
     <path d="m847.55 1849.6h-162.56v-188.23h162.56v188.23zm-81.282-213.9c4.727 0 8.556 3.827 8.556 8.557 0 4.72-3.829 8.555-8.556 8.555s-8.556-3.835-8.556-8.555c0-4.73 3.829-8.557 8.556-8.557m94.116-8.556h-188.23c-7.089 0-12.834 5.744-12.834 12.834v222.46c0 7.09 5.745 12.834 12.834 12.834h188.23c7.09 0 12.834-5.744 12.834-12.834v-222.46c0-7.09-5.744-12.834-12.834-12.834" fill-rule="evenodd"/>
    </g>
   </g>
   <g transform="matrix(1.9164 0 0 1.9164 -1.0986e5 2009.4)">
    <g transform="matrix(5.6699 0 0 5.6699 37563 -25695)">
     <path d="m11406 5055.6c59.1 107.7 196.5-46.05 272 2.97-37.4-117.91-201.6 34.45-272-2.97"/>
     <path d="m11458 5115c59 107.6 196.5-45.96 272 2.97-37.4-118-201.6 34.44-272-2.97"/>
     <path d="m11510 5174.5c59 107.7 196.4-46.05 272 2.88-37.4-117.91-201.7 34.53-272-2.88"/>
     <path d="m11570 5233.5s11.6 17.45 71.6-3.9c59.8-21.17 63.5-11.7 69.6 3.25 10.4 25.99-120 75.01-141.2 0.65"/>
     <path d="m11556 4992.6c-14-72.32-85.8-17.73-121.6-59.7l36.5-36.48s7.8 16.61 47.7 13.92c52.2-3.62 82 40.85 81.3 66.94l-43.9 15.32"/>
     <path d="m11474 5031.1-51.4 18.57c-26.3-3.34-13-35.28-9.1-51.81 9.3-38.06 0.4-44.19 0.4-44.19l8.2-8.45c11.4 13.83 23.5 17.83 37.2 19.59-3.6 25.53-13.4 50.79 14.7 66.29"/>
     <path d="m11444 4840.4c-3.4-3.25-8.9-3.15-12.3 0.28l-72.3 73.16c-3.3 3.34-3.2 8.73 0.2 11.98 3.4 3.34 8.9 3.15 12.3-0.19l72.3-73.25c3.3-3.34 3.2-8.73-0.2-11.98"/>
     <path d="m11434 4828.7c-3.4-3.24-8.9-3.15-12.3 0.19l-72.3 73.25c-3.3 3.34-3.2 8.73 0.3 11.98 3.4 3.25 8.9 3.16 12.3-0.19l72.3-73.25c3.2-3.34 3.1-8.73-0.3-11.98"/>
     <path d="m11455 4851.8c-3.4-3.25-8.9-3.16-12.3 0.19l-72.3 73.25c-3.3 3.34-3.2 8.73 0.3 11.98 3.4 3.25 8.9 3.15 12.3-0.19l72.2-73.25c3.3-3.34 3.2-8.73-0.2-11.98"/>
     <path d="m11465 4863.7c-3.5-3.25-9-3.16-12.4 0.27l-72.3 73.26c-3.2 3.34-3.1 8.72 0.3 11.97s8.9 3.07 12.2-0.18l72.4-73.25c3.3-3.35 3.2-8.73-0.2-12.07"/>
     <path d="m11384 4837.2c-0.9-1.02-2.5-1.11-3.5-0.28l-21.7 18.02c-1.1 0.93-1.2 2.5-0.2 3.52l20.5 23.49c0.9 1.03 2.5 1.12 3.6 0.28l21.6-18.01c1.1-0.93 1.1-2.41 0.2-3.44l-20.5-23.58"/>
    </g>
   </g>
   <g fill="#64afe4" fill-opacity=".50459">
    <g transform="matrix(.14665 0 0 .14665 -10374 44598)">
     <path d="m3.6793e5 -2.1912e5c-2134.7-473.34-3768.2-1373.6-5151.1-2840.1-1104.5-1178.7-1819.1-2459.5-2255.3-4074.5l-241.32-881.72-37.12-7267.2c-27.84-8019-46.41-7787 547.59-8687.2 167.07-250.59 519.75-594 807.47-779.62 445.5-297 594-343.41 1188-371.25 853.87-46.41 1382.9 176.34 1847 798.19 445.5 575.43 603.28 1169.4 603.28 2246.1 0 761.06 27.84 937.4 185.62 1141.6 352.69 445.5 1698.5 538.31 2023.3 129.94 46.41-55.69 111.38-566.16 139.22-1132.3 64.97-1253 232.03-1754.2 788.91-2376 547.59-612.56 1002.4-816.75 1772.7-826.03 742.5 0 1271.5 232.03 1726.3 770.34 501.19 584.72 705.38 1243.7 770.34 2459.5 46.41 1039.5 46.41 1048.8 306.29 1188 389.81 194.9 1020.9 250.59 1290.1 111.37 222.75-120.65 232.03-176.34 287.72-1206.6 46.4-974.53 83.53-1150.9 352.68-1689.2 501.19-1020.9 1290.1-1559.2 2376-1614.9 538.31-27.84 742.5 0 1095.2 167.06 538.31 250.6 1030.2 788.91 1355.1 1475.7l241.31 519.75v7425c0 7387.9 0 7425-204.19 8241.7-464.06 1800.6-1317.9 3294.8-2598.7 4529.2-1215.8 1178.7-2394.6 1856.2-4074.5 2366.7-751.78 222.75-983.81 250.59-2682.3 278.44-1382.9 27.84-2014 0-2459.5-102.1zm4594.2-1614.9c408.37-102.1 1178.7-408.38 1717-677.53 863.15-426.94 1085.9-594 1911.9-1420 761.06-761.06 1002.4-1076.6 1355.1-1763.4 241.32-464.06 529.03-1150.9 649.69-1531.4 204.19-696.09 204.19-696.09 241.31-8046.8 27.85-7295 27.85-7360-167.06-7731.3-222.75-436.22-686.81-705.37-1048.8-612.56-306.28 74.25-779.62 473.34-946.69 807.47-92.81 176.34-139.21 547.59-139.21 1123 0 1420-259.88 1986.2-1104.5 2422.4-928.13 464.06-2376 297-3146.3-361.97-612.56-519.75-696.09-761.06-761.06-2106.8-64.97-1271.5-157.78-1531.4-677.53-1828.4-213.47-120.66-278.44-120.66-566.16 18.56-510.47 250.59-640.4 603.28-705.37 1893.4-46.41 1039.5-64.97 1150.9-324.85 1568.5-417.65 668.25-1058.1 993.1-2041.9 1048.8-1327.2 74.25-2366.7-399.09-2802.9-1280.8-176.35-343.4-213.47-566.15-213.47-1299.4 0-1030.2-111.38-1512.8-426.94-1828.4-278.44-278.43-686.81-241.31-1039.5 92.82-501.18 464.06-482.62 167.06-482.62 7712.7 0 7554.9 9.28 7684.9 501.18 9002.8 983.82 2608 3499 4566.4 6376.2 4974.7 946.68 129.94 2988.6 37.13 3842.4-176.34z"/>
     <path d="m3.7155e5 -2.2167e5c-139.22-269.15 27.84-529.03 389.81-603.28 167.06-37.12 640.41-222.75 1048.8-417.65 1689.2-816.75 2849.3-2208.9 3304.1-3963.1 157.78-621.85 176.35-1039.5 176.35-3508.3 0-2051.2 27.84-2821.5 111.37-2905 167.06-167.06 519.75-129.94 631.12 64.97 120.66 241.31 120.66 4520 0 5615.2-287.71 2505.9-1921.2 4622.1-4315.8 5596.6-863.16 352.68-1206.6 380.53-1345.8 120.65z"/>
     <path d="m3.6478e5 -2.2679e5c-1512.8-464.06-2125.4-2301.8-1188-3536.2 816.75-1067.3 2515.2-1169.4 3415.5-194.91 1290.1 1382.9 436.22 3619.7-1447.9 3786.8-259.87 18.56-603.28 0-779.62-55.69zm1290.1-872.44c891-454.78 1058.1-1717 306.28-2366.7-993.09-881.72-2441-250.6-2441 1067.3 0 853.87 575.44 1438.6 1420 1438.6 241.31 0 566.16-64.97 714.66-139.22z"/>
     <path d="m3.7058e5 -2.2677e5c-464.06-120.65-835.31-352.68-1160.2-714.65-408.37-473.35-556.87-863.16-556.87-1475.7 0-1271.5 946.69-2218.2 2227.5-2218.2s2227.5 946.69 2227.5 2218.2c0 863.16-445.5 1605.6-1215.8 1995.5-389.81 204.18-1123 297-1522.1 194.9zm1253-928.12c380.53-194.91 742.49-826.03 742.49-1280.8 0-1512.8-2116.1-2004.8-2775.1-640.41-213.46 436.22-241.31 751.78-92.81 1141.6 111.38 306.29 519.75 761.07 779.63 863.16 334.12 139.22 1011.6 102.09 1345.8-83.53z"/>
    </g>
    <g transform="matrix(1.5472 0 0 1.5472 -47114 -17148)">
     <path d="m56224 17943c-127.81-19.241-263.41 21.071-302.8 89.787-39.395 69.171 31.61 140.64 158.96 159.88 127.81 19.698 262.95-21.071 302.35-89.787 40.313-69.174-31.149-140.18-158.5-159.88zm-146.59-317.92c-109.03-39.856-260.2-23.364-337.16 36.19-76.961 59.553-50.848 140.18 58.18 180.03 108.57 39.397 259.74 23.364 336.7-36.19 76.961-59.554 51.308-140.18-57.721-180.03zm-460.85 535.06c-133.77 3.207-240.5 63.677-239.13 135.14 1.833 71.464 111.32 127.35 245.08 124.14 133.31-2.749 240.05-63.218 238.21-134.68-1.831-71.461-110.86-127.35-244.17-124.6zm-150.26-492.46c-79.708-55.888-231.34-65.508-338.08-21.072-107.2 44.436-129.18 126.44-49.018 182.32 79.71 56.346 231.34 65.51 338.08 21.074 107.2-44.436 128.73-125.98 49.016-182.32zm-619.35 470.01c43.062 67.341 180.03 101.24 306.01 76.502 126.9-24.738 194.7-99.866 151.63-166.75-42.605-67.341-179.58-101.7-306.47-76.503-125.98 24.736-193.78 99.408-151.17 166.75zm778.77 384.34c-541.02 11.911-985.38-213.47-991.79-503.91-6.872-289.98 426.49-535.06 967.51-546.97s984.92 213.48 991.79 503.91c6.871 289.98-426.04 535.06-967.51 546.97"/>
     <path d="m56071 17252c152.55 35.274 274.86 83.833 361.44 124.15l-7.787-324.8c-84.749-43.518-207.06-96.2-361.44-135.14l7.79 335.79zm-143.39-364.19c-113.15-19.241-237.75-29.776-373.81-23.822-44.895 2.292-90.246 6.871-136.97 13.286l7.787 340.83c45.811-6.413 90.705-11.452 135.14-13.285 136.05-6.413 261.57 3.208 375.64 21.072l-7.787-338.08zm-645.46 11.911c-166.75 31.607-339.91 77.876-508.03 111.32l8.244 354.11c166.75-33.9 339.45-86.123 508.04-122.31l-8.247-343.12zm-642.26 135.14c-127.81 18.326-249.66 25.197-361.44 5.497l9.62 347.24c112.69 34.815 232.72 16.492 359.61 0l-7.79-352.74zm1898.4 458.1h-0.457l1.831 80.166s-381.14-278.07-983.08-240.96c-601.95 37.567-1373.4 492-1648.7-146.59l-3.667-147.05c88.415 209.35 184.62 283.1 262.49 315.17l-6.872-361.44c-93.451-39.397-214.39-149.8-262.95-284.94l-2.749-102.16c275.78 638.59 1047.2 183.7 1649.2 146.59 601.49-37.564 983.08 240.5 983.08 240.5l0.916 54.516h0.918l10.077 446.19"/>
    </g>
    <g transform="matrix(.78844 0 0 .78844 93730 -31279)">
     <path d="m-72242 61633c0 471.3 382.11 853.41 853.5 853.41s853.5-382.11 853.5-853.41c0-471.49-382.11-853.5-853.5-853.5s-853.5 382.02-853.5 853.5zm853.5-2241.8c141.35 0 1321.4 1465.7 1321.4 2195.4 0 729.78-591.68 1321.5-1321.4 1321.5-729.78 0-1321.4-591.68-1321.4-1321.5 0-729.69 1185.1-2195.4 1321.4-2195.4"/>
     <path d="m-69042 60401c0 121.58-98.938 220.62-220.71 220.62h-804.78c-16.799 0-36.011 1.025-57.358-34.712-42.508-71.372-38.796-64.968-78.612-130.96-18.563-30.721 9.467-41.116 21.068-41.116h919.77c7.239 0 13.736-6.497 13.736-13.829l207.06-1813.4c0-7.518-6.497-14.108-13.829-14.108h-4666.2c-7.328 0-13.829 6.594-13.829 14.108l206.88 1813.4c0 7.329 6.682 13.829 13.922 13.829h912.62c18.841 0 48.448 10.859 14.664 65.897-39.723 64.69-24.224 45.664-66.361 117.41-15.685 26.637-37.403 23.481-66.825 23.481h-794.1c-121.68 0-220.71-99.031-220.71-220.62l-206.97-1813.4c0-121.86 99.031-220.8 220.71-220.8h4666.2c121.68 0 220.62 98.938 220.62 220.8l-206.97 1813.4"/>
    </g>
    <g transform="matrix(1.2267 0 0 1.2267 1.5741e5 -58215)">
     <path d="m-95927 63606h-326.24c-11.787 0-21.439 9.652-21.439 21.439v71.837c0 11.787-9.653 21.44-21.44 21.44h-456.54c-11.88 0-21.44-9.653-21.44-21.44v-71.837c0-11.787-9.652-21.439-21.347-21.439h-326.33c-11.787 0-21.44-9.653-21.44-21.347v-91.884c0-11.788 9.653-21.44 21.44-21.44h1194.8c11.787 0 21.44 9.652 21.44 21.44v91.884c0 11.694-9.653 21.347-21.44 21.347"/>
     <path d="m-96122 64669-4.176-0.149-4.084-0.742c-4.176-0.743-7.61-1.114-10.673-1.114h-895.36c-6.683 0-13.458 1.299-20.233 3.616l-6.405 1.916c-84.737 20.975-143.95 96.617-143.95 184.05 0 104.6 85.666 200.75 189.71 189.71 16.057-1.671 45.849-0.928 57.451 10.581 11.416 11.508 9.281 38.424 7.61 54.573-17.17 161.49 132.16 294.49 294.59 294.49 113.23 0 229.43-61.442 266.37-168.55 6.032-17.635 17.541-47.056 35.361-52.161 17.913-5.101 44.364 13.551 58.843 25.338 43.9 36.011 103.02 47.242 159.92 47.242 162.42 0 294.59-132.16 294.59-294.59 0-157.13-122.88-286.42-279.55-294.22zm-15.035 719.02c-57.08 0-108.59-17.356-160.47-39.352-1.949-0.832-6.775-1.203-10.209 3.527-78.519 113.51-209.48 183.95-349.81 183.95-208.08 0-377.56-155.65-413.85-353.34-1.021-5.754 0-14.943-13.18-15.778-147.29-28.493-252.54-154.81-252.54-310.46 0-146.37 98.474-273.24 239.83-309.62 19.862-6.779 40.373-10.209 60.978-10.209h895.36c9.467 0 19.119 0.743 29.328 2.413 224.24 13.365 399.37 198.8 399.37 424.06 0 234.17-190.64 424.8-424.8 424.8"/>
     <path d="m-95120 64221h-2810v1679.6c0 22.646 19.212 41.765 41.858 41.765h2726.4c22.646 0 41.765-19.119 41.765-41.765v-1679.6zm-1405-238.53c-42.787 0-77.499 34.712-77.499 77.498 0 42.88 34.712 77.592 77.499 77.592 42.786 0 77.591-34.712 77.591-77.592 0-42.786-34.805-77.498-77.591-77.498zm1363.2 2090.1h-2726.4c-94.854 0-171.98-77.127-171.98-171.98v-1894.7c0-94.762 77.127-171.98 171.98-171.98h2726.4c94.761 0 171.98 77.22 171.98 171.98v1894.7c0 94.854-77.22 171.98-171.98 171.98"/>
    </g>
    <g transform="matrix(.80522 0 0 .80522 97892 -42042)">
     <path d="m-85437 63907c0 16.056-13.179 29.421-29.329 29.421h-626.48c-16.243 0-29.329-13.365-29.329-29.421v-98.567c0-16.149-13.18-29.329-29.422-29.329h-447.54c-16.242 0-29.422-13.272-29.422-29.421v-126.04c0-16.057 13.18-29.329 29.422-29.329h1639.1c16.149 0 29.328 13.272 29.328 29.329v126.04c0 16.149-13.179 29.421-29.328 29.421h-447.63c-16.15 0-29.329 13.18-29.329 29.329v98.567"/>
     <path d="m-83852 64620h-3854.7v2304.1c0 31.092 26.544 57.358 57.45 57.358h3739.9c31.092 0 57.358-26.266 57.358-57.358v-2304.1zm-1927.2-327.07c-58.75 0-106.27 47.613-106.27 106.36 0 58.658 47.52 106.27 106.27 106.27 58.658 0 106.27-47.612 106.27-106.27 0-58.75-47.613-106.36-106.27-106.36zm1869.9 2867.1h-3739.9c-130.03 0-235.84-105.81-235.84-235.93v-2598.8c0-130.22 105.81-236.02 235.84-236.02h3739.9c130.12 0 236.02 105.81 236.02 236.02v2598.8c0 130.12-105.9 235.93-236.02 235.93"/>
     <path d="m-84331 66441c-36.289 27.75-88.357 20.789-116.11-15.593l-609.87-798.46-724.96 385.64c-65.711 34.897-150.17 14.293-192.21-47.242l-480.12-701.2c-4.18-5.101-17.82-12.158-23.945-12.715h-698.6c-45.849 0-82.789-37.125-82.789-82.881 0-45.757 36.94-82.789 82.789-82.789h698.6c59.4 0 126.78 35.454 160.29 84.459l471.76 688.85 721.8-383.96c63.762-33.969 148.22-15.592 192.12 42.044l616.92 807.75c27.658 36.29 20.697 88.265-15.686 116.11"/>
    </g>
    <g transform="matrix(.9568 0 0 .9568 1.1311e5 -46187)">
     <path d="m-84135 69768c-47.52 0-88.821-29.7-110.91-73.6v6.682c0 91.977-65.339 166.6-145.9 166.6-55.409 0-103.67-35.361-128.36-87.522-24.688 52.161-72.951 87.522-128.36 87.522-44.457 0-84.181-22.739-110.91-58.564v516.87c0 92.07-65.247 166.6-145.81 166.6-80.654 0-145.9-74.528-145.9-166.6v-1017.9l-68.031 141.63c-26.452 55.316-76.385 86.687-127.99 86.687-23.667 0-47.705-6.683-69.98-20.512-70.63-44.364-96.525-145.62-57.729-226.28l336.26-701.1c0.148-0.742 36.104-57.451 54.109-84.552 49.377-74.621 114.9-131.7 201.12-131.7h506.48c148.96 0 269.71 143.02 269.71 319.37v930.35c0 80.654-57.265 145.99-127.8 145.99"/>
     <path d="m-83176 70278c-61.628 0-111.38 49.933-111.38 111.56 0 61.535 49.747 111.47 111.38 111.47 61.534 0 111.56-49.933 111.56-111.47 0-61.627-50.026-111.56-111.56-111.56zm45.756 1451.4h-3340.1c-126.22 0-228.78-102.65-228.78-228.69v-2226.3c0-126.13 102.56-228.69 228.78-228.69h990.96s62.184 0 48.077 45.014c-9.931 31.463-55.038 115.37-57.08 119.26-18.377 36.104-66.918 32.299-66.918 32.299h-727.28c-30.536 0-55.502 24.409-55.502 54.295v2182c0 29.793 24.966 54.295 55.502 54.295h2872.5c30.442 0 55.409-24.502 55.409-54.295v-2182c0-29.886-24.967-54.295-55.409-54.295h-382.11s-77.034 7.796-77.034-58.287v-80.097c0-58.193 81.861-58.193 81.861-58.193h657.11c126.22 0 228.78 102.56 228.78 228.69v2226.3c0 126.04-102.56 228.69-228.78 228.69"/>
    </g>
    <g transform="matrix(1.1893 0 0 1.1893 1.5556e5 -58157)">
     <path d="m-93501 68104c0-108.5-89.843-196.11-198.43-196.11h-1603c-108.59 0-198.53 87.615-198.53 196.11v981.96c0 95.04 77.035 171.98 171.98 171.98h1656c94.947 0 171.89-76.942 171.89-171.98v-981.96h0.07zm-195.18 1537.4c57.637 0 104.41-46.87 104.41-104.51 0-57.637-46.777-104.41-104.41-104.41-57.544 0-104.32 46.777-104.32 104.41 0 57.636 46.777 104.51 104.32 104.51zm-1.67 203.26h-1603.1c-221.91 0-401.78-179.96-401.78-401.88v-1341.3c0-221.91 179.87-401.88 401.78-401.88h1603.1c221.91 0 401.88 179.96 401.88 401.88v1341.3c0 221.91-179.96 401.88-401.88 401.88"/>
     <path d="m-94911 69067c0 47.892-38.889 86.687-86.78 86.687h-233.42c-47.891 0-86.779-38.795-86.779-86.687v-902.23c0-47.984 38.888-86.779 86.779-86.779h233.42c47.891 0 86.78 38.795 86.78 86.779v902.23"/>
     <path d="m-93681 69067c0 47.892-38.795 86.687-86.687 86.687h-952.53c-47.984 0-86.78-38.795-86.78-86.687v-82.046c0-47.891 38.796-86.779 86.78-86.779h952.53c47.892 0 86.687 38.888 86.687 86.779v82.046"/>
     <path d="m-94312 68531c0 47.984-38.888 86.779-86.779 86.779h-321.69c-47.984 0-86.78-38.795-86.78-86.779v-365.77c0-47.891 38.796-86.687 86.78-86.687h321.69c47.891 0 86.779 38.796 86.779 86.687v365.77"/>
     <path d="m-94195 68165c0-47.891 38.796-86.687 86.687-86.687h321.78c47.798 0 86.779 38.796 86.779 86.687v365.77c0 47.984-38.981 86.779-86.779 86.779h-321.78c-47.891 0-86.687-38.795-86.687-86.779v-365.77"/>
     <path d="m-93681 68763c0 34.897-28.215 63.112-63.112 63.112h-999.78c-34.898 0-63.113-28.215-63.113-63.112 0-34.805 28.215-63.02 63.113-63.02h999.87c34.804 0 63.019 28.215 63.019 63.02"/>
    </g>
    <g transform="matrix(1.1869 0 0 1.1869 1.6347e5 -57901)">
     <path d="m-99642 65746c-56.43 0-102.37 45.942-102.37 102.56 0 56.708 46.035 102.56 102.37 102.56 56.708 0 102.74-45.849 102.74-102.56 0-56.616-46.035-102.56-102.74-102.56zm-3.063 421.09h-1574.3c-226.28 0-409.86-183.58-409.86-409.86v-1316.7c0-171.33 105.06-317.98 254.12-379.14l182 195.46-1.2 4.641h-24.97c-98.2 0-179.22 81.953-179.22 180.15v1145.7h1932.5v-1145.9c0-98.103-81.025-180.06-179.22-180.06h-524.21c26.36-35.547 41.21-78.148 42.79-123.26 1.39-37.867-6.68-74.714-23.3-107.57h504.81c226.28 0 409.86 183.58 409.86 409.86v1316.7c0.09 226.37-183.49 409.95-409.86 409.95"/>
     <path d="m-99851 64567c90.12 96.989 137.27 223.31 132.44 355.75-4.826 132.44-60.792 255.05-157.78 345.26-92.163 85.666-212.08 132.82-337.84 132.82-137.36 0-269.71-57.637-363.27-158.15-117.03-125.67-155.92-296.44-119.26-452.27l147.85 158.89c5.85 6.312 12.07 12.252 18.66 17.728 11.13 57.079 37.68 111.65 80 157.32 61.72 66.268 145.53 102.65 236.02 102.65 81.77 0 159.64-30.628 219.41-86.223 63.02-58.564 99.588-138.29 102.56-224.42 3.063-85.851-27.472-167.99-86.037-231.01-52.811-56.801-121.86-91.606-197.5-100.52l-151.75-163.16c36.75-8.446 74.62-12.808 113.14-12.808 137.36 0 269.8 57.544 363.36 158.15"/>
     <path d="m-1.0042e5 64339c-20.78 19.212-32.85 45.664-33.96 73.879-0.93 28.029 9.28 55.502 28.49 76.199l170.87 183.68c19.12 20.697 29.33 48.076 28.49 76.291-1.11 28.03-13.27 54.574-33.97 73.786l-56.43 52.625c-19.68 18.377-45.48 28.493-72.39 28.493h-3.81c-28.21-1.017-54.76-13.272-73.97-33.969l-299.41-321.69c-10.4-11.416-24.97-17.449-40-17.449-4.37 0-8.91 0.446-13.46 1.671-19.21 4.826-34.34 19.769-39.45 39.074l-18.28 69.888c-12.44 47.798-55.41 79.54-102.65 79.54-8.82 0-17.91-1.203-26.92-3.527l-74.71-19.49c-56.8-14.758-90.68-72.858-75.92-129.66l75.18-287.81c9.18-35.175-0.19-72.579-24.88-99.309l-280.01-300.9c-19.12-20.511-29.33-47.984-28.4-76.106 1.11-28.122 13.27-54.759 33.78-73.971l353.52-328.74c20.51-19.026 46.5-28.4 72.3-28.4 28.5 0 56.99 11.323 77.78 33.876l604.95 650.24c19.21 20.697 29.42 48.077 28.4 76.384-1.02 27.937-13.27 54.667-33.87 73.879l-141.27 131.52"/>
    </g>
    <path d="m32547 17297-155.92-1300.4c-7.889-65.34-63.577-115.55-129.47-115.55h-1882.7c-65.989 0-121.77 51.047-129.57 116.66l-173.47 1447h2341.6c37.31 0 72.857-16.799 97.638-44.736 24.596-27.936 36.383-66.082 31.928-103.02zm-630.75-2003.9c-75.085 0-136.16 61.07-136.16 136.25 0 75.085 61.163 136.16 136.16 136.16 75.085 0 136.34-61.071 136.34-136.16 0-75.178-61.256-136.25-136.34-136.25zm-1188.8 0c-75.178 0-136.25 61.07-136.25 136.25 0 75.085 61.071 136.16 136.25 136.16 75.085 0 136.16-61.071 136.16-136.16 0-75.178-61.071-136.25-136.16-136.25zm2009.9 2304.3c-81.025 91.421-197.69 144.97-319.83 144.97h-2906.8c-82.047 0-148.59-66.732-148.59-148.68 0-82.139 66.546-148.96 148.59-148.96h265.54l178.01-1483.7c23.667-196.39 178.01-349.07 369.58-374.03-19.212-48.912-29.886-102.09-29.886-157.69 0-239.18 194.44-433.53 433.53-433.53 239.08 0 433.43 194.35 433.43 433.53 0 54.203-10.117 106.08-28.401 153.98h378.86c-18.377-47.891-28.4-99.773-28.4-153.98 0-239.18 194.44-433.53 433.34-433.53 239.18 0 433.53 194.35 433.53 433.53 0 55.688-10.766 109.06-29.978 157.97 189.89 26.266 342.94 178.57 366.33 373.76l155.92 1300.5c14.572 121.49-23.667 244.38-104.78 335.89"/>
    <path d="m22255 18547 203.18 59.397c122.66 36.338 209.22 146.93 214.65 274.41 5.428 128.33-71.108 245.56-190.14 292.04l-1706.5 667.5c-111.07 43.34-237.11 16.9-321.01-67.488-84.148-84.147-110.47-209.94-67.246-320.77l667.26-1706.5c46.723-119.28 164.07-195.82 292.16-190.15 127.85 5.197 238.07 91.752 274.29 214.41l59.881 202.82 783.76-783.64c56.017-56.379 132.56-87.768 212-87.768 79.439 0 155.5 31.389 211.88 87.768l150.31 150.06c116.74 117.35 116.74 306.65 0 423.63l-784.49 784.24"/>
    <g transform="translate(1.1562e5 -49221)">
     <path d="m-89557 67991c832.62 0 1507.7 191.47 1507.7 427.31v539.15c-9.838-7.611-19.769-14.757-30.535-21.811-89.75-60.142-213.66-112.77-367.91-156.76-298.48-84.274-692.19-130.87-1109.3-130.87-417.1 0-810.81 46.592-1109.3 130.87-154.35 43.993-278.16 96.618-368 156.76-10.673 7.054-20.604 14.2-30.442 21.811v-539.15c0-235.84 675.12-427.31 1507.7-427.31"/>
     <path d="m-89557 68806c804.5 0 1461.8 178.39 1505.4 403.64 1.581 7.796 2.316 15.778 2.316 23.76v542.95c-9.838-7.518-19.769-14.664-30.535-21.811-75.549-50.768-175.69-96.246-297.93-135.32-22.553-7.147-45.942-14.201-69.98-21.347-24.224-6.776-48.727-13.551-74.065-19.862-58.564-14.572-119.91-27.658-184.05-39.538-252.08-46.685-545.27-71.559-851.18-71.559s-599.2 24.874-851.65 71.559c-64.041 11.88-125.39 25.338-183.96 39.538-25.337 6.311-49.933 12.715-74.064 19.862-24.131 6.682-47.427 13.829-70.073 21.347-122.23 39.074-222.38 84.552-297.93 135.32-10.673 7.147-20.604 14.293-30.442 21.811v-542.95c0-7.982 0.742-15.964 2.316-23.76 43.9-225.26 701.2-403.64 1505.8-403.64"/>
     <path d="m-89395 70028c0-89.378-72.765-162.24-162.24-162.24-89.379 0-162.33 72.858-162.33 162.24 0 89.378 72.95 162.33 162.33 162.33 89.471 0 162.24-72.951 162.24-162.33zm-1013.9-327.72c81.954-15.779 169.38-29.608 261.55-40.652 181.36-21.811 380.81-34.062 590.1-34.062s408.75 12.251 590.01 34.062c92.256 11.044 179.68 24.873 261.64 40.652 372.74 72.486 625.28 191.19 653.77 326.98 1.952 8.724 2.695 16.984 2.695 25.709v767.65c0 235.93-675.12 427.4-1507.7 427.4-832.62 0-1507.7-191.47-1507.7-427.4v-767.65c0-8.725 0.831-16.985 2.784-25.709 28.122-135.78 280.2-254.49 652.94-326.98"/>
    </g>
    <g transform="translate(1.3432e5 -34842)">
     <path d="m-98030 61244h-2.042c-31.464 498.5-446.06 892.95-952.44 892.95-467.31 0-856.1-335.8-938.43-779.07-10.581 0.371-21.718 0.832-32.392 0.832-348.14 0-641.89-230.73-737.67-547.22-14.76 1.114-29.98 2.042-45.02 2.042-275 0-498.21-222.94-498.21-498.12 0-274.82 222.84-498.22 498.21-498.22h885.16v339.14c0 214.77 174.49 389.16 389.16 389.16h888.86c214.68 0 389.16-174.4 389.16-389.16v-339.14h155.65c394.08 0 713.26 319.55 713.26 713.17 0 393.71-319.18 713.64-713.26 713.64"/>
     <path d="m-98370 60157c0 113.05-91.699 204.84-204.84 204.84h-888.86c-113.05 0-204.84-91.791-204.84-204.84v-578.41h-268.69c-176.16 0-269.99-207.53-154.07-339.88l918.1-1045.7c40.838-46.406 97.361-69.795 153.98-69.795 56.523 0 113.05 23.389 153.98 69.795l918.01 1046.1c116.29 132.35 22.09 339.88-154.07 339.88h-268.69v578.04"/>
    </g>
    <g transform="matrix(-.79527 0 0 .79527 -14909 -34177)">
     <path d="m-79947 65147c-387.49-387.58-1018.3-387.58-1406 0-387.58 387.68-387.58 1018.3 0 1406.1 387.68 387.58 1018.5 387.58 1406 0 387.77-387.68 387.77-1018.4 0-1406.1zm1755.4-1208.4-998.48 998.38c-73.879 73.971-170.12 111.47-267.11 113.04 374.5 558.08 315.56 1322.8-177.18 1815.5-559.84 559.94-1471.1 559.94-2031 0-560.03-559.94-560.03-1471 0-2030.9 492.74-492.74 1257.4-551.86 1815.5-177.27 1.485-96.803 39.167-193.33 113.05-267.11l998.29-998.38c151.01-151.01 395.84-151.01 546.94 0 151.01 151.01 151.01 395.75 0 546.76" fill="#64afe4" fill-opacity=".50459"/>
    </g>
    <g transform="matrix(1.5037 0 0 1.5037 1.712e5 -92710)">
     <path d="m-98154 67796c-388.14 0-703.89 315.75-703.89 703.89 0 388.05 315.75 703.89 703.89 703.89s703.89-315.84 703.89-703.89c0-388.14-315.75-703.89-703.89-703.89zm0 1595.4c-491.63 0-891.56-399.93-891.56-891.56 0-491.72 399.93-891.65 891.56-891.65s891.56 399.93 891.56 891.65c0 491.63-399.93 891.56-891.56 891.56"/>
     <path d="m-97676 68527h-348.23c-12.623 20.604-29.979 37.96-50.676 50.583v418.58c0 43.993-35.64 79.818-79.726 79.818s-79.726-35.825-79.726-79.818v-418.58c-43.9-26.916-73.229-75.271-73.229-130.4 0-84.366 68.589-152.96 152.96-152.96 55.131 0 103.49 29.329 130.4 73.137h348.23c43.993 0 79.726 35.825 79.726 79.818 0 44.086-35.733 79.819-79.726 79.819"/>
    </g>
    <g transform="matrix(.75269 0 0 .75269 88841 -35469)">
     <path d="m-91125 65450-1335.3 1131.3h2670.6l-1335.3-1131.3zm1517.9-1090.9h-3035.6c-38.332 0-71.93 24.873-71.93 53.181v1836.1l1373-1159.1c28.122-23.853 63.855-36.847 100.7-36.847h231.94c36.847 0 72.672 12.994 100.8 36.847l1373.1 1159.1v-1836.1c-0.07-28.308-33.691-53.181-71.93-53.181zm0 2622.7h-3035.6c-260.52 0-472.51-203.54-472.51-453.67v-2115.8c0-250.22 211.98-453.76 472.51-453.76h3035.6c260.43 0 472.42 203.54 472.42 453.76v2115.8c0 250.13-211.98 453.67-472.42 453.67" fill="#64afe4" fill-opacity=".50459"/>
    </g>
    <g transform="matrix(.93262 0 0 .93262 1.216e5 -46765)">
     <path d="m-73474 64258c0-74.992-61.071-136.16-136.25-136.16h-2715c-75.085 0-136.16 61.163-136.16 136.16v1609.6h2987.4v-1609.6zm-2506.5 2947.4c0 71.93 58.472 130.4 130.59 130.4 71.837 0 130.4-58.472 130.4-130.4v-271.85c0-72.022-58.565-130.49-130.4-130.49-72.115 0-130.59 58.472-130.59 130.49v271.85zm1764.5 0c0 71.93 58.565 130.4 130.4 130.4 71.929 0 130.49-58.472 130.49-130.4v-271.85c0-72.022-58.565-130.49-130.49-130.49-71.837 0-130.4 58.472-130.4 130.49v271.85zm605.69-76.199h-127.34v76.199c0 191.84-156.02 347.95-347.95 347.95-191.84 0-347.95-156.11-347.95-347.95v-76.199h-1068.5v76.199c0 191.84-156.11 347.95-347.86 347.95-191.94 0-347.95-156.11-347.95-347.95v-76.199h-127.43c-275.37 0-499.33-223.96-499.33-499.33v-2371.8c0-275.37 223.96-499.33 499.33-499.33h2715c275.47 0 499.42 223.96 499.42 499.33v2371.8c0 275.37-223.96 499.33-499.42 499.33"/>
     <path d="m-75617 65376h96.711v-869.56c0-67.567 54.852-122.51 122.42-122.51h2.414c67.474 0 122.51 54.945 122.51 122.51v994.48c0 67.567-55.038 122.51-122.51 122.51h-221.54c-67.474 0-122.42-54.945-122.42-122.51v-2.413c0-67.475 54.945-122.51 122.42-122.51"/>
     <path d="m-74319 64935h-41.023v93.834c0 67.474-55.038 122.51-122.6 122.51h-2.228c-67.66 0-122.7-55.038-122.7-122.51v-93.834h-166.97l290.41 504.62c21.81 37.682 21.718 84.645-0.149 122.33-21.718 37.775-62.37 61.256-105.99 61.256h-2.598c-43.715 0-84.367-23.574-106.27-61.441l-385.82-671.03c-10.673-18.562-16.335-39.631-16.335-61.163v-19.491c0-67.567 55.038-122.42 122.42-122.42h371.34v-181.45c0-67.567 55.038-122.51 122.6-122.51h2.317c67.567 0 122.6 54.945 122.6 122.51v181.45h41.023c67.568 0 122.51 54.853 122.51 122.42v2.413c0 67.568-54.945 122.51-122.51 122.51"/>
    </g>
    <path d="m29569 25912c-68.125 0-123.35 55.223-123.35 123.35 0 68.125 55.223 123.35 123.35 123.35 68.217 0 123.35-55.223 123.35-123.35 0-68.124-55.13-123.35-123.35-123.35zm-178.66 466.2h-650.99v108.13c0 179.41 145.99 325.4 325.49 325.4 179.41 0 325.49-145.99 325.49-325.4v-108.13zm-829.56-466.2c-68.125 0-123.35 55.223-123.35 123.35 0 68.125 55.223 123.35 123.35 123.35 68.124 0 123.44-55.223 123.44-123.35 0-68.124-55.316-123.35-123.44-123.35zm1737.2-1843-113.88 2199.9c-3.155 61.163-53.645 109.24-114.99 109.24h-336.08v108.13c0 368.37-299.78 668.06-668.16 668.06-368.37 0-668.06-299.69-668.06-668.06v-108.13h-336.17c-61.349 0-111.84-48.077-115.09-109.24l-114.16-2206.1c-1.581-31.557 9.745-62.37 31.556-85.202 21.626-22.925 51.882-35.919 83.439-35.919h2237.1c63.669 0 115.18 51.511 115.18 115.18 0 4.083-0.149 8.167-0.669 12.065"/>
    <g transform="matrix(1.279 0 0 1.279 1.397e5 -74898)">
     <path d="m-74853 70275c-117.22 0-212.54 95.318-212.54 212.45 0 117.22 95.319 212.45 212.54 212.45 117.04 0 212.45-95.226 212.45-212.45 0-117.13-95.411-212.45-212.45-212.45zm-702.59 0c-117.13 0-212.45 95.318-212.45 212.45 0 117.22 95.319 212.45 212.45 212.45 117.22 0 212.54-95.226 212.54-212.45 0-117.13-95.318-212.45-212.54-212.45zm-702.4 0c-117.13 0-212.45 95.318-212.45 212.45 0 117.22 95.318 212.45 212.45 212.45 117.22 0 212.54-95.226 212.54-212.45 0-117.13-95.318-212.45-212.54-212.45zm1668.7 1003c-259.04 224.61-602.17 348.32-966.27 348.32-364.01 0-707.14-123.72-966.18-348.32-264.7-229.62-410.6-536.55-410.6-864.27 0-321.04 143.12-625.65 396.4-851.65-117.41-203.63-314.36-394.55-316.58-396.68-42.973-41.302-55.224-105.16-30.629-159.36 22.925-50.49 73.137-82.418 127.9-82.418 3.987 0 8.075 0.186 12.066 0.557 23.574 2.042 568.85 51.233 1042.1 283.82 48.448-4.547 97.36-6.775 145.62-6.775 364.01 0 707.14 123.72 966.18 348.32 264.79 229.62 410.6 536.46 410.6 864.18s-145.81 634.65-410.6 864.27" fill="#64afe4" fill-opacity=".50459"/>
    </g>
    <path d="m26277 14133h-690.12v389.06c0 190.61 154.45 345.06 345.06 345.06 190.48 0 345.06-154.45 345.06-345.06v-389.06zm1124.4 1234.8-1307.9 1308c-89.298 89.169-233.83 89.169-322.99 0l-1308-1308c-65.27-65.277-84.724-163.46-49.473-248.84 35.377-85.382 118.67-141 211.1-141h177.17v-977.87c0-163.19 132.26-295.32 295.32-295.32h1670.9c163.07 0 295.32 132.12 295.32 295.32v977.87h177.16c92.434 0 175.73 55.617 210.98 141 35.379 85.385 15.926 183.56-49.482 248.84"/>
    <path d="m48317 9883.9-359.21 764.83s196.08 141.77 376.57-77.679c180.65-220.18 109.73-581.4-17.359-687.15zm-183.13-213.7c-62.466-44.615-623.1-343.19-1011.1 77.72-387.96 420.19-498.4 878.53 245.28 1700.2l196.84-463.36s-341.22-314.42-230.48-679.21c111.22-364.82 390.13-459.79 514.14-477.78 0 0-459.1 359.05-204.52 688.57 118.58 153.27 162.06 23.031 300.23-268.37 138.03-291.42 251.96-532.45 189.57-577.78zm-745.86 4059.5c561.65-746.84-87.958-1584.4-87.958-1584.4-501.66 1080 87.958 1584.4 87.958 1584.4zm985.17-4102s391.69 322.35 367.2 682.12c-24.563 359.76-167.63 629.58-629.21 774.21-150.97 46.774-367.43-3.609-367.43-3.609l-224.75 536.05s492.82 709.46 378.58 1241.2c-167.93 782.83-519.78 1377.2-519.78 1377.2s-560.25-633.16-481.97-1239c50.766-395.01 112.84-613.72 274.43-1062.7 0 0-686.33-757.67-738.73-1310.3-59.677-628.13 214.28-1083.6 711.83-1157 590.09-87.794 1063.1 108.64 1063.1 108.64s218.25-233.13 178.49-599.37c-39.913-365.51-415.86-543.95-563.81-421.65 0 0 347.2 197.87 204.59 459.06-142.59 260.47-410.9 268.37-574.03 82.737-163.07-184.9-99.276-651.87 401.75-693.62 501.19-41.717 850.71 535.32 633.79 985.04-96.555 200.04-114.08 241.03-114.08 241.03"/>
    <g transform="matrix(1.3442 0 0 1.3442 -23072 -11027)">
     <path d="m41642 18467c-20-22-22-33-22-164 0-141 0-142 26-162 36-28 79-27 109 4 24 23 25 29 25 158 0 121-2 137-21 161-27 35-86 36-117 3z"/>
     <path d="m42059 18471c-23-18-24-26-27-153-3-133-3-135 23-166 32-38 79-43 113-12 30 29 34 52 30 190-3 114-5 123-27 141-30 24-82 24-112 0z"/>
     <path d="m42515 18465c-24-23-25-29-25-158 0-132 1-135 26-161 34-33 74-34 111-2 27 24 28 27 31 141 2 64 1 128-2 141-17 64-95 86-141 39z"/>
     <path d="m42892 18467c-20-22-22-33-22-164 0-141 0-142 26-162 36-28 79-27 109 4 24 23 25 29 25 158 0 121-2 137-21 161-27 35-86 36-117 3z"/>
     <path d="m41643 17969c-52-26-88-66-122-139l-26-55v-1321l26-49c18-35 39-59 74-80l48-30 663-3c644-2 664-2 716 18 73 27 130 78 157 140 21 50 22 53 19 673-3 615-3 623-25 669-29 64-104 142-166 173l-51 25h-635c-626 0-637 0-678-21zm1320-172c70-53 67-20 67-690 0-681 7-625-80-647-31-7-231-10-653-8-589 3-609 4-623 22-12 17-14 121-14 642 0 374 4 633 10 648 5 14 18 34 30 46 20 20 26 20 624 18l603-3 36-28z"/>
     <path d="m41825 17681c-70-32-79-55-83-219-4-156 1-175 47-170l26 3 5 142c4 119 8 145 23 160s42 19 184 23c144 4 167 7 177 23 8 12 8 22 0 35-10 15-31 17-175 19-142 2-170 0-204-16z"/>
     <path d="m40949 17801c-45-45-37-100 18-129 13-7 71-12 148-12 120 0 127 1 150 25 15 15 25 36 25 54 0 76-31 91-190 91-121 0-122 0-151-29z"/>
     <path d="m43385 17818c-52-28-62-92-20-133 23-24 30-25 150-25 77 0 135 5 148 12 55 29 63 84 18 129-29 29-30 29-153 29-69 0-132-5-143-12z"/>
     <path d="m40965 17358c-53-31-60-85-16-129 29-29 30-29 151-29 159 0 190 15 190 91 0 18-10 39-25 54-23 24-29 25-152 25-77 0-136-5-148-12z"/>
     <path d="m43365 17345c-15-15-25-36-25-54 0-76 31-91 190-91 121 0 122 0 151 29 45 45 37 100-18 129-13 7-71 12-148 12-120 0-127-1-150-25z"/>
     <path d="m40945 16925c-31-30-32-73-4-109 20-26 21-26 163-26 136 0 144 1 164 23 32 34 30 89-4 116-24 19-40 21-161 21-129 0-135-1-158-25z"/>
     <path d="m43366 16929c-35-27-36-86-3-117 22-20 33-22 164-22 141 0 142 0 162 26 28 36 27 79-4 109-23 24-29 25-158 25-121 0-137-2-161-21z"/>
     <path d="m40949 16551c-45-45-37-100 18-129 13-7 71-12 148-12 120 0 127 1 150 25 15 15 25 36 25 54 0 76-31 91-190 91-121 0-122 0-151-29z"/>
     <path d="m43385 16568c-52-28-62-92-20-133 23-24 30-25 150-25 77 0 135 5 148 12 55 29 63 84 18 129-29 29-30 29-153 29-69 0-132-5-143-12z"/>
     <path d="m41646 16139c-26-20-26-21-26-163 0-136 1-144 23-164 34-32 89-30 116 4 19 24 21 40 21 161 0 129-1 135-25 158-30 31-73 32-109 4z"/>
     <path d="m42055 16128c-26-31-26-33-23-166 3-127 4-135 27-153 30-24 82-24 112 0 22 18 24 27 27 141 4 138 0 161-30 190-34 31-81 26-113-12z"/>
     <path d="m42516 16134c-25-26-26-29-26-161 0-129 1-135 25-158 46-47 124-25 141 39 3 13 4 77 2 141-3 114-4 117-31 141-37 32-77 31-111-2z"/>
     <path d="m42896 16139c-26-20-26-21-26-163 0-136 1-144 23-164 34-32 89-30 116 4 19 24 21 40 21 161 0 129-1 135-25 158-30 31-73 32-109 4z"/>
    </g>
   </g>
  </g>
 </g>
</svg>
