<svg xmlns="http://www.w3.org/2000/svg" height="586.16" width="622.147" xmlns:v="https://vecta.io/nano"><style><![CDATA[.B{fill:#ad58b2}.C{fill:#273e47}.D{fill:#17282f}.E{fill:#9b43a7}.F{fill:#33535f}.G{fill:#963a45}.H{fill:#f6879f}.I{fill:#ededeb}.J{fill:#b6b8b6}.K{fill:#893c9b}.L{fill:#17272d}.M{fill:#c171bf}.N{fill:#f47089}]]></style><path d="M530.313 285.206c121.873 68.846 122.514 180.47 1.435 249.318s-318.04 68.848-439.913.003C-30.048 465.675-30.7 354.05 90.392 285.202s318.037-68.848 439.922.004" fill="#f3f2f1"/><g fill="#e2e2e0"><path d="M227.5 444.092c2.093 1.2 2.104 3.165.032 4.37l-36.435 21.173c-2.072 1.204-5.45 1.204-7.543-.004l-36.665-21.17c-2.085-1.205-2.096-3.16-.025-4.365l36.436-21.173c2.072-1.204 5.45-1.204 7.535 0L227.5 444.09m71.23-41.468c2.093 1.208 2.104 3.165.032 4.368l-36.435 21.175c-2.072 1.204-5.45 1.204-7.543-.005l-36.667-21.168c-2.084-1.204-2.096-3.16-.024-4.364l36.436-21.175c2.072-1.204 5.45-1.204 7.535 0l36.665 21.17"/><path d="M55.925 438.5l18.4 10.78a7.37 7.37 0 0 0 7.385.012L416.128 256.56c1.96-1.132 1.965-3.963.008-5.1l-18.4-10.78a7.37 7.37 0 0 0-7.387-.011L55.93 433.4a2.95 2.95 0 0 0-.007 5.101M395.5 478.2c25.84 14.92 25.98 39.108.305 54.027s-67.433 14.92-93.274 0-25.98-39.1-.307-54.028 67.433-14.92 93.276.001m161.833-151.927c-25.173-14.533-65.85-14.533-90.857 0-15.828 9.197-21.57 22-17.283 33.864-18.02-1.804-37.188 1.297-51.045 9.35-22.652 13.163-22.53 34.504.27 47.668s59.64 13.163 82.3 0c13.333-7.748 18.768-18.33 16.34-28.408 21.075 2.96 44.195-.323 60.584-9.847 25.007-14.532 24.873-38.095-.297-52.628"/></g><g class="B"><path d="M227.043 439.114l-36.22-20.912c-2.085-1.204-5.463-1.204-7.535 0l-35.983 20.912h-2v2.444c.004.79.528 1.58 1.57 2.183l36.665 21.17c2.093 1.21 5.47 1.21 7.543.005l36.436-21.175c1.036-.603 1.55-1.392 1.545-2.183v-2.444h-2.025"/><path d="M227.5 436.926c2.093 1.21 2.104 3.165.032 4.37l-36.435 21.172c-2.072 1.206-5.45 1.206-7.543-.003l-36.665-21.17c-2.085-1.205-2.096-3.16-.025-4.365l36.436-21.173c2.072-1.204 5.45-1.204 7.535 0l36.665 21.168"/></g><path d="M187.328 463.372c-1.367 0-2.735-.303-3.783-.907l-36.665-21.17c-1.047-.605-1.57-1.4-1.572-2.192 0-.787.515-1.573 1.547-2.173l16.648-9.673-.312 1.095-1.903 8.185-.036.28-.097 1.26c.023 3.86 2.585 7.72 7.687 10.663s11.77 4.416 18.433 4.416c5.628 0 11.25-1.05 15.915-3.152.028-.012.043-.02.056-.025.837-.38 1.643-.792 2.412-1.24 5.048-2.933 7.568-6.773 7.565-10.617v-.045c0-1.795-.787-5.293-2.02-9.683h0l-.296-1.043 16.584 9.573c1.05.608 1.577 1.403 1.58 2.196.001.788-.515 1.575-1.547 2.175l-36.435 21.172c-1.035.603-2.396.904-3.76.904" fill="#b764b9"/><path d="M176.534 406.268c5.923 3.42 15.495 3.42 21.38 0 2.536-1.473 3.97-3.343 4.312-5.264l-2.924-8.15c-.32 1.505-1.46 2.96-3.447 4.117-4.755 2.763-12.49 2.763-17.275 0-2.003-1.157-3.168-2.613-3.503-4.12l-2.91 8.115c.35 1.936 1.8 3.82 4.368 5.3" class="B"/><path d="M178.58 396.97c4.785 2.763 12.52 2.763 17.275 0 1.988-1.157 3.128-2.612 3.447-4.117l-3.752-10.175h-16.72l-3.752 10.173c.335 1.505 1.5 2.96 3.503 4.12m-4.044 18.596c7.033 4.06 18.4 4.06 25.387 0 3.085-1.795 4.8-4.08 5.137-6.425l-2.836-8.137c-.34 1.92-1.776 3.8-4.312 5.264-5.884 3.42-15.456 3.42-21.38 0-2.57-1.483-4.017-3.365-4.368-5.3l-2.836 8.137c.36 2.357 2.083 4.66 5.207 6.463" class="I"/><path d="M172.54 425.78c8.144 4.7 21.304 4.7 29.393 0 3.847-2.236 5.824-5.132 5.997-8.06l-2.87-8.58c-.347 2.344-2.052 4.63-5.137 6.425-6.988 4.06-18.353 4.06-25.387 0-3.124-1.804-4.845-4.105-5.207-6.463l-2.885 8.63c.212 2.923 2.23 5.812 6.095 8.044m38.663 2.62c-.827 2.753-3.036 5.393-6.697 7.52-9.5 5.523-24.956 5.523-34.52 0-3.704-2.137-5.945-4.793-6.795-7.563-.948 3.377-1.637 6.233-1.903 8.185l-.036.28c-.057.473-.097.908-.097 1.26.023 3.86 2.585 7.72 7.687 10.663 10.2 5.9 26.683 5.9 36.816 0 5.068-2.944 7.587-6.804 7.565-10.663 0-1.795-.787-5.293-2.02-9.683" class="B"/><path d="M169.985 435.915c9.564 5.523 25.02 5.523 34.52 0 3.66-2.127 5.87-4.767 6.697-7.52-.895-3.185-2.027-6.84-3.272-10.675-.173 2.927-2.15 5.823-5.997 8.06-8.09 4.7-21.25 4.7-29.393 0-3.864-2.232-5.883-5.12-6.095-8.044-1.24 3.812-2.363 7.447-3.255 10.617.85 2.77 3.09 5.425 6.795 7.563" class="I"/><path d="M203.245 449.98l2.412-1.24c5.048-2.933 7.568-6.773 7.565-10.617.003 3.844-2.517 7.684-7.565 10.617-.77.447-1.575.86-2.412 1.24" fill="#a14cac"/><path d="M210.906 427.352h0l-2.947-9.543 2.947 9.543" fill="#babcba"/><path d="M211.202 428.395l-.296-1.043.296 1.043" fill="#a14cac"/><path d="M194.544 407.743l-2.44-9.287c1.363-.344 2.637-.84 3.75-1.485 1.988-1.157 3.128-2.612 3.447-4.117h0l2.924 8.15c-.34 1.92-1.776 3.79-4.312 5.264-1.024.596-2.16 1.087-3.37 1.475" class="E"/><path d="M192.105 398.456l-4.145-15.777h7.6l3.752 10.175c-.32 1.505-1.46 2.96-3.447 4.117-1.112.645-2.387 1.14-3.75 1.485m4.86 18.5l-2.42-9.212c1.2-.388 2.345-.88 3.37-1.475 2.536-1.473 3.97-3.343 4.312-5.264h0l2.836 8.137c-.347 2.344-2.052 4.63-5.137 6.425-.917.532-1.9.996-2.96 1.388" class="J"/><path d="M199.6 426.952l-2.625-9.997c1.048-.392 2.04-.856 2.96-1.388 3.085-1.795 4.8-4.08 5.137-6.425h0l2.87 8.58c-.173 2.927-2.15 5.823-5.997 8.06-.74.43-1.524.82-2.343 1.173m-2.47 25.08c1.44-.707 2.732-1.64 3.7-2.93 2.527-3.333 2.245-7.777 1.35-12.003a24.93 24.93 0 0 0 2.312-1.185c3.66-2.127 5.87-4.767 6.697-7.52h0c1.233 4.4 2.02 7.888 2.02 9.683v.045c.003 3.844-2.517 7.684-7.565 10.617a27.33 27.33 0 0 1-2.412 1.24c-.015.007-.028.013-.04.02-1.9.855-3.94 1.53-6.072 2.036" class="E"/><path d="M202.193 437.1l-.71-2.945-1.893-7.203c.82-.352 1.6-.743 2.343-1.173 3.847-2.236 5.824-5.132 5.997-8.06h0l.03.09 2.947 9.543.296 1.043c-.827 2.753-3.036 5.393-6.697 7.52a24.93 24.93 0 0 1-2.312 1.185" class="J"/><g class="B"><path d="M193.273 380.386c3.38 1.953 3.4 5.12.04 7.072s-8.827 1.952-12.208 0-3.4-5.12-.04-7.072 8.825-1.953 12.208 0m105.012 17.256l-36.22-20.9c-2.085-1.205-5.463-1.205-7.535 0l-35.984 20.9h-2v2.445c.004.8.528 1.58 1.57 2.183l36.667 21.17c2.093 1.208 5.47 1.208 7.543.004l36.435-21.173c1.036-.6 1.55-1.392 1.547-2.183v-2.445h-2.025"/><path d="M298.73 395.456c2.093 1.208 2.104 3.165.032 4.368L262.33 421c-2.072 1.204-5.45 1.204-7.543-.005l-36.667-21.168c-2.084-1.204-2.096-3.16-.024-4.364l36.436-21.175c2.072-1.204 5.45-1.204 7.535 0l36.665 21.17"/></g><path d="M258.57 421.902c-1.367 0-2.736-.303-3.784-.908l-36.667-21.168c-1.047-.604-1.57-1.4-1.57-2.192 0-.787.515-1.572 1.547-2.172l16.648-9.675-.312 1.095-1.903 8.187-.037.28-.096 1.257c.02 3.86 2.585 7.72 7.685 10.663s11.77 4.417 18.433 4.417 13.317-1.472 18.384-4.417h0c5.047-2.932 7.567-6.773 7.565-10.617v-.045c0-1.795-.787-5.293-2.02-9.683h0l-.296-1.044 16.584 9.576c1.05.607 1.576 1.4 1.577 2.195.001.788-.513 1.575-1.545 2.173L262.33 421c-1.035.6-2.396.903-3.76.903" fill="#b764b9"/><path d="M247.774 364.8c5.924 3.42 15.495 3.42 21.38 0 2.536-1.475 3.97-3.343 4.31-5.267l-2.923-8.15c-.32 1.504-1.46 2.96-3.447 4.116-4.755 2.763-12.49 2.763-17.276 0-2.003-1.156-3.168-2.612-3.503-4.117l-2.91 8.115c.352 1.936 1.8 3.82 4.368 5.303" class="B"/><path d="M249.82 355.5c4.787 2.763 12.52 2.763 17.276 0 1.988-1.155 3.128-2.612 3.447-4.116L266.8 341.21h-16.72l-3.752 10.173c.335 1.505 1.5 2.96 3.503 4.117m-4.043 18.598c7.033 4.06 18.4 4.06 25.385 0 3.087-1.793 4.8-4.08 5.14-6.424l-2.837-8.14c-.34 1.924-1.775 3.792-4.3 5.267-5.885 3.42-15.456 3.42-21.38 0-2.568-1.484-4.016-3.367-4.368-5.303l-2.835 8.137c.36 2.357 2.083 4.66 5.207 6.463" class="I"/><path d="M243.78 384.3c8.143 4.7 21.303 4.7 29.393 0 3.845-2.235 5.823-5.13 5.997-8.06l-2.87-8.577c-.348 2.344-2.052 4.63-5.14 6.424-6.987 4.06-18.352 4.06-25.385 0-3.124-1.803-4.845-4.105-5.207-6.463l-2.885 8.63c.212 2.924 2.23 5.815 6.095 8.045m38.665 2.615c-.827 2.755-3.036 5.393-6.697 7.52-9.5 5.523-24.957 5.523-34.52 0-3.705-2.14-5.947-4.795-6.795-7.564-.95 3.376-1.637 6.235-1.903 8.187l-.037.28c-.057.47-.096.907-.096 1.257.02 3.86 2.585 7.72 7.685 10.663 10.2 5.9 26.684 5.9 36.817 0 5.067-2.944 7.587-6.803 7.565-10.663 0-1.795-.787-5.293-2.02-9.683" class="B"/><path d="M241.226 394.446c9.563 5.523 25.02 5.523 34.52 0 3.66-2.128 5.87-4.767 6.697-7.52-.895-3.185-2.027-6.84-3.272-10.675-.175 2.928-2.152 5.824-5.997 8.06-8.09 4.7-21.25 4.7-29.393 0-3.865-2.23-5.883-5.12-6.095-8.045-1.24 3.815-2.363 7.447-3.255 10.62.848 2.77 3.09 5.425 6.795 7.564" class="I"/><path d="M268.373 410.564c1.44-.708 2.73-1.643 3.7-2.932 2.528-3.332 2.247-7.777 1.35-12a25.45 25.45 0 0 0 2.313-1.185c3.66-2.128 5.87-4.767 6.697-7.52h0c1.233 4.4 2.02 7.888 2.02 9.683v.045c.001 3.844-2.52 7.685-7.565 10.617h0c-2.515 1.46-5.42 2.56-8.525 3.295m-2.588-44.293l-2.44-9.3c1.363-.344 2.64-.84 3.75-1.485 1.988-1.155 3.128-2.612 3.447-4.116h0l2.923 8.15c-.34 1.924-1.775 3.792-4.3 5.267-1.024.595-2.16 1.087-3.37 1.475" class="E"/><path d="M263.345 356.985L259.2 341.2h7.588l3.753 10.175c-.32 1.504-1.46 2.96-3.447 4.116-1.112.647-2.388 1.14-3.75 1.485m4.86 18.5l-2.42-9.212c1.2-.388 2.345-.88 3.37-1.475 2.536-1.475 3.97-3.343 4.3-5.267h0l2.837 8.14c-.348 2.344-2.052 4.63-5.14 6.424a19.51 19.51 0 0 1-2.959 1.389" class="J"/><path d="M270.83 385.482l-2.627-9.996a19.51 19.51 0 0 0 2.959-1.389c3.087-1.793 4.79-4.08 5.14-6.424h0l2.868 8.577c-.173 2.93-2.15 5.824-5.996 8.06a21.94 21.94 0 0 1-2.343 1.173" class="E"/><path d="M273.433 395.63l-.71-2.945-1.892-7.204a21.94 21.94 0 0 0 2.343-1.173c3.845-2.235 5.823-5.13 5.997-8.056 1.245 3.832 2.376 7.487 3.272 10.672-.827 2.755-3.036 5.393-6.697 7.52a25.45 25.45 0 0 1-2.313 1.185" class="J"/><path d="M264.513 338.915c3.383 1.952 3.4 5.12.04 7.07s-8.825 1.953-12.208 0-3.4-5.12-.04-7.07 8.827-1.952 12.208 0M41.05 360.1c-2.76-2.683-5.922-5.615-6.1-9.46-.15-3.427 2.4-6.62 5.597-7.835s6.9-.672 9.97.837 5.637 3.903 7.935 6.45c13.433 14.893 19.068 36.46 14.638 56.02-.293 1.292-.74 2.725-1.915 3.336-1.867.97-3.97-.776-5.227-2.464-2.74-3.68-4.8-7.86-6.078-12.267-1.08-3.728-.55-7.84-1.924-11.363-3.37-8.635-10.34-16.877-16.906-23.253" class="B"/><path d="M69.614 404.412h-.001a.74.74 0 0 1-.734-.748c.204-21.395-10.058-42.975-26.78-56.323a.74.74 0 1 1 .924-1.157C60.095 359.81 70.57 381.84 70.36 403.68a.74.74 0 0 1-.747.733" fill="#fff"/><path d="M60.272 433.83c-4.698 1.47-10.562.44-13.242-3.688-3.15-4.85-1.097-12.27-5.34-16.2-2.372-2.197-5.88-2.443-9.042-3.123s-6.67-2.456-7.115-5.66c-.59-4.252 4.646-7.728 3.946-11.963-.69-4.167-6.432-5.523-8.1-9.4-1.524-3.54 1.25-7.79 4.883-9.075s7.667-.352 11.27 1.015 7.105 3.172 10.925 3.672c3.97.52 8.58-.225 11.482 2.533 3.878 3.687 1.59 10.637 4.576 15.076 2 2.97 5.808 4.028 8.7 6.125 3.624 2.62 5.83 7.09 5.707 11.557-.135 4.857-2.718 8.344-6.406 11.112-3.92 2.943-7.427 6.505-12.255 8.017" class="B"/><path d="M56.08 434.464c-3.584 0-7.132-1.368-9.05-4.323-3.15-4.85-1.097-12.27-5.34-16.2-2.372-2.197-5.88-2.443-9.042-3.123s-6.67-2.456-7.115-5.66c-.03-.224-.046-.447-.047-.667-.008-3.693 4.06-6.843 4.057-10.51 0-.26-.02-.52-.065-.787-.69-4.167-6.432-5.523-8.1-9.4-.292-.677-.426-1.38-.427-2.085-.004-2.972 2.373-5.95 5.3-6.99 1.216-.43 2.477-.612 3.75-.612 2.534 0 5.122.717 7.52 1.627 3.603 1.365 7.105 3.172 10.925 3.672 3.97.52 8.58-.225 11.482 2.533 3.878 3.687 1.59 10.637 4.576 15.076.118.175.242.343.37.505l.097 34.047c-1.456.932-3 1.724-4.71 2.26-1.336.42-2.767.635-4.192.635" class="K"/><path d="M58.42 400.618l-.055-.075-2.175-2.993c-6.773-8.585-16.282-15.017-26.77-18.11-.4-.12-.805.108-.92.5a.74.74 0 0 0 .501.92c10.197 3.007 19.44 9.26 26.028 17.608.208.264.4.548.592.816-8.362-3.152-16.934-1.467-21.525 2.176a.74.74 0 0 0-.121 1.04c.145.184.36.28.575.28.164.001.33-.052.466-.16 4.545-3.6 13.88-5.153 22.307-.993 5.198 7.75 8.288 16.932 8.77 26.25a.74.74 0 0 0 .734.704l.045-.001a.74.74 0 0 0 .701-.779c-.503-9.66-3.73-19.172-9.155-27.184" fill="#fff"/><path d="M579.705 304.522c2.11-2.048 4.523-4.285 4.65-7.223.113-2.616-1.824-5.056-4.275-5.983s-5.26-.512-7.612.64-4.305 2.98-6.06 4.924c-10.26 11.37-14.56 27.84-11.177 42.775.224.987.564 2.08 1.463 2.547 1.425.743 3.03-.592 3.99-1.88 2.092-2.81 3.665-6.003 4.64-9.367.825-2.847.42-5.984 1.47-8.676 2.572-6.593 7.896-12.887 12.908-17.756" class="B"/><path d="M557.896 338.35h.001c.312-.003.563-.26.56-.57-.155-16.336 7.68-32.815 20.448-43.008.244-.193.284-.55.09-.795s-.55-.283-.795-.09c-13.035 10.404-21.032 27.227-20.875 43.903.003.312.26.563.57.56" fill="#fff"/><path d="M565.03 360.813c3.588 1.123 8.065.337 10.112-2.816 2.404-3.704.837-9.368 4.076-12.37 1.812-1.68 4.49-1.865 6.904-2.384s5.093-1.876 5.433-4.323c.452-3.245-3.548-5.9-3.013-9.133.527-3.18 4.912-4.216 6.187-7.18 1.163-2.7-.956-5.947-3.73-6.928s-5.853-.27-8.605.775-5.424 2.42-8.343 2.803c-3.032.397-6.55-.172-8.767 1.936-2.96 2.815-1.213 8.123-3.495 11.51-1.528 2.268-4.435 3.076-6.65 4.677-2.767 2-4.453 5.413-4.36 8.825.103 3.71 2.076 6.372 4.892 8.487 2.992 2.245 5.67 4.965 9.357 6.12" class="B"/><path d="M568.23 361.297a10.76 10.76 0 0 1-3.2-.484c-.817-.256-1.585-.588-2.317-.976-.445-4.96-1.76-14.84-3.196-25.025.884-.57 1.683-1.23 2.273-2.108 2.28-3.388.533-8.696 3.495-11.51 2.216-2.108 5.735-1.54 8.767-1.936 2.92-.38 5.592-1.76 8.343-2.803 1.83-.695 3.805-1.243 5.74-1.243.973 0 1.937.14 2.865.468 2.243.793 4.057 3.067 4.055 5.336 0 .537-.103 1.075-.325 1.592-1.275 2.963-5.66 3.997-6.187 7.18-.033.2-.05.4-.05.6-.003 2.8 3.105 5.205 3.1 8.025 0 .168-.012.337-.036.508-.34 2.447-3.017 3.804-5.433 4.323s-5.092.705-6.904 2.384c-3.24 3.003-1.672 8.667-4.076 12.37-1.465 2.257-4.173 3.3-6.912 3.3m-9.517-4.193l-3.04-2.41c-2.816-2.115-4.79-4.777-4.892-8.487l-.004-.28a10.74 10.74 0 0 1 4.224-8.444l3.712 19.62" class="K"/><path d="M566.444 335.453l.04-.057 1.663-2.285c5.17-6.556 12.432-11.468 20.44-13.828a.56.56 0 0 1 .703.383c.087.3-.084.615-.383.7-7.787 2.297-14.845 7.072-19.875 13.444-.16.203-.297.42-.452.624 6.385-2.407 12.93-1.12 16.436 1.66.244.195.287.55.092.795-.11.14-.275.213-.44.215a.56.56 0 0 1-.356-.123c-3.47-2.75-10.597-3.936-17.033-.76-3.968 5.916-6.328 12.928-6.696 20.045-.016.3-.264.535-.56.536h-.035c-.312-.017-.552-.283-.535-.595.383-7.376 2.85-14.64 6.99-20.757" fill="#fff"/><path d="M411.603 23.263L75.278 217.44l-10.92-6.345.628 221.738c.006 1.732.617 2.95 1.6 3.52l10.92 6.345c-.134-.077-.243-.197-.364-.3 1.01.857 2.54.915 4.27-.084L406.75 254.485c3.036-1.753 5.492-5.995 5.48-9.484l-.628-221.738" fill="#fafaf9"/><path d="M406.123 16.944a4.38 4.38 0 0 0-.08-.835l-.075-.23c-.044-.157-.084-.32-.148-.455l-.137-.215-.215-.327a1.82 1.82 0 0 0-.467-.376 1.85 1.85 0 0 0-.556-.204l-.017-.003a2.18 2.18 0 0 0-.63-.028l-.007-.001c-.455.044-.955.2-1.48.513-.787.455-1.517 1.15-2.12 1.968l-.025.04-.327.497-.2.307-.005.007-.01.017-.157.312-.18.352-.113.223-.01.023-.053.143-.276.75-.016.04a6.48 6.48 0 0 0-.293 1.87c.008 2.4 1.715 3.383 3.8 2.17s3.793-4.147 3.787-6.557m-11.585 5.807c-.103-.5-.3-.92-.575-1.228a1.88 1.88 0 0 0-.467-.376 1.9 1.9 0 0 0-.556-.204l-.017-.003a2.23 2.23 0 0 0-.608-.025l-.028-.003-.03.008a2.94 2.94 0 0 0-.68.15h-.003a4.42 4.42 0 0 0-.765.353c-2.1 1.212-3.793 4.137-3.787 6.548.001.6.1 1.115.303 1.525a1.93 1.93 0 0 0 2.03 1.156 3.01 3.01 0 0 0 .713-.157 4.21 4.21 0 0 0 .765-.353 5.82 5.82 0 0 0 .764-.531 7.09 7.09 0 0 0 .713-.665c1.135-1.208 1.985-2.87 2.233-4.437a5.79 5.79 0 0 0 .075-.924c0-.3-.027-.58-.08-.835m-11.592 6.405c-.043-.153-.08-.3-.14-.443l-.001-.004-.14-.212-.2-.32-.196-.16-.272-.22a1.88 1.88 0 0 0-.556-.205l-.016-.003c-.2-.04-.408-.048-.63-.028l-.033.007a3.14 3.14 0 0 0-.68.15l-.07.033a4.23 4.23 0 0 0-.696.321c-.2.113-.387.256-.576.4l-.14.097-.05.035-.17.157-.053.05-.425.396-.127.135-.3.363-.237.284-.016.02-.027.033c-1.008 1.364-1.67 3.073-1.664 4.58.007 2.4 1.713 3.383 3.8 2.172.525-.303 1.024-.713 1.477-1.196a8.89 8.89 0 0 0 1.2-1.631 8.82 8.82 0 0 0 .808-1.856c.2-.633.293-1.268.292-1.87-.001-.3-.028-.577-.08-.832l-.08-.245" class="B"/><path d="M409.186 6.42l.02.005.312.117zm-.923-.05l.01-.001.33.017zm-.976.205l.005-.001.27-.06zm-4.95 16.927c-2.096 1.212-3.803.24-3.81-2.17-.001-.603.103-1.237.293-1.87l.016-.04.276-.75.053-.143.01-.024.112-.22.18-.352.156-.31.012-.02.004-.007.2-.307.352-.536c.604-.82 1.335-1.513 2.12-1.968.524-.303 1.024-.47 1.48-.513l.007.001c.22-.02.43-.01.628.028l.02.003c.2.04.385.108.555.204a1.82 1.82 0 0 1 .467.376l.005.007.208.32.14.217c.064.135.104.296.147.45l.076.233a4.38 4.38 0 0 1 .08.835c.007 2.41-1.69 5.348-3.787 6.557zm-7.793 1.01c-.248 1.567-1.1 3.23-2.233 4.437a7.09 7.09 0 0 1-.713.665 5.82 5.82 0 0 1-.764.531c-.26.152-.517.27-.765.353s-.485.136-.713.157c-.91.083-1.64-.333-2.03-1.156-.193-.41-.3-.924-.303-1.525-.007-2.41 1.688-5.336 3.787-6.548.26-.15.517-.268.765-.353h.003c.236-.08.46-.13.68-.15l.03-.008.028.003c.213-.02.416-.01.608.025l.017.003c.2.04.385.108.556.204a1.88 1.88 0 0 1 .467.376c.275.307.472.72.575 1.228.053.255.08.533.08.835a5.79 5.79 0 0 1-.075.924zm-11.73 7.593a8.82 8.82 0 0 1-.808 1.856 8.89 8.89 0 0 1-1.2 1.631c-.453.483-.952.893-1.477 1.196-2.096 1.21-3.803.237-3.81-2.172-.005-1.505.656-3.215 1.664-4.58l.027-.033.016-.02.237-.284.243-.292.06-.07.127-.136.095-.088.33-.308.053-.05.17-.16.05-.035.14-.097.57-.395.007-.004.003-.001c.236-.137.467-.24.692-.32l.072-.033c.236-.08.46-.127.68-.15l.036-.007a2.23 2.23 0 0 1 .629.028l.016.003a1.88 1.88 0 0 1 .556.205h0l.268.217.2.165.207.316.14.217.001.004c.06.13.097.285.14.435l.08.253c.05.255.077.532.08.832.001.603-.103 1.237-.292 1.87zm-307.4 170.868v-.001c.056-.324.138-.65.226-.977l-.227.98zM411.602 10.25c-.004-1.74-.62-2.96-1.615-3.53l.01.004L399.048.36l-.276-.136-.29-.103-.197-.045-.044-.01-.068-.016-.332-.04a3.01 3.01 0 0 0-.364-.003l-.2.02-.21.02a4.17 4.17 0 0 0-.483.103l-.212.072-.19.067-.245.084a6.46 6.46 0 0 0-.769.384L69.83 188.593c-.353.204-.696.448-1.03.715l-.317.28-.482.423-.21.225-.182.193-.206.22-.445.543-.366.497-.32.475-.284.465-.024.043-.023.04-.21.38-.237.468-.198.435-.01.02-.01.023-.202.495-.186.52-.17.56-.155.632-.1.58-.03.183c-.047.364-.07.724-.07 1.076l.038 13.367 10.92 6.347L411.642 23.617l-.04-13.367" class="C"/><path d="M76.888 442.514c-.113-.13-.198-.296-.293-.45-.07-.112-.154-.204-.214-.33-.09-.19-.145-.42-.208-.643-.034-.12-.087-.224-.114-.353-.073-.37-.113-.77-.115-1.205l-.63-221.738-10.92-6.347.628 221.74c.005 1.732.617 2.95 1.6 3.52l10.92 6.347c-.135-.08-.243-.197-.364-.3l-.294-.24" fill="#e7e8e5"/><path d="M75.278 204.428a8.44 8.44 0 0 1 .102-1.259l.034-.197v-.001c.056-.324.138-.65.226-.977l.052-.223.034-.11c.134-.436.292-.872.48-1.3l.01-.02c.127-.29.28-.568.43-.85l.22-.436.02-.037h.001a13.12 13.12 0 0 1 .766-1.173l.076-.104c.254-.34.523-.66.804-.967l.18-.192h.001c.15-.157.3-.297.47-.44l.224-.21.317-.28c.334-.265.677-.51 1.03-.713l-10.92-6.347c-.353.204-.696.448-1.03.715l-.317.28-.482.423-.21.225-.182.193-.206.22-.445.543-.366.497-.32.475-.284.465-.024.043-.023.04-.21.38-.237.468-.198.435-.01.02-.01.023-.202.495-.186.52-.17.56-.155.632-.1.58-.03.183c-.047.364-.07.724-.07 1.076l.038 13.367 10.92 6.347-.038-13.368" class="D"/><path d="M406.086 7.107a6.09 6.09 0 0 1 1.201-.532l.005-.001.27-.06c.24-.06.477-.127.7-.145l.01-.001.33.017c.197.003.4-.004.58.033l.02.005.312.117c.16.056.327.096.47.18l.01.004L399.048.36l-.276-.136-.3-.103-.24-.055-.068-.016-.332-.04a3.01 3.01 0 0 0-.364-.003l-.2.02-.2.02a4.17 4.17 0 0 0-.483.103l-.212.072-.2.067-.245.084a6.46 6.46 0 0 0-.769.384L69.83 188.593l10.92 6.347L406.086 7.107m-67.014 246.94c.465-.27.832-.06.833.475.001.523-.364 1.167-.828 1.435s-.832.048-.833-.475c-.003-.535.363-1.167.828-1.435m-.01-2.886c.465-.27.832-.05.835.485.001.523-.363 1.167-.828 1.435s-.833.048-.835-.475c-.001-.535.363-1.177.828-1.445m-.02-6.958c.465-.268.832-.06.833.475a1.82 1.82 0 0 1-.828 1.435c-.465.268-.832.048-.833-.475-.001-.533.364-1.165.828-1.435m-.007-2.886c.464-.268.832-.048.833.487.001.523-.364 1.167-.83 1.435s-.832.047-.833-.476c-.001-.535.364-1.177.83-1.445m-.05-16.8c.465-.268.832-.06.835.475.001.524-.363 1.167-.828 1.435s-.833.048-.835-.475a1.81 1.81 0 0 1 .828-1.435m-.007-2.886c.464-.268.832-.048.833.485.001.524-.364 1.167-.83 1.436s-.832.047-.833-.476c-.001-.533.364-1.177.83-1.445m-.02-6.958c.465-.268.832-.06.833.476a1.83 1.83 0 0 1-.828 1.435c-.465.268-.832.048-.833-.475a1.81 1.81 0 0 1 .828-1.436m-.008-2.887c.465-.268.832-.048.833.487.001.523-.363 1.167-.828 1.435s-.832.048-.833-.476c-.003-.533.363-1.176.828-1.445m-.022-6.97c.465-.268.833-.047.835.487.001.523-.363 1.167-.828 1.435s-.832.048-.835-.475c-.001-.535.364-1.177.828-1.447m-.006-2.875c.464-.27.832-.048.833.485.001.523-.364 1.167-.83 1.435s-.832.048-.833-.475c-.001-.535.364-1.177.83-1.445m-.048-16.812c.465-.268.832-.048.833.487a1.83 1.83 0 0 1-.828 1.435c-.465.27-.832.048-.833-.475-.003-.535.364-1.18.828-1.447m-.008-2.876c.464-.268.832-.047.835.476.001.533-.364 1.177-.83 1.445s-.833.048-.835-.487c-.001-.523.364-1.165.83-1.435m-.02-6.967c.465-.268.832-.047.833.488a1.82 1.82 0 0 1-.828 1.433c-.464.268-.832.048-.833-.475a1.83 1.83 0 0 1 .828-1.447m-.008-2.873c.465-.27.832-.048.833.475a1.83 1.83 0 0 1-.828 1.447c-.465.268-.832.047-.833-.487-.001-.523.363-1.167.828-1.435m-.048-16.812c.465-.268.832-.047.835.487a1.83 1.83 0 0 1-.828 1.435c-.467.268-.833.048-.835-.475a1.83 1.83 0 0 1 .828-1.447m-.008-2.876c.465-.268.832-.047.833.476a1.83 1.83 0 0 1-.828 1.445c-.465.268-.832.048-.833-.485a1.83 1.83 0 0 1 .828-1.436m-.02-6.967c.465-.268.832-.048.833.487a1.82 1.82 0 0 1-.828 1.433c-.464.27-.832.048-.833-.475-.001-.535.364-1.177.828-1.445m-.006-2.877c.464-.27.832-.048.833.475a1.83 1.83 0 0 1-.829 1.447c-.464.268-.832.048-.833-.487a1.82 1.82 0 0 1 .83-1.435m-.023-7.263c.465-.268.832-.047.833.476.001.535-.364 1.177-.828 1.445s-.832.048-.833-.485c-.001-.524.363-1.167.828-1.436m-.008-2.875c.465-.27.832-.06.833.475s-.363 1.167-.828 1.435-.832.06-.835-.475a1.8 1.8 0 0 1 .83-1.435m-.056-19.687c.465-.268.832-.06.833.476.001.523-.363 1.167-.828 1.435s-.832.048-.833-.476c-.003-.533.363-1.167.828-1.435m-.028-9.845c.464-.268.832-.057.833.476a1.82 1.82 0 0 1-.83 1.435c-.466.268-.832.048-.833-.475 0-.535.364-1.167.83-1.436m.006 2.878c.467-.27.833-.048.835.475a1.81 1.81 0 0 1-.828 1.435c-.465.27-.832.06-.835-.475-.001-.523.364-1.167.828-1.435m.03 9.842c.465-.268.832-.048.833.476.001.533-.364 1.176-.828 1.445s-.832.048-.833-.485c-.001-.524.363-1.167.828-1.436" class="F"/><path d="M383.34 225.118l.016 5.764-35.58 20.543-.016-5.763 35.58-20.544m-11.434-3.258l.016 5.76-24.176 13.96-.016-5.763 24.176-13.957M383.2 175.9l.016 5.752-8.112 4.683-.015-5.752 8.1-4.683m-3.377 21.67l.017 5.75-32.15 18.56-.016-5.75 32.148-18.56m-8.027-15.084l.017 5.752-24.177 13.957-.016-5.752 24.176-13.957m15.308-38.416l.016 5.752-26.5 15.3-.017-5.752 26.5-15.3m-5.373 12.96l.017 5.752-34.167 19.727-.017-5.752 34.167-19.727m-25.865 5.075l.016 5.752-8.33 4.8-.015-5.752 8.328-4.8m28.712-36.305l.016 5.75-24.028 13.873-.017-5.752 24.03-13.872m-28.768 16.62l.016 5.75-8.33 4.8-.015-5.752 8.328-4.808m33.824-29.386l.016 5.75-42.18 24.353-.017-5.752 42.18-24.352m-7.734-5.7l.016 5.763-34.473 19.903-.016-5.763 34.473-19.903m3.733-21.874l.016 5.763-26.867 15.512-.017-5.763 26.868-15.512m-29.933 17.28l.016 5.763-8.33 4.8-.016-5.763 8.33-4.8m15.82-18.992l.017 5.763-24.176 13.96-.017-5.764 24.176-13.957m15.698 99.697l.017 5.75-39.568 22.845-.016-5.752 39.567-22.844M258.343 202.9l.016 5.343-18.072 10.435-.016-5.343 18.072-10.435m-.043-18.902l.016 5.343L232.2 204.4l-.015-5.343 26.104-15.07m.028 9.446l.016 5.353-36.184 20.9-.016-5.353 36.184-20.9m-94.797 144.65l.012 4.285-48.906 28.236-.01-4.285 48.906-28.236m87.76-29.323l.01 4.297-48.915 28.24-.012-4.296 48.916-28.243m.02 6.982l.013 4.285-48.916 28.24-.012-4.285 48.915-28.24m-.08-28.3l.012 4.285-48.916 28.24-.01-4.284 48.915-28.243m-.02-6.978l.01 4.296L202.3 313l-.012-4.297 48.916-28.24m-.062-21.315l.012 4.285-48.916 28.24-.012-4.285 48.916-28.24m-.02-6.98l.01 4.285-48.915 28.24-.013-4.285 48.917-28.24m-19.952-24.125l.015 5.34-22.257 12.85-.015-5.343 22.257-12.85M163.6 366.375l.012 4.285-48.905 28.236-.012-4.285 48.905-28.236m-.02-6.978l.012 4.297-48.906 28.235-.01-4.296 48.905-28.236m71.774-143.235l.016 5.343-40.3 23.267-.015-5.343 40.3-23.267M163.5 331.105l.012 4.297-48.905 28.236-.012-4.297 48.905-28.236m61.543-127.923l.016 5.343-33.83 19.53-.015-5.34 33.83-19.532m-21.078 40.575l.015 5.34-39.568 22.845-.015-5.343 39.568-22.844m-40.526 66.037l.012 4.285-48.906 28.235-.01-4.285 48.906-28.235m-.022-6.98l.012 4.285-48.906 28.236-.013-4.285 48.906-28.236m22.463-77.02l.015 5.343-21.564 12.45-.016-5.343 21.565-12.45m4.742 16.195l.016 5.343-26.253 15.157-.015-5.343 26.252-15.157m25.276-24.072l.016 5.355-51.567 29.772-.016-5.353 51.567-29.773m-2.165-22.687l.02 7.16-49.46 28.556-.02-7.16 49.46-28.555" fill="#e2e2e0"/><g class="B"><path d="M330.08 255.867l.016 5.763L306 275.537l-.016-5.763 24.087-13.907m-10.84-3.595l.016 5.763-13.265 7.66-.016-5.763 13.265-7.66m-17.955 20.226l.016 5.763-15.72 9.075-.016-5.763 15.72-9.075m28.722-46.16l.016 5.75-24.087 13.908-.016-5.752 24.087-13.907m-28.75 36.318l.016 5.763-15.717 9.076-.017-5.764 15.72-9.075m28.72-46.16l.016 5.752-44.523 25.705-.016-5.752 44.523-25.705m-.085-29.53l.017 5.75-24.087 13.907-.017-5.752 24.087-13.905m-8.195 24.45l.016 5.752-36.273 20.943-.016-5.752 36.273-20.943m8.168-34.293l.015 5.752-24.085 13.905-.017-5.75 24.088-13.907m-6.24-16.118l.016 5.75-9.664 5.58-.016-5.75 9.664-5.58m-22.54 42.592l.016 5.75-15.72 9.075-.016-5.75 15.72-9.075m-.027-9.844l.016 5.75-15.72 9.076-.016-5.752 15.72-9.075"/><path d="M309.7 169.044l.016 5.75-24.413 14.096-.016-5.752 24.413-14.095m4.236-12.305l.017 5.752-28.677 16.556-.016-5.752 28.676-16.556m15.774-38.986l.015 5.763-24.085 13.907-.017-5.763 24.088-13.907m-4.536 22.33l.017 5.764-39.944 23.06-.016-5.763 39.943-23.063"/><path d="M329.66 107.9l.017 5.763-24.087 13.905-.017-5.763L329.66 107.9m-28.777 26.472l.016 5.763-15.717 9.076-.016-5.763 15.717-9.076m-.028-9.842l.016 5.763-15.717 9.075-.016-5.763 15.717-9.075m.335 118.428l.016 5.752-15.717 9.075-.016-5.752 15.717-9.075"/><path d="M397.947 240.377l-.533-188.16c-.004-1.4-.996-1.953-2.204-1.256l-115.873 66.9c-1.217.703-2.203 2.4-2.2 3.797l.533 188.162c.004 1.387.996 1.952 2.212 1.25l115.874-66.9c1.207-.696 2.193-2.404 2.2-3.8m-2.744-191.94c2.424-1.4 4.397-.273 4.405 2.5l.535 188.162c.007 2.785-1.955 6.184-4.38 7.583l-115.873 66.9c-2.424 1.4-4.4.28-4.416-2.505l-.533-188.162c-.01-2.784 1.963-6.188 4.387-7.588L395.2 48.44M191.664 314.846c2.7-1.565 4.913-.3 4.923 2.804.008 3.103-2.18 6.895-4.9 8.46-2.7 1.56-4.904.304-4.913-2.8-.008-3.115 2.18-6.905 4.88-8.464m65.13 5.704l-.053-18.62-75.376 43.52.053 18.62 75.376-43.52m-76.53 24.26l77.572-44.787.06 21.153-77.572 44.787-.06-21.153m76.45-52.552l-.053-18.63-75.376 43.52.053 18.63 75.376-43.52m-76.53 24.263l77.572-44.788.06 21.153-77.572 44.787-.06-21.152"/><path d="M256.635 263.967l-.053-18.63-75.377 43.52.053 18.63 75.377-43.52m-76.532 24.26l77.573-44.787.06 21.153-77.573 44.787-.06-21.153m11.48-1.673c2.7-1.565 4.913-.3 4.92 2.805.01 3.103-2.18 6.893-4.9 8.46-2.7 1.56-4.904.304-4.913-2.8-.008-3.115 2.18-6.907 4.88-8.465m-22.568 56.34l-.052-18.63-75.366 43.513.053 18.63 75.366-43.513m-76.53 24.26l77.573-44.787.06 21.155-77.573 44.785-.06-21.153m76.6 4.032l-.053-18.62-75.366 43.512.053 18.617 75.367-43.5m-76.53 24.26l77.572-44.787.06 21.153-77.574 44.79-.06-21.153"/><path d="M103.97 365.474c2.7-1.56 4.904-.304 4.913 2.8.008 3.104-2.18 6.895-4.88 8.455s-4.913.308-4.923-2.795c-.008-3.115 2.18-6.907 4.9-8.47m-.08-28.29c2.7-1.56 4.904-.304 4.912 2.8.01 3.103-2.18 6.893-4.88 8.453s-4.914.308-4.922-2.795c-.01-3.115 2.18-6.904 4.9-8.47m65.043-22.58l-.052-18.63-75.367 43.513.053 18.63 75.366-43.513m-76.53 24.26l77.573-44.785.06 21.153-77.573 44.787-.06-21.155M258.42 229.408l.01 3.388-165.5 95.552-.01-3.387 165.5-95.553"/><path d="M123.395 251.622c1.622-.936 2.934-3.208 2.93-5.072s-1.325-2.616-2.947-1.68-2.934 3.208-2.93 5.073 1.326 2.615 2.947 1.68m-.026-9.275c2.84-1.64 5.15-.32 5.16 2.93s-2.3 7.23-5.128 8.87c-2.83 1.632-5.14.315-5.15-2.936s2.3-7.23 5.117-8.863m30.054-2.68l-.073-25.812-58.45 33.747.116 40.737 13.734-23.8 13.695 7.793 21.86-37.872 9.12 5.196m.117 41.34l-.107-37.77-9.12-5.187-21.86 37.86-13.695-7.793-13.734 23.8.064 22.847 58.45-33.747m-60.844-34.675l62.843-36.283.205 72.213L92.9 318.55l-.204-72.212M238.07 163.68l.035 12.24-73.844 42.633-.033-12.24 73.842-42.633m16.757-34.198c1.83-1.057 3.308-.215 3.315 1.877l.02 7.06c.005 2.092-1.464 4.636-3.293 5.692L95.965 235.854c-1.82 1.05-3.3.208-3.305-1.883l-.02-7.06c-.006-2.092 1.463-4.636 3.283-5.688l158.904-91.742M104.05 393.764c2.7-1.56 4.904-.303 4.913 2.812.01 3.103-2.18 6.895-4.88 8.452-2.7 1.565-4.914.3-4.922-2.792-.01-3.115 2.18-6.907 4.9-8.472m87.683-50.627c2.7-1.564 4.913-.3 4.923 2.805.008 3.103-2.18 6.895-4.9 8.46-2.7 1.56-4.904.304-4.912-2.8-.01-3.113 2.18-6.905 4.88-8.464"/></g><path d="M239.6 231.056l2.72-.756c-.453 2.347-1.367 4.773-2.616 7.095 1.667.323 2.964 1.645 3.616 3.755 1.353-.78 2.535-.364 3.16.917l2.07-1.824c1.303-1.152 2.404-2.73 3.095-4.457l2.927-7.317 2.412.264-2.925 7.317c-1.075 2.676-2.77 5.127-4.792 6.895l-2.305 2.03.013.692c.004 1.212-.067 2.44-.176 3.644l10.648-6.148.01 3.223-11.144 6.435a40.97 40.97 0 0 1-1.007 4.324l4-1.095c2.024-.57 3.728-.08 4.813 1.348l2.957 3.92-2.403 3.043-2.957-3.92c-.7-.925-1.805-1.23-3.1-.876l-4.545 1.253c-2.05 5.18-4.996 9.412-8.284 11.3s-6.25 1.08-8.3-1.73l-4.55 4c-1.303 1.152-2.404 2.73-3.095 4.457l-2.927 7.317-2.412-.264 2.927-7.317c1.073-2.676 2.77-5.127 4.8-6.895l3.993-3.52a16.85 16.85 0 0 1-1.029-3.149l-11.144 6.435-.01-3.223 10.648-6.148a33.16 33.16 0 0 1-.196-3.43c-.001-.228.01-.464.023-.713l-2.323.64c-2.025.57-3.73.083-4.815-1.348l-2.957-3.92 2.403-3.044 2.957 3.92c.7.925 1.807 1.228 3.1.875l2.087-.576c.604-2 1.78-3.77 3.144-4.557.64-2.855 1.924-5.667 3.57-7.904-1.245-.88-2.17-2.247-2.647-4.057l2.715-2.38c.403 1.54 1.213 2.684 2.347 3.316l.35.2c.408-.323.83-.623 1.252-.867a7.94 7.94 0 0 1 1.255-.58l.36-.608c1.127-1.936 1.928-4.012 2.308-6.003m-14.628-58.078l2.005-.557c-.335 1.73-1.007 3.52-1.928 5.23 1.228.24 2.184 1.213 2.665 2.768.997-.576 1.87-.268 2.33.677l1.527-1.345c.96-.85 1.772-2.013 2.283-3.287l2.156-5.395 1.78.195-2.156 5.395c-.792 1.975-2.043 3.78-3.533 5.083l-1.7 1.5.01.5c.003.893-.05 1.8-.13 2.687l7.85-4.532.007 2.376-8.217 4.744c-.2 1.088-.443 2.15-.743 3.187l2.95-.807c1.492-.42 2.75-.06 3.55.993l2.18 2.9-1.772 2.244-2.18-2.9c-.515-.683-1.33-.907-2.293-.645l-3.35.924c-1.5 3.82-3.683 6.94-6.108 8.34s-4.607.796-6.125-1.276l-3.355 2.948c-.96.85-1.772 2.012-2.283 3.287l-2.156 5.395-1.78-.196 2.156-5.393c.792-1.973 2.043-3.78 3.533-5.083l2.943-2.595a12.48 12.48 0 0 1-.757-2.321l-8.217 4.744-.005-2.377 7.85-4.532c-.084-.793-.14-1.635-.144-2.528-.001-.168.008-.34.017-.527l-1.713.473c-1.492.42-2.75.06-3.55-.993l-2.18-2.9 1.772-2.245 2.18 2.9c.515.683 1.33.905 2.293.645l1.537-.424c.445-1.468 1.312-2.78 2.32-3.36.47-2.104 1.42-4.177 2.632-5.825-.92-.65-1.6-1.657-1.952-2.992l2.003-1.756c.297 1.135.895 1.98 1.73 2.445l.256.145c.303-.236.613-.46.924-.64a6.03 6.03 0 0 1 .924-.428l.265-.447c.83-1.428 1.42-2.96 1.7-4.427M172.472 330.6l2.3-.64c-.383 1.987-1.156 4.04-2.213 6.005 1.4.273 2.508 1.393 3.06 3.18 1.144-.663 2.144-.3 2.673.776l1.753-1.544c1.1-.975 2.035-2.3 2.62-3.773l2.476-6.192 2.043.224-2.477 6.192c-.908 2.265-2.344 4.34-4.055 5.835l-1.95 1.72.01.587c.004 1.025-.057 2.064-.148 3.084l9.012-5.203.008 2.728-9.433 5.445a34.31 34.31 0 0 1-.852 3.66l3.385-.925c1.713-.483 3.156-.07 4.075 1.14l2.503 3.317-2.033 2.577-2.503-3.317c-.592-.783-1.528-1.04-2.633-.74l-3.847 1.06c-1.735 4.385-4.228 7.965-7.012 9.573s-5.3.913-7.032-1.465l-3.852 3.384c-1.1.973-2.035 2.3-2.62 3.773l-2.476 6.192-2.043-.223 2.476-6.193c.9-2.265 2.345-4.34 4.056-5.836l3.38-2.977a14.22 14.22 0 0 1-.87-2.665l-9.433 5.447-.007-2.728 9-5.204a28.25 28.25 0 0 1-.165-2.901c0-.195.01-.393.02-.604l-1.965.543c-1.713.48-3.156.07-4.075-1.143l-2.503-3.317 2.033-2.577 2.503 3.32c.592.783 1.53 1.04 2.633.74l1.765-.488c.5-1.684 1.507-3.2 2.66-3.857.54-2.416 1.628-4.796 3.023-6.7-1.055-.745-1.836-1.903-2.24-3.433l2.3-2.016c.34 1.303 1.027 2.272 1.985 2.807l.296.168c.347-.273.703-.527 1.06-.733a6.65 6.65 0 0 1 1.06-.49l.304-.515c.952-1.64 1.63-3.396 1.953-5.08M117.9 284.3l2.72-.756c-.453 2.347-1.367 4.773-2.615 7.095 1.667.323 2.963 1.647 3.616 3.755 1.353-.78 2.534-.364 3.16.92l2.07-1.824c1.3-1.152 2.404-2.73 3.095-4.46l2.926-7.317 2.412.265-2.926 7.317c-1.074 2.676-2.77 5.127-4.8 6.893l-2.306 2.032.014.7c.004 1.213-.068 2.44-.176 3.645l10.648-6.15.01 3.223-11.144 6.436a40.65 40.65 0 0 1-1.007 4.324l4-1.095c2.025-.57 3.73-.083 4.815 1.347l2.957 3.92-2.403 3.044-2.957-3.92c-.7-.924-1.806-1.227-3.1-.875l-4.546 1.253c-2.048 5.183-4.995 9.412-8.284 11.3s-6.25 1.08-8.3-1.73l-4.55 4c-1.302 1.152-2.404 2.73-3.095 4.46l-2.925 7.316-2.412-.264 2.925-7.316c1.074-2.677 2.77-5.128 4.792-6.895l3.992-3.52a16.87 16.87 0 0 1-1.028-3.148L92.3 324.718v-3.223l10.648-6.147c-.115-1.077-.193-2.217-.197-3.43-.001-.227.01-.463.023-.713l-2.322.643c-2.024.568-3.73.08-4.815-1.35l-2.957-3.92 2.403-3.045 2.957 3.92c.7.925 1.806 1.23 3.1.876l2.086-.577c.604-2 1.78-3.77 3.144-4.56.638-2.852 1.923-5.667 3.57-7.9-1.246-.88-2.17-2.248-2.647-4.057l2.716-2.38c.402 1.537 1.214 2.683 2.346 3.315l.35.2c.4-.32.83-.62 1.253-.865a8.05 8.05 0 0 1 1.254-.583l.36-.607c1.126-1.935 1.928-4.012 2.308-6.003m212.533-95.087l2.72-.756c-.453 2.347-1.367 4.773-2.616 7.095 1.667.323 2.963 1.645 3.616 3.755 1.352-.78 2.535-.364 3.16.917l2.07-1.823c1.303-1.153 2.405-2.732 3.096-4.46l2.925-7.317 2.413.264-2.927 7.317c-1.073 2.676-2.77 5.127-4.8 6.893l-2.308 2.032.015.692c.004 1.212-.068 2.44-.176 3.644l10.648-6.148.01 3.223-11.144 6.435c-.26 1.477-.6 2.92-1.008 4.324l4-1.095c2.024-.57 3.73-.08 4.815 1.348l2.957 3.92-2.404 3.044-2.957-3.92c-.697-.924-1.805-1.228-3.1-.875l-4.547 1.253c-2.048 5.18-4.995 9.412-8.284 11.3s-6.25 1.08-8.308-1.73l-4.55 4c-1.303 1.152-2.404 2.73-3.096 4.46l-2.925 7.316-2.412-.264 2.925-7.317c1.073-2.677 2.77-5.127 4.792-6.895l3.992-3.52c-.413-.933-.764-1.973-1.03-3.15l-11.143 6.435-.01-3.223 10.65-6.148a33.22 33.22 0 0 1-.197-3.429c0-.228.012-.463.024-.713l-2.324.64c-2.024.57-3.728.083-4.813-1.348l-2.957-3.92 2.403-3.045 2.957 3.92c.7.925 1.805 1.228 3.1.875l2.085-.576c.604-2 1.78-3.77 3.145-4.557.64-2.855 1.923-5.667 3.57-7.904-1.245-.88-2.17-2.247-2.647-4.057l2.716-2.38c.403 1.54 1.213 2.684 2.347 3.316l.35.2a10.87 10.87 0 0 1 1.252-.867 8.03 8.03 0 0 1 1.255-.581l.36-.607c1.125-1.935 1.927-4.012 2.308-6.003M277.84 167.45l2.22-.616c-.37 1.915-1.115 3.893-2.133 5.785 1.36.264 2.417 1.343 2.95 3.063 1.104-.637 2.067-.296 2.577.75l1.688-1.488c1.063-.94 1.96-2.227 2.524-3.636l2.387-5.967 1.967.215-2.385 5.968c-.876 2.183-2.26 4.18-3.907 5.62l-1.883 1.657.013.564a32.49 32.49 0 0 1-.144 2.972l8.684-5.013.007 2.628-9.088 5.248a33.24 33.24 0 0 1-.821 3.525l3.26-.892c1.65-.465 3.04-.067 3.927 1.1l2.4 3.197-1.96 2.483-2.412-3.196c-.57-.755-1.472-1.003-2.536-.715l-3.708 1.02c-1.67 4.227-4.073 7.676-6.756 9.224s-5.097.88-6.776-1.4l-3.7 3.26c-1.06.94-1.96 2.227-2.524 3.636l-2.387 5.967-1.967-.216 2.385-5.967c.876-2.184 2.26-4.18 3.908-5.623l3.256-2.87a13.83 13.83 0 0 1-.84-2.567l-9.088 5.247-.008-2.628 8.684-5.013a27.02 27.02 0 0 1-.16-2.797c-.001-.187.01-.377.017-.58l-1.893.523c-1.65.464-3.04.067-3.927-1.1l-2.4-3.196 1.96-2.484 2.412 3.2c.57.753 1.472 1 2.536.713l1.703-.47c.492-1.624 1.45-3.073 2.564-3.716.52-2.328 1.568-4.623 2.912-6.447-1.016-.717-1.77-1.832-2.16-3.308l2.216-1.943c.328 1.256 1 2.2 1.913 2.705l.284.16a8.67 8.67 0 0 1 1.023-.707 6.52 6.52 0 0 1 1.02-.473l.293-.496c.917-1.577 1.572-3.272 1.88-4.896m35.737-64.7l2.72-.756c-.453 2.348-1.367 4.773-2.615 7.095 1.667.324 2.963 1.647 3.615 3.755 1.353-.78 2.535-.363 3.16.92l2.072-1.824c1.3-1.152 2.403-2.73 3.095-4.46l2.924-7.317 2.413.264-2.925 7.317c-1.073 2.677-2.77 5.128-4.8 6.895l-2.308 2.032.015.7a39.13 39.13 0 0 1-.176 3.645l10.65-6.148.008 3.223-11.144 6.433c-.256 1.477-.6 2.92-1.008 4.325l4-1.096c2.025-.568 3.73-.08 4.815 1.35l2.957 3.92-2.403 3.044-2.957-3.92c-.7-.925-1.807-1.23-3.1-.876l-4.547 1.253c-2.05 5.183-4.996 9.412-8.284 11.3s-6.25 1.08-8.3-1.73l-4.55 4c-1.3 1.152-2.404 2.73-3.095 4.46l-2.925 7.317-2.413-.265 2.925-7.316c1.075-2.677 2.77-5.128 4.792-6.895l3.992-3.52c-.412-.933-.764-1.973-1.028-3.15l-11.144 6.433-.01-3.223 10.648-6.147c-.115-1.077-.192-2.217-.196-3.43-.001-.228.01-.464.023-.713l-2.323.64c-2.024.568-3.73.08-4.815-1.35l-2.957-3.92 2.403-3.044 2.957 3.92c.7.925 1.807 1.23 3.1.876l2.087-.576c.604-1.992 1.78-3.77 3.144-4.56.64-2.853 1.924-5.667 3.57-7.903-1.245-.88-2.17-2.248-2.647-4.057l2.715-2.383c.403 1.54 1.215 2.685 2.347 3.316l.35.2c.4-.32.83-.62 1.252-.865a8.02 8.02 0 0 1 1.255-.581l.36-.607c1.127-1.936 1.928-4.013 2.308-6.004" class="F"/><path d="M512.527 282.225h6.512s7.565 49.684 8.088 59.208c-.001.247-.165.5-.5.68-.65.375-1.7.375-2.345 0-.285-.165-.42-.377-.453-.593h-.028c-.907-5.683-11.284-59.293-11.284-59.293m7.298 41.663h-6.512l-8.088 59.207c.001.247.165.492.5.68.65.375 1.7.375 2.345 0 .284-.165.42-.38.453-.595l.027.001c.908-5.684 11.285-59.293 11.285-59.293" class="C"/><path d="M518.505 330.723h0l.653-3.383-.653 3.383" fill="#949696"/><path d="M518.505 330.723a17.06 17.06 0 0 1-6.032-1.255l.64-4.247 6.047 2.12-.653 3.383" class="L"/><path d="M548.243 302.37h6.512s7.565 49.684 8.088 59.208c-.001.245-.164.492-.49.68-.65.376-1.7.376-2.344 0-.285-.165-.42-.377-.455-.595l-.027.001c-.908-5.684-11.285-59.293-11.285-59.293" class="C"/><path d="M549.845 310.666l-.31-1.604.31 1.604m5.75-2.72l-.557-3.704.557 3.704" fill="#9fa1a1"/><path d="M550.232 312.666l-.696-3.604 5.5-4.82.557 3.704c-1.037 2.237-3.297 4.673-5.363 4.72" class="L"/><path d="M481.288 301.687h-6.512l-8.088 59.207c.001.245.165.492.49.68.65.375 1.7.375 2.345 0 .284-.167.42-.38.453-.596l.027.001c.908-5.683 11.285-59.292 11.285-59.292" class="C"/><path d="M479.584 310.503l.61-3.15-.61 3.15m-5.65-3.24h0l.61-4.056-.61 4.056" fill="#9fa1a1"/><path d="M479.555 310.657c-2.067-.047-4.51-2.08-5.62-3.395l.61-4.056 5.647 4.148-.608 3.15-.03.153" class="L"/><path d="M552.476 258.234l-2.855 36.22 3.48 2.616 3.123-37.308-3.747-1.527m-36.72-20.735l-2.856 36.22 3.48 2.616 3.123-37.308-3.745-1.527" class="C"/><path d="M506.98 269.03s-21.768 6.123-38.54 22.25v6.603c3.093 3.708 26.644 22.053 51.383 29.665 16.535-7.612 32.896-20.4 35.717-23.877v-6.603c-6.22-12.16-48.56-28.037-48.56-28.037" class="B"/><path d="M519.825 327.55l-.667-.208-6.047-2.12c-12.673-4.868-24.55-12.013-32.92-17.868-2.123-1.485-4.02-2.888-5.647-4.148-3.165-2.453-5.308-4.37-6.103-5.323v-6.603c3.093 3.708 26.644 22.055 51.383 29.667v6.6" class="M"/><path d="M519.825 327.55v-6.6c16.535-7.612 32.896-20.4 35.717-23.88v6.603c-.136.17-.305.36-.505.57-1.056 1.12-2.965 2.808-5.5 4.82h0c-5.767 4.573-14.768 10.82-24.327 15.832-1.356.71-2.725 1.397-4.096 2.05l-1.288.604" class="E"/><path d="M564.255 250.8c-.007-.504-.13-1.013-.425-1.476-14.504-22.737-44.572-29.755-51.235-28.035l-3.116 3.15v16.3c23.193 2.952 43.087 18.07 51.115 29.736l1.07-.42c1.57-.617 2.6-2.133 2.6-3.82l-.008-15.436" class="B"/><path d="M560.593 270.477v-16.3l1.776-.637c1.19-.428 1.887-1.55 1.885-2.71v-.028l.008-.01v15.445c0 1.685-1.03 3.2-2.6 3.82l-1.07.42" fill="#a34dac"/><path d="M560.593 254.175l-.133-.285-.14-.287-.105-.213-.057-.116c-4.668-9.36-12.54-16.012-20.763-20.564-.35-1.74-.752-3.493-1.212-5.245 9.328 4.5 19.08 11.57 25.645 21.86.295.463.42.972.425 1.476v.028c.001 1.16-.695 2.28-1.885 2.71l-1.776.637" fill="#cc80c6"/><path d="M560.593 270.477c-1.295-1.88-2.9-3.855-4.777-5.852l-3.567-3.515c-3.11-2.85-6.732-5.673-10.76-8.277-.11-6.07-.667-13.007-2.095-20.123 8.22 4.552 16.096 11.205 20.755 20.547l.065.133.105.213.14.287.095.203c.013.028.027.055.04.083v16.3" class="K"/><path d="M487.975 235.16l-.22 15.233-25.455 18.08-7.54 3.175a12.84 12.84 0 0 0-6.593 6.275l-4.336 9.02c-.78 1.624.12 3.555 1.865 4a6.26 6.26 0 0 0 5.783-1.448l5.388-4.933 1.487-.525c4.35-1.54 8.128-4.372 10.823-8.12l29.837-11.587a11.42 11.42 0 0 0 6.895-13.609l-4.95-18.4-12.984 2.847m-49.65 131.11l-2.275 9.1-4.06 3.3-8.43-6.2 3.703-11.42 11.06 5.22" class="G"/><path d="M424.055 369.97c1.56.557 3.16.99 4.79 1.29 1 .184 1.853.84 2.224 1.788.51 1.303.856 2.628 1.04 4.063.396.17.86-.105 1.17-.404a6.85 6.85 0 0 0 1.06-1.3c.313-.5.783-.88 1.324-1.11l1.897-.8c-.77 1.892-.4 4.42-.105 6.443s.504 4.203-.476 5.995c-.27.49-.664.86-1.175 1.092s-1.07.32-1.607.48c-2.26.66-4.007 2.452-5.396 4.352s-2.545 3.99-4.193 5.67c-3.885 3.964-10.133 4.764-15.42 4.277-1.656-.152-3.33-.47-4.79-1.272s-2.683-2.148-3.024-3.776c-.487-2.317.9-4.68 2.74-6.172s4.097-2.348 6.193-3.455c4.05-2.14 7.564-5.293 10.123-9.095a8.65 8.65 0 0 0 1.393-3.647c.13-.928.283-2.068.356-3.163.063-.94.99-1.573 1.876-1.256" class="D"/><path d="M486.32 274.16l-35.547 20.83a24.27 24.27 0 0 0-11.224 14.863l-13.71 53.04c7.672 1.19 13.38 4.93 13.38 4.93 11.897-21.7 21.628-37.64 21.767-47.395l35.92-21.052-10.587-25.216" class="C"/><path d="M464.018 382.92l-2.275 9.1-4.06 3.3-8.43-6.2 3.7-11.42 11.06 5.22" class="G"/><path d="M486.32 274.16l10.587 25.216-21.184 11.85a24.26 24.26 0 0 0-11.224 14.861l-13.712 53.04c7.672 1.188 13.38 4.93 13.38 4.93 11.897-21.7 22.013-41.92 22.152-51.67l39.59-23.345a25.69 25.69 0 0 0 12.588-20.461l.864-13.26-53.043-1.16" class="C"/><path d="M449.747 386.622a30.54 30.54 0 0 0 4.791 1.289c1 .183 1.852.84 2.223 1.787.51 1.304.856 2.63 1.04 4.064.396.17.857-.105 1.17-.403.405-.388.763-.827 1.06-1.3.312-.5.78-.88 1.324-1.11l1.897-.8c-.77 1.892-.4 4.423-.107 6.443s.503 4.204-.476 5.993a2.48 2.48 0 0 1-1.175 1.093c-.51.232-1.07.32-1.608.48-2.26.66-4.007 2.452-5.396 4.352s-2.545 3.99-4.192 5.67c-3.885 3.964-10.135 4.764-15.42 4.28-1.656-.153-3.33-.472-4.787-1.273s-2.683-2.148-3.025-3.775c-.487-2.32.9-4.68 2.74-6.173s4.097-2.348 6.192-3.455a28.07 28.07 0 0 0 10.124-9.095c.736-1.093 1.212-2.34 1.395-3.647.13-.93.283-2.07.355-3.164.06-.937.99-1.572 1.876-1.255" class="D"/><g class="B"><path d="M500.81 211.417c-12.208-.125-15.44 4.937-13.54 34.197 3.663 1.54 7.683 1.223 9.635 0s3.905-34.197 3.905-34.197"/><path d="M540.2 273.33s-.237 4.043-9.753 9.277-27.047 4.364-44.13-8.445c5.115-8.445 5.353-22.48 3.807-41.847s7.256-21.67 15.408-20.897l14.77.787 12.807 1.373c12.92 26.565 7.092 59.752 7.092 59.752"/></g><path d="M520.04 197.956l-14.3 7.556v4.83c0 .375-.084.732-.208 1.075 3.084-.557 6.067-1.62 8.603-3.436 3.263-2.337 5.656-6.05 5.904-10.025" fill="#6e1e27"/><path d="M520.04 197.956c-.248 3.976-2.64 7.688-5.904 10.025-2.536 1.816-5.52 2.88-8.603 3.436-.16.44-.397.855-.687 1.237-.465.615-.663 1.533-.555 2.275.16 1.11 1.007 2.04 2.016 2.535s2.165.6 3.288.56c4.208-.148 8.293-2.37 10.707-5.82v-14.387l-.263.14" class="G"/><path d="M488.98 180.334c-2.024.068-4.064-.595-5.66-1.84a8.78 8.78 0 0 1-2.241-2.62c-.488-.868.316-1.9 1.296-1.72 1.107.204 2.26.22 3.34.036-2.564-3.337-3.707-7.656-3.108-11.788.143-.987 1.23-1.557 2.124-1.12 4.568 2.244 9.743 3.352 14.805 2.992 2.72-.193 5.403-.77 8.12-.976s5.557-.023 7.988 1.216 4.368 3.705 4.363 6.432c.643-.924 1.583-1.415 2.7-1.56s2.29.2 3.15.93l-4.684 2.597c1.612-.575 3.64.685 4.444 2.196s.843 3.3.864 5.01c.03 2.275.06 4.563-.305 6.808s-1.147 4.468-2.583 6.233c-1.207 1.484-2.857 2.603-4.684 3.173-2.46.77-5.15.536-7.605-.243s-4.713-2.075-6.896-3.443c-5.463-3.423-10.697-7.94-15.428-12.317" class="D"/><path d="M488.64 175.8c-1.576 9.36-.525 19.15 3.003 27.963.82 2.05 1.88 4.17 3.796 5.265 2.01 1.147 4.496.907 6.784.56 3.684-.555 7.396-1.312 10.71-3.012s6.23-4.457 7.415-7.99c2.437.583 4.984-.543 6.492-2.545s2.05-4.585 2.104-7.092c.036-1.604-.295-3.5-1.736-4.205-1.34-.657-2.95.08-4.11 1.02-1.897 1.537-3.313 3.66-4 6.005-1.06-3.908-2.71-7.68-3.77-11.588-.417-1.537-.932-3.213-2.273-4.072-1.64-1.05-3.78-.447-5.67.02-5.768 1.428-13.07 1.435-18.74-.332" class="G"/><path d="M500.033 187.665l-4.572 7.693 5.45 1.023zm5.844 11.607l-3.544 1.724c.516.804 1.815 1.155 2.688.763s1.116-1.565.856-2.487" fill="#6e1e27"/><path d="M507.924 187.97c.087.86-.54 1.628-1.4 1.715s-1.628-.54-1.715-1.4.54-1.627 1.4-1.713 1.628.54 1.715 1.4m-13.124.812c.087.86-.54 1.628-1.4 1.715s-1.628-.54-1.715-1.4.54-1.627 1.4-1.713 1.625.54 1.713 1.4m-2.138-6.048l-3.212 2.735c-.423-.784-.2-1.88.428-2.5s2-.647 2.784-.224m13.315-1.53l3.692 2.04c.26-.853-.177-1.884-.92-2.376s-2.088-.233-2.772.337m13.695 120.753c.012.172.001.344-.05.513l-.008.04a1.81 1.81 0 0 1-.2.4l-.024.043c-.093.135-.213.265-.352.392l-.02.02a3.22 3.22 0 0 1-.525.376L490.02 320.3c-.25.144-.528.26-.817.36l-.313.097-.413.103-.507.087-.12.016-.7.04h-.1l-.687-.037-.103-.012c-.227-.027-.448-.067-.665-.115l-.12-.03-.572-.175-.104-.035a4.61 4.61 0 0 1-.63-.297l-46.976-27.12c-.203-.117-.38-.244-.533-.376l-.133-.147-.248-.272-.1-.177-.137-.268-.076-.46v1.667l.044.264.032.195.137.267.1.177.38.42a3.39 3.39 0 0 0 .533.376l46.976 27.123a4.47 4.47 0 0 0 .629.296l.104.036a5.95 5.95 0 0 0 .572.175l.12.028c.217.05.44.088.665.115l.103.012.687.04.1-.001.7-.037.12-.017.507-.087.413-.103.313-.096c.3-.1.567-.215.817-.36l28.472-16.547a3.32 3.32 0 0 0 .525-.375l.02-.023c.14-.127.26-.257.352-.392l.024-.043a1.83 1.83 0 0 0 .2-.399l.008-.04c.036-.123.032-.25.035-.376l.028.004v-1.805l-.013-.003" class="D"/><path d="M436.04 291.93l.137.268.09.177.38.42c.153.132.33.26.533.376l46.976 27.12c.196.113.408.212.63.297l.104.035c.184.068.375.125.572.175l.12.03.665.115.103.012.687.037h.11l.7-.04.12-.016.507-.087.413-.103.313-.097c.29-.1.567-.215.817-.36l28.472-16.545a3.22 3.22 0 0 0 .525-.376l.02-.02c.14-.127.26-.257.352-.392l.024-.043a1.81 1.81 0 0 0 .2-.4l.008-.04c.05-.17.06-.34.05-.513-.04-.584-.436-1.16-1.208-1.607l-46.976-27.12c-1.62-.935-4.233-.935-5.843 0L437.17 289.78c-.807.468-1.208 1.08-1.208 1.69l.044.265.032.193" class="F"/><g class="D"><path d="M439.95 291.47l45.637 26.348.18.088.1.033c.085.03.173.06.356.104l.252.052.173.017a4.56 4.56 0 0 0 .444.023h.04c.14-.001.283-.008.467-.03l.3-.053.37-.1.317-.13 14.68-8.536-47.14-27.216-16.172 9.4"/><path d="M487.144 318.138l-.052-.001h-.016zm-3.776-33.915l-8.587 5.05a.87.87 0 0 0 .007 1.5l12.837 7.413a1.43 1.43 0 0 0 1.437-.007l8.585-5.05a.87.87 0 0 0-.005-1.5l-12.837-7.413a1.43 1.43 0 0 0-1.437.005"/><path d="M486.805 318.606l-4.863-30.923a5.71 5.71 0 0 0-2.771-4.049l-47.3-27.5c-.42-.244-.872-.24-1.256-.08l-.003-.008-1.124.56.38.14a1.41 1.41 0 0 0-.124.84l4.863 30.924a5.71 5.71 0 0 0 2.769 4.048l47.3 27.5.308.124-.043.456 1.09-.536-.02-.004c.528-.257.9-.82.795-1.496"/></g><path d="M478.22 284.1l-47.3-27.5a1.43 1.43 0 0 0-2.128 1.455l4.863 30.924a5.71 5.71 0 0 0 2.771 4.049l47.3 27.5a1.43 1.43 0 0 0 2.127-1.456l-4.863-30.924c-.267-1.697-1.285-3.185-2.77-4.048" class="F"/><path d="M455.298 284.9c2.292 1.323 4.385 4.348 4.693 6.76s-1.285 3.31-3.576 1.987c-2.28-1.317-4.387-4.35-4.695-6.76s1.296-3.303 3.577-1.985" fill="#fff"/><path d="M538.46 269.76h-4.684l-8.065-35.735 11.753 8.616.996 27.12" fill="#a34dac"/><path d="M532.232 251.442l4.163 14.273-25.453 18.08-7.54 3.175a12.83 12.83 0 0 0-6.593 6.273l-4.336 9.02c-.78 1.624.12 3.555 1.864 4.003a6.26 6.26 0 0 0 5.783-1.449l5.388-4.933 1.487-.524a22.6 22.6 0 0 0 10.823-8.12l29.837-11.585a11.42 11.42 0 0 0 6.895-13.609l-4.95-18.41-17.365 3.805" class="G"/><path d="M525.14 232.314l7.375 22.06c12.013.832 17.604-3.212 19.27-6.78-6.304-28.665-10.468-33.424-18.675-34.02s-7.97 18.737-7.97 18.737m-339.142-2.314c-9.1-9.1-12.336-21.203-7.1-26.45 1.708-1.708 4.143-2.516 6.964-2.516 5.848 0 13.356 3.473 19.488 9.605 9.1 9.1 12.336 21.203 7.088 26.45s-17.36 2-26.45-7.1m226.107 149.6l-193.273-142.53c3.808-8.088.127-20.385-9.7-30.213-5.33-5.33-11.67-9.063-17.856-10.515-6.637-1.553-12.37-.34-16.137 3.427-7.544 7.543-4.43 22.473 7.1 33.992 5.33 5.33 11.67 9.064 17.855 10.515 1.887.443 3.7.66 5.413.66 4.036 0 7.52-1.227 10.16-3.58L408.94 383.9c.477.352 1.032.52 1.58.52a2.66 2.66 0 0 0 2.148-1.083c.875-1.187.623-2.856-.563-3.73" class="B"/><path d="M410.52 384.42c-.55 0-1.104-.168-1.58-.52L215.657 241.362c-1.86 1.66-4.14 2.757-6.735 3.263-1.09.212-2.233.32-3.427.32a21.22 21.22 0 0 1-1.527-.056l-1.648-.18-2.24-.425c-.924-.216-1.85-.484-2.777-.8l-2.24-.86c-2.196-.935-4.373-2.135-6.477-3.568-1.36-.928-2.69-1.952-3.977-3.067l-2.383-2.22-.324-.327a45.78 45.78 0 0 1-3.136-3.541 41.65 41.65 0 0 1-3.572-5.248c-1.076-1.883-1.95-3.783-2.615-5.66a27.97 27.97 0 0 1-1.205-4.541 22.62 22.62 0 0 1-.348-3.877c.001-4.24 1.333-8.02 4.11-10.796 2.7-2.697 6.404-4.085 10.728-4.085 1.715 0 3.525.217 5.41.66 6.185 1.452 12.527 5.185 17.856 10.515 7.265 7.265 11.172 15.88 11.176 23.147.001 2.563-.483 4.957-1.475 7.067h0l193.273 142.53a2.66 2.66 0 0 1 .563 3.729 2.66 2.66 0 0 1-2.148 1.083M176.393 210.504c-.001 5.848 3.47 13.36 9.605 19.493s13.64 9.605 19.488 9.605c2.82 0 5.256-.81 6.963-2.516s2.515-4.14 2.516-6.957c.001-1.792-.324-3.74-.952-5.755-.443-1.42-1.037-2.88-1.773-4.34-.52-1.032-1.11-2.064-1.77-3.088-.73-1.135-1.547-2.26-2.44-3.36-.823-1.01-1.713-2-2.668-2.953-.736-.737-1.492-1.435-2.263-2.092a37 37 0 0 0-5.583-3.951 30.52 30.52 0 0 0-5.039-2.327c-2.32-.813-4.563-1.236-6.604-1.236-2.82 0-5.256.808-6.964 2.516s-2.515 4.14-2.516 6.957" class="E"/><path d="M215.565 236.17l-.247.49.03.024c-.68 1.424-1.95 3.204-3.493 5.03.055-3.9-.52-7.8-1.727-11.505 1.98-2.463 3.75-5.088 5.324-7.827 1.905 5.155 2.072 10.113.112 13.787zm-12.277 13.567c-.073-3.613-.736-7.224-1.99-10.624a60.04 60.04 0 0 0 7.827-7.685c1.145 3.827 1.608 7.85 1.357 11.84-2.312 2.517-4.97 4.94-7.193 6.47zm-2.367 1.345l-2.245.857c-1.515.568-3.047 1.15-4.524 1.828-.296-2.783-1.03-5.523-2.21-8.07l2.377-1.584 4.116-2.79c.596-.43 1.18-.87 1.76-1.32 1.197 3.39 1.784 6.987 1.76 10.57-.365.204-.717.384-1.036.51zm-12.747 6.744c-.508.54-.957 1.127-1.384 1.727-.684-2.375-1.68-4.66-2.996-6.752.603-.735 1.228-1.448 1.893-2.12 1.555-1.567 3.327-2.927 5.15-4.208a24.3 24.3 0 0 1 2.049 7.911c-1.735.9-3.353 1.99-4.712 3.44zm-5.733 8.24c-1.193 1.388-2.687 2.464-4.33 3.235-.205-2.112-.72-4.2-1.568-6.15.987-1.364 1.93-2.768 2.837-4.144 1.127-1.71 2.29-3.44 3.547-5.09 1.328 2.2 2.28 4.615 2.872 7.116l-.748 1.216c-.793 1.31-1.615 2.664-2.61 3.817zm-13.157 4.347c2.193-1.453 4.32-3.435 6.32-6.003a19.09 19.09 0 0 1 1.216 5.421c-2.404.848-5.04 1.065-7.535.58zm-4.768-1.98l6.96-10.36.255.228c1.345 1.37 2.423 2.99 3.263 4.73l-.087.12c-1.78 2.364-4.275 5.044-7.32 6.804-.94-.316-1.852-.727-2.7-1.263-.127-.08-.244-.173-.368-.26zm-5.27-15.49c1.64.053 3.277.296 4.852.78-.31.52-.608 1.043-.88 1.58-1.455 2.868-2.236 6.027-2.407 9.223-2.116-3.413-2.784-7.752-1.565-11.584zm3.365-5.988c1.013-1.44 2.044-2.92 2.81-4.533 1.88.27 3.728.737 5.496 1.424-.983 1.64-2.14 3.21-3.34 4.83-.933 1.26-1.875 2.55-2.748 3.89-1.643-.537-3.353-.848-5.072-.953.737-1.635 1.81-3.17 2.855-4.657zm2.212-26.02a30.35 30.35 0 0 1 10.675-.615c-.39 1.316-.708 2.633-.91 3.957-.31 2.04-.4 4.13-.485 6.152l-.053 1.208c-2.555-.596-5.33-.913-8.29-.988l-.168-.73c-.348-1.49-.707-3.03-.903-4.53s-.12-2.99.135-4.455zm12.673-18.8c2.108-2.108 5.05-3.112 8.41-3.112 1.316 0 2.7.16 4.12.464-2.165 1.952-4.253 3.996-6.165 6.208-.35.404-.664.812-.995 1.22-3.3-.528-6.67-.557-9.99-.145 1.544-1.693 3.136-3.25 4.62-4.633zm15.545 24.617l-.336-.283 6.892-10.26c4.136 3.728 7.208 8.505 9.032 13.727a58.84 58.84 0 0 1-7.855 7.885c-1.755-4.196-4.363-8.027-7.733-11.07zm-7.53 10.424l6.445-9.595.192.16c3.32 3 5.87 6.8 7.55 10.957-.67.528-1.35 1.045-2.043 1.544-1.324.952-2.72 1.87-4.07 2.76l-2.243 1.49c-1.467-2.78-3.437-5.284-5.832-7.317zm-5.86 10.59c-.256-.24-.52-.467-.787-.695l5.897-8.78c2.257 1.94 4.112 4.324 5.487 6.968-1.94 1.353-3.832 2.797-5.51 4.487-.603.607-1.172 1.245-1.72 1.9-.99-1.397-2.11-2.703-3.368-3.88zm-1.536.42c.21.183.423.363.625.553 1.288 1.203 2.43 2.545 3.42 3.99-1.4 1.795-2.668 3.684-3.895 5.545a131.42 131.42 0 0 1-2.385 3.508c-.855-1.616-1.923-3.116-3.2-4.415-.144-.147-.297-.284-.448-.427zm4.67-11.43c.323.217.63.456.94.69l-5.897 8.78c-1.556-1.197-3.243-2.212-5.023-3.025.48-.916.91-1.86 1.25-2.85.78-2.272 1.075-4.647 1.232-7.01 2.785.8 5.3 1.927 7.5 3.415zm-6.88-12.277a28.4 28.4 0 0 1 .921-3.957c5.135.843 10.06 2.95 14.104 6.197l-6.463 9.62c-.308-.232-.613-.47-.933-.687-2.393-1.62-5.135-2.825-8.168-3.667l.068-1.5c.084-1.985.172-4.04.47-6.007zm0-5.448c-3.588-.463-7.24-.3-10.764.46 1.068-4.03 3.548-7.845 6.393-11.2 3.42-.58 6.927-.652 10.365-.18-2.73 3.573-4.725 7.225-5.995 10.92zm8.456-11.844l.508-.62c2.064-2.388 4.343-4.593 6.713-6.692 4.17 1.177 8.59 3.56 12.665 7.02l-4.92 7.328c-4.333-3.548-9.515-5.923-14.965-7.033zm14.22 8.143l-6.904 10.277c-4.15-3.307-9.18-5.467-14.43-6.363 1.293-3.677 3.348-7.317 6.156-10.884 5.532 1.01 10.81 3.363 15.18 6.97zm-32.525 16.67c2.832.092 5.487.41 7.92 1-.148 2.395-.42 4.696-1.183 6.92-.33.96-.748 1.872-1.22 2.76-1.81-.717-3.7-1.22-5.62-1.525a11.51 11.51 0 0 0 .357-1.151c.665-2.67.304-5.36-.256-8.003zm.056 21.036c.808-1.22 1.676-2.405 2.535-3.564 1.22-1.643 2.453-3.32 3.508-5.105 1.75.79 3.407 1.79 4.928 2.97l-5.855 8.716c-1.532-1.257-3.267-2.27-5.116-3.016zm-1.707 2.872a26.12 26.12 0 0 1 .96-1.712c1.855.72 3.588 1.717 5.105 2.983l-7.013 10.44c-.484-.415-.943-.856-1.36-1.337-.063-3.58.68-7.168 2.307-10.375zm50.412-35.1c-1.525 2.768-3.26 5.42-5.204 7.91-1.947-5.187-5.097-9.915-9.264-13.627l4.907-7.304c.512.464 1.02.94 1.52 1.44 3.59 3.59 6.313 7.612 8.043 11.583zm-7.1-12.525c-10.545-10.547-24.527-13.727-31.148-7.105-6.27 5.845-14.463 14.733-13.203 24.387.203 1.565.57 3.14.924 4.66.767 3.288 1.49 6.395.727 9.456-.59 2.375-2.003 4.383-3.497 6.51-1.103 1.57-2.243 3.192-3.035 4.985-2.532 5.74-.828 12.935 3.745 17.147.032.327.05.655.097.98l.38-.568c.465.39.947.76 1.463 1.088 2.325 1.468 5.05 2.173 7.78 2.173 4.32 0 8.664-1.763 11.5-5.056 1.067-1.24 1.917-2.64 2.74-3.996.925-1.525 1.8-2.967 2.957-4.204 2.596-2.772 6.357-4.184 9.996-5.55l2.268-.867c4.505-1.784 13.41-10.81 15.37-15.575l.032-.085c3.81-7.377.007-19.28-9.096-28.38" class="F"/><path d="M352.292 527.208c-.91 2.86-4.045 4.497-7.037 4.736s-5.948-.604-8.9-1.14c-6.613-1.197-12.99-.01-19.585-.165-2.164-.05-4.345-.15-6.44-.7s-4.115-1.585-5.507-3.245a7.18 7.18 0 0 1-1.585-3.451c-.324 1.888.343 3.905 1.585 5.385 1.392 1.658 3.412 2.694 5.507 3.245s4.276.65 6.44.7c6.596.154 12.972-1.033 19.585.165 2.953.534 5.908 1.376 8.9 1.14s6.128-1.875 7.037-4.736c.312-.984.332-2.013.23-3.048-.045.377-.113.75-.23 1.115" class="D"/><path d="M352.122 521.728l-1.216-6.008c-.213-1.06-.44-2.145-1.02-3.06s-1.6-1.628-2.675-1.528c-3.62-.483-8.713-1.792-11.723.28-4.71 3.24-10.48 4.917-16.195 4.703-2.99-.112-5.987-.725-8.96-.36s-6.064 2.02-6.947 4.88c-.26.845-.292 1.736-.153 2.608a7.18 7.18 0 0 0 1.585 3.451c1.392 1.66 3.412 2.696 5.507 3.245s4.276.65 6.44.7c6.596.156 12.972-1.032 19.585.165 2.953.537 5.908 1.378 8.9 1.14s6.128-1.875 7.037-4.736c.116-.365.184-.737.23-1.115.172-1.435-.11-2.93-.4-4.366" class="C"/><path d="M334.612 505.12l-.257 7.827c-.056 1.664 1.213 3.09 2.873 3.2 2.69.18 5.308.167 7.89-.076 2.197-.207 3.916-1.988 4.033-4.193l.31-5.78-14.85-.98" class="H"/><path d="M385.716 500.955c-.08 1.163-.36 2.31-1.048 3.233-.863 1.16-2.272 1.813-3.693 2.08-3.436.644-7.18-.9-9.168-3.773-.984-1.424-1.545-3.102-2.476-4.56-1.293-2.025-3.233-3.537-5.14-4.998s-3.857-2.957-5.18-4.963c-1.28-1.94-1.867-4.484-.99-6.62-.184.26-.35.536-.485.833-1.03 2.247-.42 4.982.93 7.05s3.34 3.61 5.285 5.116 3.925 3.065 5.244 5.152c.95 1.505 1.523 3.234 2.527 4.703 2.027 2.964 5.85 4.553 9.353 3.89 1.452-.275 2.888-.948 3.77-2.144.93-1.26 1.125-2.922 1.095-4.496-.003-.167-.017-.332-.025-.498" class="D"/><path d="M383.343 491.13c-2.38-4.17-7.287-7.207-11.072-10.16-2.148-1.674-4.62-3.106-7.336-3.332s-5.688 1.02-6.833 3.493l-.08.217c-.877 2.137-.29 4.68.99 6.62 1.323 2.006 3.272 3.5 5.18 4.963s3.845 2.973 5.14 4.998c.93 1.46 1.492 3.137 2.476 4.56 1.987 2.875 5.732 4.417 9.168 3.773 1.42-.266 2.83-.92 3.693-2.08.69-.924.967-2.07 1.048-3.233a12.31 12.31 0 0 0 .025-1.13c-.06-3.037-.893-6.057-2.4-8.694" class="C"/><path d="M373.024 487.515v7.114c6.49 2.7 11.07-.49 11.07-.49l.667-6.4-11.736-.22" class="H"/><path d="M386.628 358.454c2.133 6.403-.488 36.81-1.733 65.975 4.624 11.027 3.377 42.324.71 64.552 0 0-4.624 2.845-12.98 0l-10.492-61.35-1.456-34.676s-2.635 30.764-5.657 50.503c2.845 15.116 2.133 17.96-4.89 64.456 0 0-7.203 4.186-15.737 0-3.972-65.324-2.513-124.85-1.76-146.257l53.996-3.2" class="F"/><path d="M388.896 319.443l3.067 6.468-7.335 8.068.532 19.273 23.652-20.536a6.4 6.4 0 0 0 1.571-7.609l-7.216-15-14.27 9.337" class="H"/><path d="M396.187 331.68s-3.313-2.747-4.224-5.77l-1.827 2.01c.957 1.473 2.884 3.064 6.05 3.76" class="N"/><path d="M388.307 321c9.392-.823 15.793-10.56 15.793-10.56-8.403-17.204-15.737-36.344-30.408-31.775L388.307 321" class="F"/><path d="M331.37 309.373v54.06c31.832 13.337 52.46 1.29 55.26-4.98-1.468-22.007 3.735-47.748 3.335-58.684s-1.74-23.257-18.7-20.787l-18.033 1.76-9.148 2.224-12.715 26.407" class="B"/><path d="M342.524 238.673c-3.865-1.453-7.645-7.01-3.776-9.456 1.076-.8 4.223.133 6.757 0-2.224-2-2.756-4.4-1.645-5.157s4.09 2.09 9.492 1.556 24.007-6.535 26.34 7.07c2.6-3.468 5.467-.935 5.467-.935l-3.867 2.735c5.736 8.07 3.867 17.404-10.03 35.855-6.508 7.024-13.577 1.956-13.577 1.956l-5.736-14.137-5.6-6.8-3.825-12.684" class="D"/><path d="M341.238 249.978l-3.735 6.49 4.09 1.512z" class="N"/><path d="M342.524 238.673a60.45 60.45 0 0 0-1.073 27.587c.304 1.552.697 3.156 1.716 4.365 1.15 1.368 2.963 2.04 4.744 2.183s3.564-.185 5.32-.512v8.447c6.412 1.512 13.008 2.11 18.033-1.76v-8.644c-3.603 1.06-7.524 1.497-11.193.7-4.43-2.39-5.32-10.48-4.697-12.615.656 1.076 2.237 1.496 3.464 1.217s2.245-1.193 2.875-2.284.913-2.347 1.073-3.595c.195-1.52.19-3.175-.657-4.455-1.037-1.572-3.195-2.175-5.016-1.69s-3.296 1.89-4.22 3.53a11.21 11.21 0 0 0-.743 1.617c-.376 1.012-1.845.827-1.944-.248-.223-2.413.205-4.89 1.27-7.068-1.425.02-2.767-1.076-3.62-2.217s-1.12-2.697-.7-4.057c-2.14.245-4.632-.5-4.632-.5" class="H"/><path d="M361.563 414.07l-1.188-28.28c7.31 0 14.092-5.464 19.25-10.644-4.956 8.827-14.56 12.74-14.56 12.74l-3.504 26.185" class="C"/><path d="M301.603 323.178s1.068-5.268 3.98-8.292l-1.792-2.373c-1.347 2.492-3.253 7.352-2.188 10.665" class="N"/><path d="M344.083 282.966l-.328.037a25.69 25.69 0 0 0-15.016 7.201l-18.267 17.968s.15.43.465 1.137c1.175 2.636 4.793 9.32 12.668 13.887.333.195.655.395 1.004.58l16.983-15.605s10.225-8.268 2.49-25.207" class="F"/><path d="M310.938 309.3l-5.355 5.576c-2.912 3.024-3.98 8.292-3.98 8.292-1.065-3.313.84-8.173 2.188-10.665l1.792 2.373-20.177-26.8-1.397-5.77c-.184-.76-.693-1.403-1.393-1.755l-1.32-.664a5.33 5.33 0 0 0-3.583-.435l-1.08.247 3.67 2.705-2.508.957-4.88.213-5.325-3.928-.14.487c-.695 2.408-.52 4.984.497 7.273l1.8 4.068a5.33 5.33 0 0 0 2.577 2.652l4.717 2.253 20.665 34.627c3.073 5.15 10.075 6.23 14.56 2.25l11.34-10.07c-7.875-4.567-11.493-11.25-12.668-13.887" class="H"/><g class="B"><path d="M103.873 119.564l-1.127 1.407 10.767 6.257-2.254-8.407c-2.627.735-5.1.965-7.386.743m42.685-61.884l8.442-2.3-10.797-6.275-.737 1.892c1.348 1.848 2.396 4.087 3.093 6.695"/><path d="M132.278 72.175l-.143-.972c-.038-.188-.095-.357-.14-.537l-.208-.796c-.058-.177-.133-.336-.198-.508l-.272-.7c-.078-.165-.173-.3-.258-.467l-.33-.592c-.098-.15-.213-.28-.32-.42l-.38-.497c-.116-.13-.248-.24-.372-.36l-.43-.4c-.133-.1-.28-.195-.42-.293-2.166-1.5-5.142-1.685-8.495-.27.073.615.124 1.25.127 1.928l-.062 1.54-.05.495-.12 1-.2 1.1-.15.765-.175.713-.266.996-.175.573-.377 1.12-.164.456-.618 1.535-.08.175-.636 1.352-.215.423-.673 1.247-.14.252-.88 1.43-.268.4-.693 1-.4.528-.63.804-.545.664-.532.603-.93 1-.588.588-.47.44-.788.7-.475.393-.875.66-.422.307-1.326.844-1.277.663-.33.15-.28.112c.406 3.388 1.852 5.8 3.996 7.033l.003.001a6.73 6.73 0 0 0 .897.419l.206.072.044.016a7.21 7.21 0 0 0 .764.216l.207.047.027.005a7.55 7.55 0 0 0 1.027.125l.174.001.07.001.853-.02.426-.043.727-.113.558-.12.016-.003.6-.17.987-.34.685-.275.322-.148 1.277-.663 1.328-.844.42-.303.414-.312.463-.35.475-.393.433-.377.358-.313.466-.435.592-.592.925-.987.535-.605v-.001l.542-.66.63-.807h.001l.4-.527.695-1.003.267-.397.88-1.432.14-.25.676-1.25.212-.42.635-1.35.083-.18.617-1.532.165-.46.375-1.12.176-.575.265-.996.175-.714.15-.764.2-1.108.122-1.005.047-.487.063-1.54-.077-1.6c-.016-.172-.05-.327-.072-.492m15.55-32.415l-12-6.967-7.218-4.113 12 6.967 7.22 4.113M84.667 108.5l-2.707.737-1.2-.7-3.64 9.33 12 6.968 4.375-11.213-8.828-5.13m39.44-68.656l8.97 5.212 7.543-9.417-12-6.967-6.404 7.996 1.22.708.66 2.468m-33.705 67.09l-5.735 1.564 8.828 5.13c-1.356-1.843-2.405-4.08-3.093-6.695M125.7 45.796a21.78 21.78 0 0 1 4.963-.777l.258-.013 1.04.01 1.117.053-8.97-5.212 1.593 5.94m-35.03 42.91l.001-.001.513-2.085.284-1.04 1.93-5.7-12-6.967-.204.524-.98 2.724-.892 2.916-.803 3.264-.166.808 12 6.968.317-1.423M103.7 62.024l3.135-3.636.33-.365 1.207-1.23.498-.505 2.195-2.048-11.988-6.967-2.394 2.233-1 1.016-.52.532-1.696 1.873-1.77 2.127 12 6.968"/><path d="M90.355 90.13l-11.99-6.968-8.428 7.428 11.99 6.968 8.428-7.428"/><path d="M81.927 97.56l-12-6.968.033 11.7 12 6.967-.033-11.688m31.348-54.3l-12-6.967-2.2 10.98 11.988 6.967 2.2-10.98"/><path d="M123.447 37.388l-12-6.967-10.173 5.873 12 6.967 10.172-5.873M88.976 73.75l-12-6.968 4.423 6.145 12 6.967-4.423-6.144M103.7 62.024l-12-6.968-7.563-.696 12 6.968 7.563.696"/><path d="M96.147 61.328L84.16 54.36l-7.172 12.42 11.99 6.968 7.17-12.42"/><path d="M132.317 76.284l-.122 1.005-.2 1.11-.15.763-.176.716-.265.995-.176.576-.375 1.117-.165.46-.617 1.532-.084.184-.634 1.347-.212.42-.676 1.248-.14.252-.88 1.43-.267.4-.694 1-.39.527-.63.807-.542.66-.535.605-.925.987-.592.592-.466.435-.358.313-1.37 1.12-.414.312-.42.303-1.328.844a17.22 17.22 0 0 1-1.599.811l-.685.275-.987.34-.61.17-.574.123-.727.113-.426.043-.853.02-.244-.003a7.55 7.55 0 0 1-1.027-.125l-.233-.052a7.21 7.21 0 0 1-.764-.216l-.25-.088a6.73 6.73 0 0 1-.897-.419l-.003-.001c-2.144-1.223-3.6-3.645-3.996-7.033a16.48 16.48 0 0 1-.128-1.935c-.025-8.84 6.217-19.643 13.9-24.084a16.56 16.56 0 0 1 1.877-.921c3.354-1.415 6.33-1.24 8.495.27.14.1.288.184.42.293.152.124.29.272.43.41.124.12.256.23.372.36.136.153.254.33.38.497.106.14.22.27.32.42.12.185.222.392.33.592.085.157.18.3.258.467.103.217.184.46.272.69.065.172.14.33.198.508.08.252.14.528.208.796.045.18.1.35.14.537.062.31.1.643.143.972.022.165.056.32.072.492.05.51.075 1.04.077 1.59.002.665-.043 1.344-.1 2.028m14.288-1.787l8.428-7.44L155 55.37l-8.44 2.312c-.697-2.608-1.745-4.847-3.093-6.695l4.375-11.223-7.22-4.113-7.543 9.417-.31-.015c-.265-.023-.536-.03-.806-.04-.343-.012-.688-.017-1.04-.01l-.258.013a21.78 21.78 0 0 0-4.963.777l-2.254-8.408-10.172 5.873-2.2 10.98a56.61 56.61 0 0 0-2.195 2.048l-.498.505-1.207 1.23-.33.365c-1.08 1.164-2.128 2.372-3.135 3.636l-7.563-.696-7.17 12.42 4.423 6.144c-.746 1.888-1.384 3.79-1.93 5.69l-.285 1.04c-.185.696-.355 1.39-.512 2.084l-.318 1.424-8.428 7.428.033 11.688 8.442-2.3c.687 2.615 1.736 4.852 3.093 6.695l-4.375 11.213 7.22 4.113 7.534-9.403c2.285.223 4.76-.008 7.386-.743l2.254 8.407 10.173-5.873 2.198-10.977c2.613-2.29 5.1-4.917 7.357-7.768l7.572.68 7.17-12.42-4.423-6.135c1.332-3.393 2.365-6.833 3.044-10.236"/></g><g class="E"><path d="M113.513 127.228l-10.767-6.257 1.127-1.407.104.01.028.003c.008.001.016.001.024.003l1.54.067c1.735-.001 3.556-.248 5.46-.76l.02-.007c.01-.001.017-.004.026-.007l.116-.032.07-.02 2.254 8.407"/><path d="M105.567 119.645h0m.008 0c1.727-.001 3.548-.248 5.45-.76-1.903.512-3.724.76-5.45.76m-1.547-.067c-.008-.001-.016-.001-.024-.003.008.001.016.001.024.003m-.052-.005l-.104-.01.104.01m7.07-.695c.01-.001.017-.004.026-.007-.008.003-.017.005-.026.007m.142-.04l.07-.02-.07.02m35.37-61.158c-.697-2.608-1.745-4.847-3.093-6.695l.737-1.892L155 55.37l-8.44 2.312"/><path d="M112.293 100.24c-.04 0-.078 0-.114-.001s-.076-.001-.113-.001h0l-.07-.001-.174-.001a7.55 7.55 0 0 1-1.027-.125h0l-.233-.052a7.21 7.21 0 0 1-.764-.216h0l-.25-.088a6.73 6.73 0 0 1-.897-.419l-.003-.001c-2.144-1.223-3.6-3.645-3.996-7.033l.28-.112.33-.15 1.277-.663 1.326-.844.422-.307.875-.66.475-.393.788-.69.47-.44.588-.588.93-.99.532-.603.545-.664.63-.804.39-.528.693-1 .268-.4.88-1.43.14-.252.673-1.247.215-.423.636-1.352.08-.175.618-1.535.164-.456.377-1.12.175-.573.266-.996.175-.713.15-.765.19-1.11.12-1 .05-.495.062-1.49v-.048c-.002-.68-.053-1.313-.127-1.928h0c1.547-.652 3.013-.967 4.357-.968 1.56.001 2.943.417 4.1 1.21l.04.028.42.293c.152.124.29.272.43.41l.372.36c.136.153.254.33.38.497l.32.42c.12.185.222.392.33.592l.258.467c.103.217.184.46.272.69l.198.508c.08.252.14.528.208.796l.14.537c.062.31.1.643.143.972l.072.492.077 1.59a20.24 20.24 0 0 1-.108 2.008l-.002.02-.122 1.005-.057.37-.133.74-.15.763-.176.716-.265.995-.104.345-.072.23v.001l-.375 1.117-.165.46-.617 1.532-.084.184-.634 1.347-.212.42v.001l-.676 1.248-.14.25v.001l-.88 1.43-.267.4-.694 1-.39.527-.63.807-.542.66v.001l-.535.605-.925.987-.592.592-.466.435-.386.34-1.343 1.096-.414.312-.42.303-1.328.844-.205.116-1.072.547-.322.148-.685.275-.01.003-.978.337-.61.17-.016.003-.558.12-.727.113-.026.003-.4.04-.128.008-.166.008-.04.001-.266.005h-.026"/><path d="M112.293 100.24h-.004.004m.026 0h0l.266-.005-.266.005m-.14-.001c-.037 0-.076-.001-.113-.001h.113m-.357-.004h0a7.55 7.55 0 0 1-1.027-.125l-.027-.005-.207-.047a7.21 7.21 0 0 1-.764-.216l-.044-.016-.206-.072a6.73 6.73 0 0 1-.897-.419l-.003-.001c-2.144-1.223-3.6-3.645-3.996-7.033h0c.406 3.388 1.852 5.8 3.996 7.033l.003.001a6.73 6.73 0 0 0 .897.419h0l.25.088a7.21 7.21 0 0 0 .764.216h0l.233.052a7.55 7.55 0 0 0 1.027.125h0m.803-.001h0l.166-.008-.166.008m.294-.016h0m.426-.043h0l.727-.113-.727.113m1.3-.236h0l.6-.17-.6.17m1.596-.5h0l.685-.275-.685.275m2.08-.97h0l.205-.116 1.328-.844.42-.303.414-.312 1.343-1.096-.404.352-.475.393-.463.35-.414.312-.42.303-1.328.844-.205.116m3.737-2.696h0l.358-.313.466-.435.592-.592.925-.987.535-.605-.535.605-.925.987-.592.592-.466.435-.358.313m3.385-3.552l.033-.04.63-.807.4-.527.694-1 .267-.4.88-1.43-.88 1.43-.268.398-.694 1-.4.527h-.001l-.63.807-.033.04m3.033-4.457h0l.676-1.248-.676 1.248m.722-1.34h0l.166-.327.634-1.347.084-.184.617-1.532.165-.46.375-1.117-.375 1.117-.165.46-.617 1.532-.083.18-.002.003-.634 1.347-.166.327m2.113-5.196h0l.104-.345.265-.995.176-.716.15-.763-.15.764-.175.714-.265.995-.104.345m.828-3.56h0l.057-.37.122-1.005-.122 1.005-.057.37m.18-1.395h0l.108-2.008-.063 1.54-.045.467m-3.512-10.632l-.04-.028.04.028m-8.495-.27c1.547-.652 3.013-.967 4.357-.968-1.343.001-2.8.316-4.357.968m4.37-.968h-.005M89.12 124.853l-12-6.968 3.64-9.33 1.2.7 2.707-.737 8.828 5.13-4.375 11.213"/><path d="M93.495 113.64l-8.828-5.13 5.735-1.564c.687 2.615 1.736 4.852 3.093 6.695M125.7 45.796l-1.593-5.94 8.97 5.212-1.167-.056-.646-.01-.293.003-.05.001-.258.013a21.78 21.78 0 0 0-4.963.777"/><path d="M125.7 45.796l-1.593-5.94 1.593 5.94a21.78 21.78 0 0 1 4.963-.777l.258-.013-.258.013a21.78 21.78 0 0 0-4.963.777m7.377-.728l-.3-.015.3.015m-2.106-.064h0l.287-.003-.287.003m.302-.003h-.01.01M90.355 90.13l-12-6.968.166-.808.152-.617.65-2.647.145-.472.747-2.444.98-2.724.204-.524 12 6.967-1.93 5.7-.086.307-.168.62-.03.115-.513 2.085-.317 1.423"/><path d="M90.673 88.707h0l.512-2.084.03-.115-.03.113-.001.001-.512 2.084m.7-2.817h0l.086-.307 1.93-5.7-1.93 5.7-.086.307m-9.412 23.358l-12-6.967-.033-11.7 12 6.968.033 11.688m29.115-55.006h0l-11.988-6.967 2.2-10.98 12 6.967-2.2 10.98M93.4 79.893l-12-6.966-4.423-6.145 12 6.968 4.423 6.144m10.3-17.87l-7.563-.696-12-6.968 7.563.696 12 6.968"/></g><g class="M"><path d="M133.078 45.068l-8.97-5.212-.66-2.468-1.22-.708 6.404-7.996 12 6.967-7.543 9.417M103.7 62.024l-12-6.968 1.797-2.16 1.668-1.84.52-.532 1-1.016 2.394-2.233 11.988 6.967-2.195 2.048-.498.505-1.207 1.23-.33.365-3.135 3.636"/><path d="M81.927 97.56l-12-6.968 8.428-7.428 12 6.968-8.428 7.428m31.348-54.3l-12-6.967 10.173-5.873 12 6.967-10.172 5.873"/><path d="M88.976 73.75l-11.99-6.968 7.172-12.42 11.99 6.968-7.17 12.42"/></g><g class="B"><path d="M188.244 79.013l-.797.996 7.617 4.425-1.595-5.947c-1.86.52-3.608.683-5.225.525m30.196-43.777l5.972-1.635-7.64-4.44-.52 1.34c.953 1.307 1.695 2.9 2.188 4.735"/><path d="M208.34 45.488l-.103-.687c-.027-.133-.065-.253-.097-.38l-.147-.563c-.04-.128-.095-.24-.14-.36l-.192-.5-.416-.75-.227-.297-.268-.35-.264-.255-.304-.3-.297-.208c-1.533-1.068-3.637-1.2-6-.2.053.435.088.885.1 1.364l-.043 1.1-.035.35-.085.707-.135.785-.107.54-.124.504-.188.705-.124.407-.265.792-.116.324-.437 1.085-.057.123-.45.956-.152.3-.477.88-.1.18-.62 1.012-.2.284-.5.707-.276.373-.444.57-.385.47-.376.428-.66.7-.416.415-.332.3-.557.488-.336.28-.62.467-.3.216-.937.597-.904.468-.232.107-.2.08c.288 2.397 1.3 4.1 2.828 4.976h.001c.203.116.416.2.635.296l.147.05.03.012c.176.06.356.1.54.152l.145.033.02.005c.236.044.48.075.727.088h.182l.604-.013.283-.028.02-.003.513-.08.407-.087.43-.12.692-.24h.007l.484-.195.228-.104.904-.47.94-.596.296-.216.62-.468.336-.28.56-.488.33-.308.42-.42.653-.697.38-.43.383-.467.447-.572.275-.372.49-.71.188-.28.623-1.012.1-.177.477-.883.15-.296.45-.954.06-.13.437-1.083.116-.325.265-.8.124-.407.188-.704.124-.505.107-.54.135-.784.085-.7.035-.345.043-1.1-.053-1.125-.05-.348m11-22.933l-8.48-4.93-5.107-2.9 8.48 4.928 5.107 2.9m-44.7 48.634l-1.915.523-.84-.5-2.575 6.6 8.48 4.93 3.093-7.932-6.244-3.63m27.904-48.57l6.345 3.688 5.336-6.663-8.48-4.928-4.53 5.656.863.503.468 1.744m-23.848 47.463l-4.057 1.105 6.244 3.63c-.96-1.304-1.7-2.887-2.187-4.736m24.972-43.26a15.43 15.43 0 0 1 3.511-.549l.183-.01.735.005.8.04-6.345-3.688 1.127 4.203m-24.782 30.356h0l.363-1.476.2-.735 1.365-4.025-8.48-4.928-.145.372-.605 1.69-.085.236-.16.523-.368 1.205-.103.333-.097.4-.47 1.9-.117.572 8.48 4.93.224-1.007m9.223-18.878l2.217-2.572.233-.26 1.207-1.227 1.553-1.45-8.48-4.928-1.693 1.58-1.067 1.095-1.18 1.303-.02.024-1.253 1.504 8.483 4.93"/><path d="M178.68 58.19l-8.48-4.93-5.963 5.256 8.48 4.928 5.963-5.255"/><path d="M172.718 63.445l-8.48-4.928.024 8.268 8.48 4.93-.024-8.27m22.178-38.4l-8.48-4.93-1.556 7.767 8.48 4.928 1.556-7.765"/><path d="M202.1 20.88l-.863-.503-7.62-4.427-7.196 4.155 8.48 4.93 7.196-4.155m-24.382 25.723l-8.48-4.93 3.13 4.347 8.48 4.928-3.13-4.345m10.425-8.296l-8.483-4.93-5.35-.492 8.48 4.93 5.35.492"/></g><g class="E"><path d="M195.064 84.435L187.447 80l.797-.996c.392.04.8.057 1.197.057 1.273 0 2.62-.2 4.028-.583l1.595 5.947m23.376-49.2c-.493-1.845-1.235-3.428-2.188-4.735l.52-1.34 7.64 4.44-5.972 1.635m-24.235 30.108c-.056 0-.1 0-.165-.001h-.163c-.248-.013-.5-.044-.727-.088l-.02-.005-.145-.033a4.78 4.78 0 0 1-.54-.152l-.03-.012-.147-.05c-.22-.085-.432-.18-.635-.296h-.001c-1.517-.865-2.54-2.58-2.828-4.976l.2-.08.232-.107.904-.468.937-.597.3-.216.62-.467.336-.28.557-.488.332-.3.416-.415.66-.7.376-.428.385-.47.444-.57.276-.373.5-.707.2-.284.62-1.012.1-.18.477-.88.152-.3.45-.956.057-.123.437-1.085.116-.324.265-.792.124-.407.188-.705.124-.504.107-.54.135-.785.085-.707.035-.35.043-1.056v-.033c-.001-.48-.036-.93-.1-1.364 1.097-.46 2.136-.684 3.088-.684 1.108 0 2.1.3 2.923.875l.297.208.304.3.264.255.268.35.227.297c.084.13.156.28.233.42l.183.33c.072.155.13.324.192.5l.14.36c.057.177.1.372.147.563l.097.38c.045.22.072.455.103.687l.05.348.053 1.125v.033l-.043 1.056-.035.345-.085.7-.135.785-.107.54-.124.505-.188.704-.124.407-.265.8-.116.325-.437 1.083-.06.13v.001l-.45.953-.15.296-.477.883-.1.177-.623 1.012-.188.28-.001.001-.5.708-.275.372-.447.572-.383.467-.38.43-.653.697-.42.42-.33.308-.56.488-.336.28-.328.247-.293.22-.296.216-.94.596-.904.47-.228.104-.484.195h-.007l-.692.24-.43.12-.012.003-.395.084-.532.083-.283.028-.44.015m-16.4 17.415l-8.48-4.93 2.575-6.6.84.5 1.915-.523 6.244 3.63-3.093 7.932"/><path d="M180.9 74.823l-6.244-3.63 4.057-1.105c.487 1.85 1.228 3.432 2.187 4.736m22.786-47.997l-1.127-4.203 6.345 3.688-.8-.04-.5-.008-.244.003-.183.01a15.43 15.43 0 0 0-3.511.549M178.68 58.2l-8.48-4.93.117-.572.108-.436.46-1.873.103-.333.528-1.728.085-.236.605-1.69.145-.372 8.48 4.928-1.365 4.025-.2.736-.363 1.475-.224 1.007m-5.937 13.525l-8.48-4.93-.024-8.268 8.48 4.928.024 8.27M193.34 32.8h0l-8.48-4.928 1.556-7.767 8.48 4.93-1.556 7.765m-12.506 18.148l-8.48-4.928-3.13-4.347 8.48 4.93 3.13 4.345m7.296-12.64l-5.35-.492-8.48-4.93 5.35.492 8.483 4.93"/></g><path d="M182.778 37.815l-8.48-4.93-5.073 8.788 8.48 4.93 5.073-8.788" class="B"/><path d="M208.905 26.312l-6.345-3.688-.468-1.744-.863-.503 4.53-5.656 8.48 4.928-5.336 6.663M188.13 38.307l-8.483-4.93 1.273-1.528 1.18-1.303 1.067-1.095 1.693-1.58 8.48 4.928-1.553 1.45-.352.357-.855.87-.233.26-2.217 2.572m-15.412 25.137l-8.48-4.928 5.963-5.256 8.48 4.93-5.963 5.255m22.178-38.41l-8.48-4.93 7.196-4.155 8.48 4.93-7.196 4.155m-17.19 21.568l-8.48-4.93 5.073-8.788 8.48 4.93-5.073 8.788" class="M"/><path d="M208.366 48.396l-.085.71-.135.784-.107.54-.124.505-.188.704-.124.407-.265.79-.116.325-.437 1.083-.06.13-.45.953-.15.296-.477.883-.1.18-.623 1.012-.19.283-.49.708-.275.373-.447.57-.383.467-.38.43-.653.697-.42.42-.33.308-.253.22-.97.792-.293.22-.296.216-.94.596c-.384.22-.76.408-1.132.573l-.484.195-.7.24-.43.12-.407.087-.513.08-.3.03a6.14 6.14 0 0 1-.604.013l-.172-.001c-.248-.013-.49-.044-.727-.088l-.164-.04c-.185-.04-.365-.092-.54-.152l-.177-.063c-.22-.085-.432-.18-.635-.296h-.001c-1.517-.865-2.54-2.58-2.828-4.976-.052-.436-.088-.888-.09-1.37-.02-6.253 4.4-13.895 9.84-17.037.452-.26.893-.468 1.328-.652 2.373-1 4.477-.877 6.01.19l.297.208.304.29.264.255.268.35.227.297c.084.13.156.28.233.42l.183.33c.072.155.13.324.192.488.047.12.1.233.14.36.057.177.1.372.147.563.032.127.07.247.097.38.045.22.072.455.103.687.015.12.04.227.05.348a11.73 11.73 0 0 1 .053 1.125c.001.47-.03.95-.077 1.435zm10.108-1.264l5.963-5.263-.024-8.27-5.972 1.635c-.493-1.845-1.235-3.428-2.188-4.735l3.095-7.94-5.107-2.91-5.336 6.663-.22-.01c-.187-.016-.38-.02-.57-.028-.243-.008-.487-.012-.735-.005l-.183.008a15.51 15.51 0 0 0-3.511.551l-1.595-5.947-7.196 4.155-1.556 7.765a40.55 40.55 0 0 0-1.553 1.449l-.352.357-.855.87-.233.26a45.97 45.97 0 0 0-2.217 2.572l-5.35-.492-5.073 8.788 3.13 4.345c-.527 1.337-.98 2.68-1.365 4.025l-.2.736c-.13.492-.252.983-.363 1.475l-.224 1.007-5.963 5.255.024 8.27 5.972-1.628c.487 1.85 1.228 3.432 2.187 4.736l-3.093 7.932 5.107 2.91 5.33-6.65c1.617.157 3.367-.005 5.225-.525l1.595 5.947 7.196-4.155 1.556-7.765a42.47 42.47 0 0 0 5.204-5.496l5.357.48 5.073-8.788-3.13-4.34c.943-2.4 1.673-4.835 2.153-7.24" class="B"/></svg>