<svg xmlns="http://www.w3.org/2000/svg" width="178.344" height="38.04"><path fill="red" d="M9.35 21.43v8.68h2.44V7.45H8.15c-3.59 0-6.6 2.38-6.6 7.13 0 3.39 1.33 5.23 3.33 6.25L.63 30.11h2.83l3.86-8.68zm0-2.03h-1.3c-2.12 0-3.87-1.17-3.87-4.82 0-3.77 1.91-5.07 3.87-5.07h1.3z"/><path d="M36.26 28.09H35V14.14h-7.42v1.36c0 4.25-.16 9.19-1.62 12.59h-.98v5.16h2.22v-3.14h6.85v3.14h2.21zm10.75.95l-.57-1.9c-.63.44-1.74 1.07-3.14 1.07-1.96 0-2.98-1.9-2.98-5.51h6.66v-1.37c0-5.42-1.74-7.41-4.41-7.41-3.39 0-4.82 3.74-4.82 8.87 0 4.92 2.03 7.55 5.33 7.55 1.59 0 2.92-.51 3.93-1.3zm-25.9-14.9v6.78h-3.68v-6.78h-2.47v15.97h2.47v-7.16h3.68v7.16h2.44V14.14zM56.2 30.11h2.7l-4.53-8.46 3.96-7.51h-2.51l-3.83 7.38v-7.38h-2.47v15.97h2.47v-7.95zm8.5.23c1.46 0 2.47-.48 3.33-1.21l-.57-1.84c-.57.51-1.49.99-2.7.99-1.99 0-2.95-2.29-2.95-6.28 0-4.03 1.27-6.02 3.05-6.02 1.01 0 1.96.54 2.63 1.11l.35-2.35c-.7-.44-1.52-.82-2.95-.82-3.74 0-5.67 3.2-5.67 8.21 0 5.45 2.06 8.21 5.48 8.21zm-32.14-2.25h-4.25c1.33-3.4 1.49-8.31 1.49-11.67v-.28h2.76zm10.01-12.14c1.43 0 1.87 1.99 1.87 4.72h-4.09c.16-2.85.7-4.72 2.22-4.72zm41.4 14.16h1.59V7.45h-9.92v22.66h1.58V8.75h6.75zm9.61-.88c-1.43 0-2.32-.64-2.95-1.94v-8.94c.7-1.71 1.9-3.23 3.33-3.23 1.84 0 2.98 2.47 2.98 6.66 0 5.04-1.33 7.45-3.36 7.45zm-.1 1.17c2.98 0 4.95-2.88 4.95-8.75 0-4.63-1.55-7.83-4.22-7.83-1.77 0-2.95 1.43-3.64 2.95l-.13-2.63h-1.3v20.92h1.49v-6.05c.6.79 1.65 1.39 2.85 1.39zm10.94-1.17c-1.52 0-2.5-1.3-2.5-3.55 0-2.79 1.26-4 3.89-4h1.72v4.41c-.57 1.71-1.62 3.14-3.11 3.14zm3.55.88h1.36c-.19-.6-.35-1.83-.35-2.94v-8.72c0-3.17-1.49-4.63-4.12-4.63-1.8 0-3.13.79-3.77 1.62l.41 1.42c.76-1.11 2-1.74 3.36-1.74 1.75 0 2.67 1.05 2.67 3.49v1.99h-1.75c-3.45 0-5.32 1.78-5.32 5.2 0 2.92 1.49 4.63 3.64 4.63 1.59 0 2.73-.95 3.49-2.47.09 1.14.25 1.74.38 2.15zm5.93-8.27l5.55 8.27h1.64l-5.64-8.55 5.26-7.42h-1.45l-5.36 7.51v-7.51h-1.49v15.97h1.49zm16.58-6.47v-1.23h-8.88v1.23h3.71v14.74h1.49V15.37zm9.73 14.74h1.43V14.14h-1.3l-5.2 11.22c-.32.7-.64 1.39-.86 2.12h-.09c.06-.69.12-1.39.12-2.25V14.14h-1.39v15.97h1.27l5.19-11.25c.35-.7.64-1.36.86-2.06h.1c-.07.67-.13 1.36-.13 2.19zm6.5-8.27l5.55 8.27h1.64l-5.64-8.55 5.26-7.42h-1.46l-5.35 7.51v-7.51h-1.49v15.97h1.49zm9.35 13.35c2.25 0 3.2-2.1 3.74-4.25l4.09-16.8h-1.33l-2.48 10.43a65.24 65.24 0 0 0-.76 3.61h-.09c-.16-1.23-.38-2.41-.67-3.61l-2.53-10.43h-1.49l3.96 16.42-.13.47c-.47 1.78-1.23 2.83-2.31 2.83-.41 0-.73-.07-.98-.13l.15 1.39c.23.04.48.07.83.07zm14.68-6.98h1.23l2.67-9.38c.22-.76.34-1.49.5-2.38h.13c-.06.89-.13 1.75-.13 2.82v10.84h1.43V14.14h-1.71L172 23.9c-.31 1.14-.44 1.87-.53 2.7h-.13c-.1-.83-.19-1.56-.51-2.7l-2.79-9.76h-1.74v15.97h1.27V19.27c0-1.14-.1-1.93-.16-2.79h.12c.19.8.29 1.49.54 2.35z"/></svg>